<?xml version="1.0" standalone="no"?> <!DOCTYPE svg PUBLIC "-//W3C//DTD SVG 1.0//EN" "http://www.w3.org/TR/2001/REC-SVG-20010904/DTD/svg10.dtd" > <svg xmlns="http://www.w3.org/2000/svg" width="100%" height="100%">
<defs >
<font id="Delicious-Roman" horiz-adv-x="839" ><font-face
    font-family="Delicious"
    units-per-em="2048"
    panose-1="0 0 0 0 0 0 0 0 0 0"
    ascent="1823"
    descent="-430"
    alphabetic="0" />
<missing-glyph horiz-adv-x="748" d="M68 0V1365H612V0H68ZM136 68H544V1297H136V68Z" />
<glyph unicode=" " glyph-name="space" horiz-adv-x="614" />
<glyph unicode="!" glyph-name="exclam" horiz-adv-x="540" d="M424 143T424 94T384 7T293 -31Q244 -31 209 2T174 84Q174 135 214 172T305 209Q354 209 389 176ZM399 1432Q364 1229 365 1036V332H242Q213 860 213 1085Q213 1265 244 1411L399 1432Z" />
<glyph unicode="&quot;" glyph-name="quotedbl" horiz-adv-x="708" d="M258 1450L287 1321L242 999H174L131 1321L158 1450H258ZM541 1450L569 1321L524 999H457L414 1321L440 1450H541Z" />
<glyph unicode="#" glyph-name="numbersign" horiz-adv-x="1138" d="M666 571L705 883H471L432 571H666ZM768 1382H891L846 1018H1020L1008 883H827L788 571H942L930 436H772L719 18H596L649 436H414L367 57H244L291 436H125L145 571H309L348 883H203L223 1018H365L416
1421H539L487 1018H723L768 1382Z" />
<glyph unicode="$" glyph-name="dollar" horiz-adv-x="911" d="M539 524V113Q607 136 643 192T680 322Q680 432 539 524ZM446 776V1188Q370 1176 329 1125T287 997Q287 942 312 899T363 836T446 776ZM838 319Q838 184 755 91T539 -25V-150H446V-31Q282 -27 137
57L184 180Q338 104 446 98V582Q440 586 400 611T351 643T308 672T264 705T228 739T193 779T167 820T144 869T132 922T127 983Q127 1130 213 1219T446 1319V1432H539V1317Q686 1299 788 1219L733 1108Q651 1167 539 1186V719Q698 618 745 567Q838 468 838 319Z"
/>
<glyph unicode="%" glyph-name="percent" horiz-adv-x="1431" d="M518 985T518 1048T474 1156T367 1200T259 1156T215 1049T259 941T366 897T474 941ZM987 1290L532 0H397L829 1196Q794 1178 741 1169T652 1158L616 1157Q639 1114 639 1049Q639 936 559 856T367
776T174 856T94 1048T174 1241T367 1321Q447 1321 512 1280Q594 1257 655 1257Q712 1257 769 1272T855 1304L883 1319L987 1290ZM1333 354T1333 242T1254 49T1061 -31T868 49T788 241T868 434T1061 514T1253 434ZM1212 178T1212 241T1168 349T1061 393T953 349T909
242T953 134T1060 90T1168 134Z" />
<glyph unicode="&amp;" glyph-name="ampersand" horiz-adv-x="1290" d="M846 1004V1100Q846 1194 795 1255T651 1317Q569 1317 506 1271T442 1145Q442 1069 507 1037T657 1004H846ZM1227 27Q1112 -30 1018 -31Q922 -31 880 33T838 199V885H639Q436 885 349 788T262
485Q262 292 326 172Q367 96 403 96Q426 96 459 130T538 197T641 231Q692 231 741 209L711 98Q670 110 647 111Q600 111 535 40T401 -31Q317 -31 253 21T155 156T104 320T86 479Q86 653 176 803T428 961Q287 1020 287 1145Q287 1268 394 1344T631 1421Q772 1421
880 1344T989 1130V1004H1192V885H993V207Q993 94 1073 94Q1126 94 1192 123L1227 27Z" />
<glyph unicode="&apos;" glyph-name="quotesingle" horiz-adv-x="425" d="M258 1450L287 1321L242 999H174L131 1321L158 1450H258Z" />
<glyph unicode="(" glyph-name="parenleft" horiz-adv-x="688" d="M629 -172L614 -299Q352 -100 224 132T96 680Q96 952 236 1198T610 1589L627 1473Q437 1348 327 1130T217 676Q217 158 629 -172Z" />
<glyph unicode=")" glyph-name="parenright" horiz-adv-x="694" d="M82 1589Q315 1444 455 1198T596 680Q596 365 468 133T78 -299L63 -172Q477 158 477 676Q477 912 367 1130T66 1473L82 1589Z" />
<glyph unicode="*" glyph-name="asterisk" horiz-adv-x="868" d="M543 1380L473 1149L778 1255V1128L510 1042L727 709H584L426 961L270 709H137L338 1042L72 1128V1260L379 1149L305 1380H543Z" />
<glyph unicode="+" glyph-name="plus" horiz-adv-x="964" d="M872 451H541V96H422V451H92V573H422V928H541V573H872V451Z" />
<glyph unicode="," glyph-name="comma" horiz-adv-x="528" d="M285 178Q312 178 344 155T396 108L416 84Q332 -94 152 -293L59 -229Q157 -88 182 10Q192 51 193 94L188 143Q246 178 285 178Z" />
<glyph unicode="-" glyph-name="hyphen" horiz-adv-x="618" d="M502 584V461H111V584H502Z" />
<glyph unicode="." glyph-name="period" horiz-adv-x="528" d="M397 143T397 94T357 7T266 -31Q217 -31 182 2T147 84Q147 135 187 172T279 209Q328 209 362 176Z" />
<glyph unicode="/" glyph-name="slash" horiz-adv-x="729" d="M694 1550L164 -303H35L565 1550H694Z" />
<glyph unicode="0" glyph-name="zero" horiz-adv-x="921" d="M555 905T461 905T307 835T226 679T205 502T225 325T306 169T461 98T615 169T696 325T717 502T697 679T616 834ZM864 635T864 502T825 252T692 52T461 -31T230 52T96 252T57 502T96 751T229 951T461
1034T692 951T825 752Z" />
<glyph unicode="1" glyph-name="one" horiz-adv-x="921" d="M612 0H461V858H203V956Q291 956 397 985L471 1004H612V0Z" />
<glyph unicode="2" glyph-name="two" horiz-adv-x="921" d="M465 1034Q608 1034 693 964T778 752Q778 564 588 348Q457 201 360 135H815V0H156L127 127Q283 211 452 406T621 750Q621 824 569 863T440 903Q307 903 156 786L127 905Q219 977 289 1005T465 1034Z" />
<glyph unicode="3" glyph-name="three" horiz-adv-x="921" d="M530 1034Q639 1034 709 971T780 799Q780 742 756 693T682 601T596 535T498 475Q627 475 716 397T805 193Q805 15 710 -111T471 -292T156 -344H147V-225Q215 -225 293 -205Q651 -123 651 160Q651 353
362 352Q303 352 188 340V459L279 471Q412 543 537 643Q627 713 627 795Q627 846 588 876T496 907Q445 907 354 869T197 793L160 901Q366 1034 530 1034Z" />
<glyph unicode="4" glyph-name="four" horiz-adv-x="921" d="M864 0H729V-283H584V0H72L63 133Q202 520 565 1004H733V133H864V0ZM584 133V813Q342 459 215 133H584Z" />
<glyph unicode="5" glyph-name="five" horiz-adv-x="921" d="M797 197Q797 -125 512 -260Q336 -344 145 -340H137V-221Q301 -217 449 -141Q642 -41 641 164Q641 262 576 309T408 356Q310 356 172 315L229 1004H737V881H371L338 469Q395 481 424 481Q434 481 450
480T477 479Q610 473 703 399T797 197Z" />
<glyph unicode="6" glyph-name="six" horiz-adv-x="921" d="M690 451Q690 564 626 624T446 684Q380 684 262 633Q246 555 246 481Q246 399 264 318T338 164T477 92Q690 93 690 451ZM676 1315L731 1214Q547 1099 447 1001T289 737Q416 784 504 784Q654 784 748
689T842 444Q842 319 805 215T680 40T465 -31Q363 -31 287 22T172 162T115 338T96 524Q96 788 256 989T676 1315Z" />
<glyph unicode="7" glyph-name="seven" horiz-adv-x="921" d="M793 1004V872Q793 600 656 232T342 -360L207 -303Q387 -65 516 267T645 872H121V1004H793Z" />
<glyph unicode="8" glyph-name="eight" horiz-adv-x="921" d="M690 338Q690 387 677 424T632 489T578 534T503 578T430 618Q237 518 238 340Q238 240 302 163T465 86T626 162T690 338ZM647 991Q647 1179 453 1180Q369 1180 318 1117T266 967Q266 885 310 835T438
741Q493 770 506 777T559 810T609 856T634 911T647 991ZM844 346Q844 172 734 71T446 -31Q299 -31 192 69T84 317Q84 434 150 528T328 674Q226 735 174 802T121 975Q121 1118 221 1204T469 1290Q621 1290 706 1213T791 983Q791 887 722 809T555 688Q621 655 646
640T720 591T788 528T826 451T844 346Z" />
<glyph unicode="9" glyph-name="nine" horiz-adv-x="921" d="M668 373Q684 451 684 524Q684 606 666 687T592 839T453 911Q240 911 240 551Q240 453 301 386T461 319Q580 320 668 373ZM461 1034Q563 1034 640 978T758 832T817 647T836 459Q836 193 646 -21T184
-346L141 -229Q344 -127 462 -21T641 264Q510 217 422 217Q354 217 291 246Q88 332 88 557Q88 756 180 895T461 1034Z" />
<glyph unicode=":" glyph-name="colon" horiz-adv-x="528" d="M397 143T397 94T357 7T266 -31Q217 -31 182 2T147 84Q147 135 187 172T279 209Q328 209 362 176ZM397 772T397 723T357 636T266 598Q217 598 182 631T147 713Q147 764 187 801T279 838Q328 838 362 805Z" />
<glyph unicode=";" glyph-name="semicolon" horiz-adv-x="528" d="M279 178Q306 178 338 155T390 108L410 84Q326 -94 145 -293L53 -229Q151 -88 176 10Q186 51 186 94L182 143Q240 178 279 178ZM397 721Q397 670 357 632T266 594Q217 594 182 626T147 709Q147
760 187 798T279 836Q328 836 362 803T397 721Z" />
<glyph unicode="&lt;" glyph-name="less" horiz-adv-x="614" d="M547 205L451 127L68 512L446 897L543 819L238 512L547 205Z" />
<glyph unicode="=" glyph-name="equal" horiz-adv-x="983" d="M872 416V293H90V416H872ZM872 721V598H90V721H872Z" />
<glyph unicode="&gt;" glyph-name="greater" horiz-adv-x="614" d="M68 205L164 127L547 512L168 897L72 819L377 512L68 205Z" />
<glyph unicode="?" glyph-name="question" horiz-adv-x="733" d="M397 143T397 94T357 7T266 -31Q217 -31 182 2T147 84Q147 135 187 172T279 209Q328 209 362 176ZM336 332H211V436Q211 522 213 563T233 666T289 778L457 1004Q527 1100 526 1165Q526 1222 496
1257T408 1292Q320 1292 236 1274V1391Q332 1418 420 1417Q541 1417 610 1354T680 1169Q680 1071 580 940L416 723Q371 664 354 603T336 436V332Z" />
<glyph unicode="@" glyph-name="at" horiz-adv-x="1622" d="M1018 936Q942 1034 813 1034Q735 1034 681 951T608 777T588 610Q588 551 609 504T684 457Q702 457 727 463T768 475T815 497T856 520T899 545T934 567L1018 936ZM1081 299Q1009 299 962 334T915 438Q915
450 920 471Q802 369 746 345Q699 324 655 324Q557 324 503 404T449 588Q449 682 467 773T525 951T641 1092T817 1147Q962 1147 1042 1030L1063 1114H1196L1055 522Q1043 477 1042 455Q1042 400 1098 399Q1223 399 1316 550T1409 836Q1409 1088 1246 1230T827 1372Q573
1372 398 1177T223 723Q223 453 402 266T852 78Q1004 78 1144 143T1374 326L1470 274Q1376 135 1200 49T852 -37Q533 -37 311 185T88 727Q88 1026 311 1256T831 1487Q1126 1487 1321 1308T1516 836Q1516 723 1460 600T1300 388T1081 299Z" />
<glyph unicode="A" glyph-name="A" horiz-adv-x="1044" d="M522 1120L369 551H676L522 1120ZM1020 0H852L715 416H330L193 0H25L434 1290H610L1020 0Z" />
<glyph unicode="B" glyph-name="B" horiz-adv-x="1028" d="M782 377Q782 451 759 500T689 572T593 604T471 612H328V135Q420 108 481 109Q616 109 699 176T782 377ZM713 967Q713 1164 479 1163H328V745H479Q583 745 648 805T713 967ZM481 1290Q604 1290 684 1260Q874
1184 874 965Q874 879 817 796T680 690Q805 682 875 593T946 375Q946 180 815 75T485 -31Q360 -31 164 20V1290H481Z" />
<glyph unicode="C" glyph-name="C" horiz-adv-x="1017" d="M967 84Q899 31 801 0T610 -31Q475 -31 375 29T219 190T139 404T113 645Q113 764 142 878T229 1094T387 1258T614 1321Q809 1321 946 1233L887 1126Q768 1192 614 1192Q528 1192 460 1134T353 986T296
806T276 637Q276 547 292 461T345 290T451 154T618 102Q784 102 897 186L967 84Z" />
<glyph unicode="D" glyph-name="D" horiz-adv-x="1120" d="M528 1159H326V131H516Q614 131 682 178T782 306T828 467T842 639Q841 1159 528 1159ZM537 1290Q670 1290 765 1234T911 1082T985 877T1008 643T981 409T899 205T746 56T516 0H164V1290H537Z" />
<glyph unicode="E" glyph-name="E" horiz-adv-x="929" d="M827 1290V1153H328V743H711V602H328V141H848V0H164V1290H827Z" />
<glyph unicode="F" glyph-name="F" horiz-adv-x="843" d="M770 1290V1155H328V743H678V602H328V0H164V1290H770Z" />
<glyph unicode="G" glyph-name="G" horiz-adv-x="1073" d="M950 23Q821 -30 614 -31Q479 -31 378 28T221 188T140 403T113 645Q113 764 142 878T229 1094T387 1258T614 1321Q710 1321 782 1301T948 1233L885 1124Q772 1194 614 1194Q503 1194 424 1098T310 879T276
637Q276 547 291 461T343 290T449 153T618 100Q727 100 799 129V551H950V23Z" />
<glyph unicode="H" glyph-name="H" horiz-adv-x="1122" d="M958 0H795V604H328V0H164V1290H328V743H795V1290H958V0Z" />
<glyph unicode="I" glyph-name="I" horiz-adv-x="487" d="M324 1290V0H164V1290H324Z" />
<glyph unicode="J" glyph-name="J" horiz-adv-x="501" d="M338 -57Q338 -262 47 -334L12 -223Q178 -168 178 -45V1290H338V-57Z" />
<glyph unicode="K" glyph-name="K" horiz-adv-x="993" d="M977 0H813L328 539V0H164V1290H328V700L778 1290H952L457 627L977 49V0Z" />
<glyph unicode="L" glyph-name="L" horiz-adv-x="782" d="M319 1290V135H764V0H164V1290H319Z" />
<glyph unicode="M" glyph-name="M" horiz-adv-x="1519" d="M1356 1290V0H1192V877L1202 1055L831 0H688L317 1057Q327 951 328 881V0H164V1290H381L760 201L1139 1290H1356Z" />
<glyph unicode="N" glyph-name="N" horiz-adv-x="1134" d="M971 0H803L317 1053Q327 957 328 877V0H164V1290H381L817 303Q807 401 807 483V1290H971V0Z" />
<glyph unicode="O" glyph-name="O" horiz-adv-x="1122" d="M639 1186T561 1186T424 1127T335 976T291 801T276 645T290 490T335 315T424 164T561 104T698 163T787 314T831 489T846 645T832 801T788 976T699 1126ZM442 1321T561 1321T771 1256T912 1085T986 868T1010
646T987 423T913 206T771 35T561 -31T351 34T210 205T137 423T113 645T136 867T210 1084T351 1255Z" />
<glyph unicode="P" glyph-name="P" horiz-adv-x="1001" d="M442 1159H328V637Q426 594 494 594Q615 594 686 683T758 895Q758 1028 669 1093T442 1159ZM442 1290Q653 1290 787 1192T922 893Q922 703 808 582T504 461Q404 461 328 502V0H164V1290H442Z" />
<glyph unicode="Q" glyph-name="Q" horiz-adv-x="1122" d="M686 -10Q815 -147 948 -147Q989 -147 1022 -139L979 -295Q946 -299 930 -299Q879 -299 834 -286T745 -241T678 -189T608 -122T551 -63L514 -29Q408 -17 326 54T200 226T135 434T113 645Q113 756 136
867T210 1084T351 1255T561 1321T771 1256T912 1085T986 868T1010 645Q1010 436 930 243T686 -10ZM639 1186T561 1186T424 1127T335 976T291 801T276 645T290 490T335 315T424 164T561 104T698 163T787 314T831 489T846 645T832 801T788 976T699 1126Z" />
<glyph unicode="R" glyph-name="R" horiz-adv-x="1034" d="M758 895Q758 1028 669 1093T442 1159H328V637Q422 594 479 594Q608 594 683 679T758 895ZM983 0H823L399 471Q360 483 328 502V0H164V1290H442Q653 1290 787 1192T922 893Q922 735 838 619T602 471L983 49V0Z" />
<glyph unicode="S" glyph-name="S" horiz-adv-x="888" d="M451 1321Q539 1321 624 1280T754 1169L662 1092Q584 1190 451 1190Q365 1190 309 1141T252 1008Q252 926 309 862T447 752T609 656T747 519T805 319Q805 161 695 65T424 -31Q348 -31 263 3T117 90L186
207Q315 101 426 100Q522 100 584 162T647 322Q647 394 590 454T451 561T288 660T150 795T92 983Q92 1145 189 1233T451 1321Z" />
<glyph unicode="T" glyph-name="T" horiz-adv-x="829" d="M809 1147H494V0H334V1147H20V1290H809V1147Z" />
<glyph unicode="U" glyph-name="U" horiz-adv-x="1142" d="M981 494Q981 269 883 119T571 -31T260 120T162 502V1290H326V500Q326 105 571 105T817 502V1290H981V494Z" />
<glyph unicode="V" glyph-name="V" horiz-adv-x="1044" d="M1034 1290L612 0H432L12 1290H190L526 197L864 1290H1034Z" />
<glyph unicode="W" glyph-name="W" horiz-adv-x="1449" d="M1434 1290L1130 0H956L727 1042L498 0H324L20 1290H195L393 377Q401 344 405 310T410 259V242L645 1290H809L1044 242Q1044 305 1061 377L1268 1290H1434Z" />
<glyph unicode="X" glyph-name="X" horiz-adv-x="1007" d="M983 0H795L492 512L199 0H20L403 662L31 1290H209L494 817L768 1290H936L582 670L983 0Z" />
<glyph unicode="Y" glyph-name="Y" horiz-adv-x="964" d="M940 1290L563 473V0H401V473L27 1290H201L487 647L776 1290H940Z" />
<glyph unicode="Z" glyph-name="Z" horiz-adv-x="937" d="M821 1290V1149Q520 653 254 143H877V0H74V139Q357 698 631 1149H119V1290H821Z" />
<glyph unicode="[" glyph-name="bracketleft" horiz-adv-x="507" d="M375 1499V1380H184V-201H375V-319H57V1499H375Z" />
<glyph unicode="\" glyph-name="backslash" horiz-adv-x="686" d="M682 -303H555L25 1550H152L682 -303Z" />
<glyph unicode="]" glyph-name="bracketright" horiz-adv-x="509" d="M453 1499V-319H135V-201H326V1380H135V1499H453Z" />
<glyph unicode="^" glyph-name="asciicircum" horiz-adv-x="1277" d="M1128 655H985L637 1284L289 655H145L580 1450H694Q1099 704 1128 655Z" />
<glyph unicode="_" glyph-name="underscore" horiz-adv-x="921" d="M922 -154V-276H0V-154H922Z" />
<glyph unicode="`" glyph-name="grave" horiz-adv-x="692" d="M535 1241L469 1149Q229 1276 92 1411L219 1540Q326 1393 535 1241Z" />
<glyph unicode="a" glyph-name="a" horiz-adv-x="954" d="M627 426V510L266 358Q239 301 240 252Q240 184 276 138T379 92Q488 92 557 201T627 426ZM928 10Q869 -27 809 -27Q727 -27 678 22T629 154Q604 68 523 19T348 -31Q225 -31 156 45T86 246Q86 318 145 428L627
633V762Q627 834 584 870T469 907Q399 907 323 863T193 760L135 856Q196 934 292 984T483 1034Q620 1034 701 966T782 762V137Q782 76 848 76Q873 76 889 88L928 10Z" />
<glyph unicode="b" glyph-name="b" horiz-adv-x="1030" d="M770 537Q770 600 762 656T732 773T663 869T551 905Q492 905 429 873T324 793V178Q359 139 416 117T526 94Q598 94 649 140T725 260T760 401T770 537ZM930 559Q930 467 918 387T875 229T796 94T671 3T496
-31Q418 -31 327 5T168 92V1421H324V928Q367 977 437 1005T573 1034Q745 1034 837 888T930 559Z" />
<glyph unicode="c" glyph-name="c" horiz-adv-x="843" d="M793 86Q736 37 656 3T504 -31Q307 -31 204 127T100 492Q100 621 139 739T273 946T502 1034Q658 1034 764 932L694 840Q608 912 504 911Q418 911 359 840T278 682T256 512Q256 422 277 332T361 167T516
92Q602 92 741 182L793 86Z" />
<glyph unicode="d" glyph-name="d" horiz-adv-x="1048" d="M729 459V872Q641 909 545 909Q262 909 262 467Q262 412 273 353T307 232T376 131T481 92Q596 92 662 213T729 459ZM940 70L897 -31Q819 -27 784 8Q737 59 737 150Q714 64 635 17T461 -31Q289 -31 196
115T102 444Q102 563 122 662T190 849T325 985T532 1034Q620 1034 729 1004V1421H885V188Q885 76 940 70Z" />
<glyph unicode="e" glyph-name="e" horiz-adv-x="964" d="M715 668Q715 762 660 836T512 911Q422 911 361 838T279 668H715ZM879 551H260V512Q260 428 280 338T359 170T504 92Q604 92 788 219L838 121Q766 60 668 15T487 -31Q383 -31 304 21T183 160T121 339T100
528Q100 725 218 879T526 1034Q671 1034 767 920T874 655Q876 639 876 604T879 551Z" />
<glyph unicode="f" glyph-name="f" horiz-adv-x="585" d="M565 1327Q557 1327 539 1325T485 1311T418 1280T365 1224T342 1137V1004H541V885H342V0H186V885L51 903V1004H186V1163Q186 1405 537 1448L565 1327Z" />
<glyph unicode="g" glyph-name="g" horiz-adv-x="931" d="M885 881H739Q786 799 786 689T716 492T537 373Q533 371 514 366T484 356T452 345T416 332T383 317T354 298T330 279T312 255T307 229Q307 157 561 158H631Q731 158 799 102T868 -51Q868 -217 731 -313T422
-410Q285 -410 184 -354T82 -170Q82 -123 97 -85T146 -18T206 29T283 74Q228 80 188 116T147 203Q147 240 162 269T211 321T267 355T332 383Q234 418 175 504T115 694Q115 846 211 940T459 1034Q549 1034 608 1004H885V881ZM637 614T637 700T586 857T451 928T316
857T264 700T315 544T451 473T586 543ZM717 -70Q717 49 520 49H399Q362 29 341 15T291 -24T248 -77T233 -139Q233 -219 289 -258T430 -297Q532 -297 624 -233T717 -70Z" />
<glyph unicode="h" glyph-name="h" horiz-adv-x="1062" d="M899 0H743V762Q743 838 719 872T623 907Q545 907 456 874T324 803V0H168V1421H324V930Q379 969 475 1001T649 1034Q796 1034 847 965T899 762V0Z" />
<glyph unicode="i" glyph-name="i" horiz-adv-x="487" d="M319 1004V0H168V1004H319ZM123 1284Q123 1331 158 1362T240 1393Q285 1393 318 1363T352 1288Q352 1241 318 1211T236 1180Q191 1180 157 1209T123 1284Z" />
<glyph unicode="j" glyph-name="j" horiz-adv-x="487" d="M319 -119Q319 -314 37 -393L2 -285Q168 -222 168 -104V1004H319V-119ZM123 1284Q123 1331 158 1362T240 1393Q285 1393 318 1363T352 1288Q352 1241 318 1211T236 1180Q191 1180 157 1209T123 1284Z" />
<glyph unicode="k" glyph-name="k" horiz-adv-x="964" d="M956 0H793L324 559V0H168V1421H324V584L686 1004H870L502 571L956 37V0Z" />
<glyph unicode="l" glyph-name="l" horiz-adv-x="483" d="M307 1421V403Q307 200 369 0H207Q156 139 156 403V1421H307Z" />
<glyph unicode="m" glyph-name="m" horiz-adv-x="1579" d="M1415 0H1260V762Q1260 836 1231 871T1130 907Q980 907 868 815Q870 797 870 762V0H715V762Q715 836 686 871T586 907Q455 907 324 803V0H168V1004H324V930Q469 1034 600 1034Q782 1034 838 928Q891 971
984 1002T1145 1034Q1415 1034 1415 762V0Z" />
<glyph unicode="n" glyph-name="n" horiz-adv-x="1062" d="M899 0H743V762Q743 838 719 872T623 907Q545 907 455 873T324 803V0H168V1004H324V930Q379 969 475 1001T649 1034Q796 1034 847 965T899 762V0Z" />
<glyph unicode="o" glyph-name="o" horiz-adv-x="999" d="M580 911T500 911T362 839T280 675T256 500Q256 361 320 227T499 92T678 226T743 500Q743 584 720 675T638 838ZM369 1034T500 1034T725 947T859 744T899 500Q899 375 858 257T723 54T500 -31T277 54T141
257T100 500Q100 627 140 743T274 947Z" />
<glyph unicode="p" glyph-name="p" horiz-adv-x="1056" d="M795 537Q795 600 787 657T756 776T687 874T575 911Q514 911 447 877T328 793V498Q328 430 338 367T373 238T451 132T575 92Q643 92 690 139T758 263T787 404T795 537ZM598 1034Q770 1034 862 888T954
559Q954 481 945 407T912 250T847 108T740 8T586 -31Q398 -31 328 127V-360H172V1004H328V928Q379 975 454 1004T598 1034Z" />
<glyph unicode="q" glyph-name="q" horiz-adv-x="1056" d="M731 498V874Q647 907 541 907Q404 907 334 795T264 537Q264 95 481 94Q532 94 580 123Q731 215 731 498ZM887 -360H731V127Q657 -31 473 -31Q375 -31 300 16T184 140T123 303T102 481Q102 577 126 671T196
849T322 983T506 1034Q656 1034 887 971V-360Z" />
<glyph unicode="r" glyph-name="r" horiz-adv-x="653" d="M643 1004L588 864Q555 891 496 891Q463 891 426 869T375 833T324 782V0H168V1004H326V924Q330 928 344 943T365 964T389 984T419 1004T451 1020T493 1031T543 1034Q568 1034 593 1027T631 1012L643 1004Z" />
<glyph unicode="s" glyph-name="s" horiz-adv-x="860" d="M764 260Q764 117 661 43T410 -31Q250 -31 117 88L174 199Q315 90 418 90Q500 90 557 128T614 244Q614 338 487 401L274 508Q96 598 96 768Q96 899 197 966T436 1034Q526 1034 611 999T745 895L664 813Q564
913 432 913Q360 913 305 879T250 776Q250 739 275 708T324 663T391 627L580 535Q764 444 764 260Z" />
<glyph unicode="t" glyph-name="t" horiz-adv-x="626" d="M575 27Q485 -30 367 -31Q287 -31 237 23T186 199V885L51 903V1004H195V1182H338V1004H541V885H342V207Q342 94 422 94Q445 94 474 101T522 116L541 123L575 27Z" />
<glyph unicode="u" glyph-name="u" horiz-adv-x="1062" d="M938 72L887 -31Q832 -31 792 1T743 86Q682 33 592 1T420 -31Q281 -31 223 35T164 242V1004H319V242Q319 166 340 131T434 96Q502 96 595 132T739 213V1004H895V154Q895 76 938 72Z" />
<glyph unicode="v" glyph-name="v" horiz-adv-x="925" d="M899 1004Q770 461 539 0H385L20 1004H188L465 176Q664 629 743 1004H899Z" />
<glyph unicode="w" glyph-name="w" horiz-adv-x="1372" d="M1339 1004Q1253 484 1063 0H897L758 512Q744 565 729 642T705 769L696 819Q671 637 639 512L502 0H330L25 1004H188L418 188L612 1004H774L987 188Q1112 567 1190 1004H1339Z" />
<glyph unicode="x" glyph-name="x" horiz-adv-x="868" d="M844 0H670L426 391L188 0H25L342 520L41 1004H211L428 655L639 1004H803L510 526L844 0Z" />
<glyph unicode="y" glyph-name="y" horiz-adv-x="929" d="M905 1004Q655 31 412 -252Q334 -342 172 -381L139 -262Q209 -246 291 -176Q334 -139 397 -16L23 1004H186L420 346Q459 231 475 141Q629 524 750 1004H905Z" />
<glyph unicode="z" glyph-name="z" horiz-adv-x="872" d="M807 0H70V133Q349 596 588 872H111V1004H768V868Q477 514 250 133H807V0Z" />
<glyph unicode="{" glyph-name="braceleft" horiz-adv-x="681" d="M594 -221L571 -332H455Q414 -332 383 -324T319 -291T268 -210T250 -68V293Q250 395 198 468T82 541V637Q145 637 197 708T250 883V1243Q250 1403 305 1456T451 1509H571L594 1399H473Q416 1399
396 1363T375 1214V854Q375 772 337 705T261 610L223 584Q229 580 239 574T276 544T322 493T358 419T375 322V-39Q375 -152 396 -186T485 -221H594Z" />
<glyph unicode="|" glyph-name="bar" horiz-adv-x="454" d="M289 1548V-37H166V1548H289Z" />
<glyph unicode="}" glyph-name="braceright" horiz-adv-x="681" d="M594 541Q531 541 479 468T426 293V-68Q426 -154 409 -210T358 -290T293 -323T221 -332H104L82 -221H190Q258 -221 279 -187T301 -39V322Q301 373 316 419T354 493T399 543T437 574L453 584Q447
588 437 594T400 625T354 680T318 756T301 854V1214Q301 1327 281 1363T203 1399H82L104 1509H225Q266 1509 297 1501T359 1468T408 1386T426 1243V883Q426 781 478 709T594 637V541Z" />
<glyph unicode="~" glyph-name="asciitilde" horiz-adv-x="1363" d="M299 631Q324 684 373 721T477 758Q555 758 690 688T899 618Q1012 618 1065 737L1063 590Q1038 543 988 513T885 483Q809 483 672 553T463 623Q357 623 299 504V631Z" />
<glyph unicode="&#xa0;" glyph-name="uni00A0" horiz-adv-x="460" />
<glyph unicode="&#xa1;" glyph-name="exclamdown" horiz-adv-x="540" d="M119 905Q119 956 159 994T250 1032Q299 1032 334 999T369 916T329 829T238 791Q189 791 154 823T119 905ZM143 -430Q178 -231 178 -35V670H301Q332 105 332 -84Q332 -254 299 -410L143 -430Z" />
<glyph unicode="&#xa2;" glyph-name="cent" horiz-adv-x="843" d="M449 102V897Q349 864 303 750T256 512Q256 387 303 263T449 102ZM541 1169V1030Q678 1016 764 932L694 840Q631 891 541 905V94Q623 104 741 182L793 86Q695 -6 541 -29V-152H449V-29Q316 -6
223 102Q100 243 100 492Q100 730 201 864Q297 997 449 1028V1169H541Z" />
<glyph unicode="&#xa3;" glyph-name="sterling" horiz-adv-x="905" d="M815 76Q774 31 713 0T594 -31Q567 -31 522 -23T446 -7L416 0H109Q183 330 182 514V778L61 791L102 893H182V1163Q182 1292 279 1354T512 1417Q657 1417 725 1360L690 1266Q627 1303 524 1303Q338
1303 338 1133V893H612V770H338V510Q338 330 291 125H436Q555 86 616 86Q663 86 712 112T793 178L815 76Z" />
<glyph unicode="&#xa4;" glyph-name="currency" horiz-adv-x="1110" d="M1126 1270L1069 1147Q956 1284 768 1284Q438 1284 389 885H950L889 756H373Q369 703 369 688Q369 672 373 627H829L768 498H389Q412 308 508 206T748 104Q834 104 919 147T1065 266V102Q938
-25 737 -25Q542 -25 405 116T246 498H20L82 627H231Q229 654 229 690Q229 729 231 756H20L82 885H246Q271 1114 413 1263T778 1413Q983 1413 1126 1270Z" />
<glyph unicode="&#xa5;" glyph-name="yen" horiz-adv-x="974" d="M956 649H653L569 467V457H952V334H569V0H406V334H31V457H406V469L322 649H35V772H264L25 1290H199L487 647L776 1290H948Q710 772 709 772H956V649Z" />
<glyph unicode="&#xa7;" glyph-name="section" horiz-adv-x="860" d="M616 537Q616 603 564 642T444 682Q350 682 294 635T238 496Q238 439 290 403T401 367Q493 367 554 408T616 537ZM432 1325Q590 1325 727 1247L672 1141Q533 1207 428 1206Q348 1206 297 1164T246
1044Q246 993 299 952T428 878T578 805T706 700T760 547Q760 438 701 368T535 274Q598 241 638 215T715 137T752 27Q752 -127 654 -209T399 -291Q213 -291 43 -190L100 -78Q247 -168 408 -168Q494 -168 549 -126T604 0Q604 61 551 108T421 189T267 260T137 355T84
489Q84 614 157 684T358 772Q210 842 165 883Q92 948 92 1038Q92 1177 190 1251T432 1325Z" />
<glyph unicode="&#xa8;" glyph-name="dieresis" horiz-adv-x="786" d="M322 1315Q322 1270 283 1235T199 1200Q166 1200 144 1221T121 1276Q121 1321 157 1359T238 1397Q273 1397 297 1374T322 1315ZM637 1315Q637 1270 598 1235T514 1200Q481 1200 459 1221T436
1276Q436 1321 472 1359T553 1397Q588 1397 612 1374T637 1315Z" />
<glyph unicode="&#xa9;" glyph-name="copyright" horiz-adv-x="1800" d="M1563 774T1563 502T1370 36T904 -158T439 35T246 501T438 966T903 1159Q1177 1159 1370 967ZM1462 270T1462 501T1299 897T904 1061T509 897T346 502Q346 266 510 105T909 -57Q1138 -57
1300 106ZM1137 233Q1096 194 1033 165T918 135Q766 135 680 239T594 500Q594 654 676 762T907 870Q1030 870 1116 791L1061 721Q1000 772 907 772Q803 772 757 695T711 506Q711 389 761 310T922 231Q998 231 1094 301L1137 233Z" />
<glyph unicode="&#xaa;" glyph-name="ordfeminine" horiz-adv-x="860" d="M764 260Q764 117 661 43T410 -31Q250 -31 117 88L174 199Q315 90 418 90Q500 90 557 128T614 244Q614 338 487 401L274 508Q96 598 96 768Q96 899 197 966T436 1034Q526 1034 611 999T745
895L664 813Q564 913 432 913Q360 913 305 879T250 776Q250 739 275 708T324 663T391 627L580 535Q764 444 764 260ZM182 1501Q301 1438 430 1296Q596 1454 682 1499L748 1407Q545 1262 432 1108Q295 1286 117 1409L182 1501Z" />
<glyph unicode="&#xab;" glyph-name="guillemotleft" horiz-adv-x="1024" d="M547 205L451 127L68 512L446 897L543 819L238 512L547 205ZM911 205L815 127L432 512L811 897L907 819L602 512L911 205Z" />
<glyph unicode="&#xac;" glyph-name="logicalnot" horiz-adv-x="1095" d="M920 360L799 338V760H94V883H920V360Z" />
<glyph unicode="&#xae;" glyph-name="registered" horiz-adv-x="1800" d="M1556 774T1556 500T1364 33T899 -160T435 33T242 500Q242 774 433 965T899 1157T1365 966ZM1456 268T1456 499T1292 895T899 1059Q668 1059 505 895T342 500Q342 262 505 102T905 -59Q1136
-59 1296 104ZM1192 145H1083L838 393Q815 399 793 412V145H688V872H864Q989 872 1076 813T1163 635Q1163 551 1106 476T967 393L1192 176V145ZM1055 561T1055 639T1001 752T864 788H793V498Q850 471 887 471Q963 471 1009 516Z" />
<glyph unicode="&#xaf;" glyph-name="overscore" horiz-adv-x="686" d="M623 1294V1174H61V1294H623Z" />
<glyph unicode="&#xb0;" glyph-name="degree" horiz-adv-x="720" d="M432 1231T352 1231T216 1175T160 1038T216 902T352 846T488 902T545 1038T489 1174ZM236 1323T352 1323T553 1239T637 1039T553 838T353 754T152 838T68 1038T152 1239Z" />
<glyph unicode="&#xb1;" glyph-name="plusminus" horiz-adv-x="915" d="M852 121V-2H113V121H852ZM872 451H541V195H422V451H92V573H422V928H541V573H872V451Z" />
<glyph unicode="&#xb4;" glyph-name="acute" horiz-adv-x="692" d="M436 1540L563 1411Q424 1274 186 1149L121 1241Q213 1307 292 1381T403 1498L436 1540Z" />
<glyph unicode="&#xb5;" glyph-name="uni00B5" horiz-adv-x="1062" d="M371 -180Q371 -256 332 -324L127 -360Q186 -223 186 -131Q186 -70 175 55T164 242V1004H319V242Q319 166 340 131T434 96Q504 96 596 132T739 213V1004H895V154Q895 74 938 72L887 -31Q832
-31 792 1T743 86Q680 35 591 2T420 -31Q389 -31 332 0Q371 -117 371 -180Z" />
<glyph unicode="&#xb6;" glyph-name="paragraph" horiz-adv-x="1112" d="M1018 1309L1012 1204L905 1180Q905 832 836 439T635 -221L504 -180Q645 76 716 455T788 1180Q532 1207 496 1206Q410 1206 374 1134T338 967Q338 916 345 868T370 769T427 688T520 657Q608
657 686 719Q584 516 393 516Q229 516 142 637T55 928Q55 1100 160 1210T436 1321Q489 1321 549 1316T683 1303T795 1290L793 1378H907Q907 1319 905 1290L1018 1309Z" />
<glyph unicode="&#xb7;" glyph-name="middot" horiz-adv-x="528" d="M397 553T397 504T357 417T266 379Q217 379 182 411T147 494Q147 545 187 581T279 618Q328 618 362 586Z" />
<glyph unicode="&#xb8;" glyph-name="cedilla" horiz-adv-x="823" d="M678 -129Q678 -197 611 -260T467 -356L389 -293Q555 -203 555 -139Q555 -112 537 -96T489 -80Q462 -80 389 -98V-2H602Q678 -57 678 -129Z" />
<glyph unicode="&#xba;" glyph-name="ordmasculine" horiz-adv-x="843" d="M793 86Q736 37 656 3T504 -31Q307 -31 204 127T100 492Q100 621 139 739T273 946T502 1034Q658 1034 764 932L694 840Q608 912 504 911Q418 911 359 840T278 682T256 512Q256 422 277
332T361 167T516 92Q602 92 741 182L793 86ZM571 1540L698 1411Q559 1274 322 1149L256 1241Q348 1307 427 1381T539 1498L571 1540Z" />
<glyph unicode="&#xbb;" glyph-name="guillemotright" horiz-adv-x="1024" d="M496 205L592 127L975 512L596 897L500 819L805 512L496 205ZM131 205L227 127L610 512L231 897L135 819L440 512L131 205Z" />
<glyph unicode="&#xbf;" glyph-name="questiondown" horiz-adv-x="733" d="M369 909Q369 960 409 997T500 1034Q549 1034 583 1002T618 920T579 833T487 795Q438 795 404 827T369 909ZM430 666H555V567Q555 481 553 440T533 337T477 225L309 0Q239 -92 240 -160Q240
-219 270 -254T358 -289Q446 -289 530 -270V-387Q419 -414 346 -414Q225 -414 156 -351T86 -164Q86 -70 186 66L350 281Q397 342 413 402T430 567V666Z" />
<glyph unicode="&#xc0;" glyph-name="Agrave" horiz-adv-x="1044" d="M522 1120L369 551H676L522 1120ZM1020 0H852L715 416H330L193 0H25L434 1290H610L1020 0ZM750 1507L684 1415Q444 1542 307 1677L434 1806Q541 1659 750 1507Z" />
<glyph unicode="&#xc1;" glyph-name="Aacute" horiz-adv-x="1044" d="M522 1120L369 551H676L522 1120ZM1020 0H852L715 416H330L193 0H25L434 1290H610L1020 0ZM623 1806L750 1677Q611 1540 373 1415L307 1507Q399 1573 478 1647T590 1764L623 1806Z" />
<glyph unicode="&#xc2;" glyph-name="Acircumflex" horiz-adv-x="1044" d="M522 1120L369 551H676L522 1120ZM1020 0H852L715 416H330L193 0H25L434 1290H610L1020 0ZM829 1507L764 1413Q647 1474 516 1618Q383 1473 268 1413L203 1505Q367 1618 516 1806Q643
1642 829 1507Z" />
<glyph unicode="&#xc3;" glyph-name="Atilde" horiz-adv-x="1044" d="M522 1120L369 551H676L522 1120ZM1020 0H852L715 416H330L193 0H25L434 1290H610L1020 0ZM385 1700Q444 1700 531 1655T666 1610Q719 1610 749 1623T838 1675L901 1597Q827 1529 776 1506T651
1483Q610 1483 523 1528T379 1573Q361 1573 344 1569T304 1554T271 1537T232 1514T199 1493L139 1581Q291 1700 385 1700Z" />
<glyph unicode="&#xc4;" glyph-name="Adieresis" horiz-adv-x="1044" d="M522 1120L369 551H676L522 1120ZM1020 0H852L715 416H330L193 0H25L434 1290H610L1020 0ZM459 1581Q459 1536 420 1501T336 1466Q303 1466 281 1487T258 1542Q258 1587 294 1625T375 1663Q410
1663 434 1640T459 1581ZM774 1581Q774 1536 735 1501T651 1466Q618 1466 596 1487T573 1542Q573 1587 609 1625T690 1663Q725 1663 749 1640T774 1581Z" />
<glyph unicode="&#xc5;" glyph-name="Aring" horiz-adv-x="1044" d="M522 1120L369 551H676L522 1120ZM1020 0H852L715 416H330L193 0H25L434 1290H610L1020 0ZM645 1556T645 1605T610 1692T528 1729Q477 1729 439 1692T401 1606T438 1520T522 1483Q571 1483 608
1519ZM739 1696T739 1606T675 1453T522 1389T372 1452T309 1606Q309 1694 373 1758T526 1823T676 1760Z" />
<glyph unicode="&#xc6;" glyph-name="AE" horiz-adv-x="1486" d="M522 1120L371 551H676L522 1120ZM1384 1290V1153H885V743H1268V602H885V141H1405V0H721V416H332L195 0H25L432 1290H623L721 858V1290H1384Z" />
<glyph unicode="&#xc7;" glyph-name="Ccedilla" horiz-adv-x="1017" d="M770 -129Q770 -197 703 -260T559 -356L481 -293Q647 -203 647 -139Q647 -112 629 -96T582 -80Q555 -80 481 -98V-16Q379 13 304 82T190 247T132 441T113 645Q113 764 142 878T229 1094T387
1258T614 1321Q813 1321 946 1233L887 1126Q760 1194 614 1194Q532 1194 460 1132T348 987Q276 842 276 637Q276 547 292 461T345 289T451 151T618 98Q782 98 895 188L967 84Q869 4 717 -23Q770 -76 770 -129Z" />
<glyph unicode="&#xc8;" glyph-name="Egrave" horiz-adv-x="929" d="M827 1290V1153H328V743H711V602H328V141H848V0H164V1290H827ZM727 1507L662 1415Q429 1538 285 1677L412 1806Q524 1654 727 1507Z" />
<glyph unicode="&#xc9;" glyph-name="Eacute" horiz-adv-x="929" d="M827 1290V1153H328V743H711V602H328V141H848V0H164V1290H827ZM604 1806L731 1677Q592 1540 354 1415L289 1507Q381 1573 460 1647T571 1764L604 1806Z" />
<glyph unicode="&#xca;" glyph-name="Ecircumflex" horiz-adv-x="929" d="M827 1290V1153H328V743H711V602H328V141H848V0H164V1290H827ZM811 1507L745 1413Q628 1474 498 1618Q357 1468 250 1413L184 1505Q348 1618 498 1806Q629 1636 811 1507Z" />
<glyph unicode="&#xcb;" glyph-name="Edieresis" horiz-adv-x="929" d="M827 1290V1153H328V743H711V602H328V141H848V0H164V1290H827ZM438 1581Q438 1536 400 1501T317 1466Q284 1466 262 1487T240 1542Q240 1587 274 1625T356 1663Q391 1663 414 1640T438 1581ZM754
1581Q754 1536 716 1501T633 1466Q600 1466 578 1487T555 1542Q555 1587 590 1625T672 1663Q707 1663 730 1640T754 1581Z" />
<glyph unicode="&#xcc;" glyph-name="Igrave" horiz-adv-x="487" d="M467 1507L401 1415Q165 1538 25 1677L152 1806Q262 1652 467 1507ZM324 1290V0H164V1290H324Z" />
<glyph unicode="&#xcd;" glyph-name="Iacute" horiz-adv-x="487" d="M338 1806L465 1677Q326 1540 88 1415L23 1507Q115 1573 193 1647T305 1764L338 1806ZM324 1290V0H164V1290H324Z" />
<glyph unicode="&#xce;" glyph-name="Icircumflex" horiz-adv-x="487" d="M557 1507L492 1413Q375 1474 244 1618Q111 1473 -4 1413L-70 1505Q94 1618 244 1806Q371 1642 557 1507ZM324 1290V0H164V1290H324Z" />
<glyph unicode="&#xcf;" glyph-name="Idieresis" horiz-adv-x="487" d="M186 1581Q186 1536 148 1501T63 1466Q30 1466 8 1487T-14 1542Q-14 1587 21 1625T102 1663Q137 1663 161 1640T186 1581ZM502 1581Q502 1536 463 1501T379 1466Q346 1466 324 1487T301 1542Q301
1587 337 1625T418 1663Q453 1663 477 1640T502 1581ZM324 1290V0H164V1290H324Z" />
<glyph unicode="&#xd1;" glyph-name="Ntilde" horiz-adv-x="1134" d="M971 0H803L317 1053Q327 957 328 877V0H164V1290H381L817 303Q807 401 807 483V1290H971V0ZM440 1700Q499 1700 586 1655T721 1610Q774 1610 805 1623T893 1675L956 1597Q882 1529 831 1506T707
1483Q666 1483 579 1528T434 1573Q416 1573 399 1569T359 1554T326 1537T287 1514T254 1493L195 1581Q346 1700 440 1700Z" />
<glyph unicode="&#xd2;" glyph-name="Ograve" horiz-adv-x="1122" d="M778 1507L713 1415Q473 1542 336 1677L463 1806Q569 1659 778 1507ZM639 1186T561 1186T424 1127T335 976T291 801T276 645T290 490T335 315T424 164T561 104T698 163T787 314T831 489T846
645T832 801T788 976T699 1126ZM442 1321T561 1321T771 1256T912 1085T986 868T1010 646T987 423T913 206T771 35T561 -31T351 34T210 205T137 423T113 645T136 867T210 1084T351 1255Z" />
<glyph unicode="&#xd3;" glyph-name="Oacute" horiz-adv-x="1122" d="M657 1806L784 1677Q645 1540 408 1415L342 1507Q434 1573 513 1647T625 1764L657 1806ZM639 1186T561 1186T424 1127T335 976T291 801T276 645T290 490T335 315T424 164T561 104T698 163T787
314T831 489T846 645T832 801T788 976T699 1126ZM442 1321T561 1321T771 1256T912 1085T986 868T1010 646T987 423T913 206T771 35T561 -31T351 34T210 205T137 423T113 645T136 867T210 1084T351 1255Z" />
<glyph unicode="&#xd4;" glyph-name="Ocircumflex" horiz-adv-x="1122" d="M872 1513L807 1419Q694 1476 559 1624Q430 1479 311 1419L246 1511Q406 1620 559 1812Q686 1648 872 1513ZM639 1186T561 1186T424 1127T335 976T291 801T276 645T290 490T335 315T424
164T561 104T698 163T787 314T831 489T846 645T832 801T788 976T699 1126ZM442 1321T561 1321T771 1256T912 1085T986 868T1010 646T987 423T913 206T771 35T561 -31T351 34T210 205T137 423T113 645T136 867T210 1084T351 1255Z" />
<glyph unicode="&#xd5;" glyph-name="Otilde" horiz-adv-x="1122" d="M422 1700Q481 1700 568 1655T702 1610Q755 1610 786 1623T874 1675L938 1597Q864 1529 813 1506T688 1483Q647 1483 560 1528T416 1573Q398 1573 380 1569T340 1554T307 1537T269 1514T236
1493L176 1581Q328 1700 422 1700ZM639 1186T561 1186T424 1127T335 976T291 801T276 645T290 490T335 315T424 164T561 104T698 163T787 314T831 489T846 645T832 801T788 976T699 1126ZM442 1321T561 1321T771 1256T912 1085T986 868T1010 646T987 423T913 206T771
35T561 -31T351 34T210 205T137 423T113 645T136 867T210 1084T351 1255Z" />
<glyph unicode="&#xd6;" glyph-name="Odieresis" horiz-adv-x="1122" d="M639 1186T561 1186T424 1127T335 976T291 801T276 645T290 490T335 315T424 164T561 104T698 163T787 314T831 489T846 645T832 801T788 976T699 1126ZM442 1321T561 1321T771 1256T912
1085T986 868T1010 646T987 423T913 206T771 35T561 -31T351 34T210 205T137 423T113 645T136 867T210 1084T351 1255ZM500 1581Q500 1536 461 1501T377 1466Q344 1466 322 1487T299 1542Q299 1587 335 1625T416 1663Q451 1663 475 1640T500 1581ZM815 1581Q815
1536 776 1501T692 1466Q659 1466 637 1487T614 1542Q614 1587 650 1625T731 1663Q766 1663 790 1640T815 1581Z" />
<glyph unicode="&#xd8;" glyph-name="Oslash" horiz-adv-x="1122" d="M743 1087L467 123Q512 105 561 104Q651 104 711 159T798 307T835 479T846 645Q845 942 743 1087ZM385 190L664 1161Q619 1186 561 1186Q473 1186 412 1129T324 976T287 800T276 633Q276 325
385 190ZM350 -287H248L342 43Q223 135 168 305T113 653Q113 764 137 874T211 1088T351 1256T561 1321Q639 1321 700 1294L770 1534H872L788 1241Q903 1149 956 984T1010 645Q1010 534 987 423T914 206T773 35T561 -31Q498 -31 430 -8L350 -287Z" />
<glyph unicode="&#xd9;" glyph-name="Ugrave" horiz-adv-x="1142" d="M797 1507L731 1415Q491 1542 354 1677L481 1806Q588 1659 797 1507ZM981 494Q981 269 883 119T571 -31T260 120T162 502V1290H326V500Q326 105 571 105T817 502V1290H981V494Z" />
<glyph unicode="&#xda;" glyph-name="Uacute" horiz-adv-x="1142" d="M674 1806L801 1677Q662 1540 424 1415L358 1507Q450 1573 529 1647T641 1764L674 1806ZM981 494Q981 269 883 119T571 -31T260 120T162 502V1290H326V500Q326 105 571 105T817 502V1290H981V494Z" />
<glyph unicode="&#xdb;" glyph-name="Ucircumflex" horiz-adv-x="1142" d="M881 1507L815 1413Q698 1474 567 1618Q434 1473 319 1413L254 1505Q418 1618 567 1806Q695 1642 881 1507ZM981 494Q981 269 883 119T571 -31T260 120T162 502V1290H326V500Q326 105
571 105T817 502V1290H981V494Z" />
<glyph unicode="&#xdc;" glyph-name="Udieresis" horiz-adv-x="1126" d="M981 494Q981 269 883 119T571 -31T260 120T162 502V1290H326V500Q326 105 571 105T817 502V1290H981V494ZM512 1581Q512 1536 473 1501T389 1466Q356 1466 334 1487T311 1542Q311 1587
347 1625T428 1663Q463 1663 487 1640T512 1581ZM827 1581Q827 1536 789 1501T705 1466Q672 1466 650 1487T627 1542Q627 1587 662 1625T743 1663Q778 1663 802 1640T827 1581Z" />
<glyph unicode="&#xdf;" glyph-name="germandbls" horiz-adv-x="1171" d="M1110 254Q1110 113 1007 41T756 -31Q568 -31 399 72L457 184Q604 92 764 92Q848 92 904 137T961 262Q961 321 908 368T777 449T624 520T494 615T440 752Q440 889 530 962T762 1036Q776
1089 776 1130Q776 1224 714 1275T557 1327Q469 1327 404 1273T338 1133V0H182V885L47 903V1004H182V1159Q182 1292 292 1370T543 1448Q699 1448 803 1356T907 1110Q907 1057 866 901Q831 919 776 920Q696 920 645 878T594 758Q594 709 647 668T776 593T928 519T1057
412T1110 254Z" />
<glyph unicode="&#xe0;" glyph-name="agrave" horiz-adv-x="954" d="M627 426V510L266 358Q239 301 240 252Q240 184 276 138T379 92Q488 92 557 201T627 426ZM928 10Q869 -27 809 -27Q727 -27 678 22T629 154Q604 68 523 19T348 -31Q225 -31 156 45T86 246Q86
318 145 428L627 633V762Q627 834 584 870T469 907Q399 907 323 863T193 760L135 856Q196 934 292 984T483 1034Q620 1034 701 966T782 762V137Q782 76 848 76Q873 76 889 88L928 10ZM686 1241L621 1149Q381 1276 244 1411L371 1540Q477 1393 686 1241Z" />
<glyph unicode="&#xe1;" glyph-name="aacute" horiz-adv-x="954" d="M627 426V510L266 358Q239 301 240 252Q240 184 276 138T379 92Q488 92 557 201T627 426ZM928 10Q869 -27 809 -27Q727 -27 678 22T629 154Q604 68 523 19T348 -31Q225 -31 156 45T86 246Q86
318 145 428L627 633V762Q627 834 584 870T469 907Q399 907 323 863T193 760L135 856Q196 934 292 984T483 1034Q620 1034 701 966T782 762V137Q782 76 848 76Q873 76 889 88L928 10ZM573 1540L700 1411Q561 1274 324 1149L258 1241Q350 1307 429 1381T541 1498L573
1540Z" />
<glyph unicode="&#xe2;" glyph-name="acircumflex" horiz-adv-x="954" d="M627 426V510L266 358Q239 301 240 252Q240 184 276 138T379 92Q488 92 557 201T627 426ZM928 10Q869 -27 809 -27Q727 -27 678 22T629 154Q604 68 523 19T348 -31Q225 -31 156 45T86 246Q86
318 145 428L627 633V762Q627 834 584 870T469 907Q399 907 323 863T193 760L135 856Q196 934 292 984T483 1034Q620 1034 701 966T782 762V137Q782 76 848 76Q873 76 889 88L928 10ZM774 1241L709 1147Q592 1208 461 1352Q328 1207 213 1147L147 1239Q311 1352
461 1540Q588 1376 774 1241Z" />
<glyph unicode="&#xe3;" glyph-name="atilde" horiz-adv-x="954" d="M332 1434Q391 1434 478 1389T612 1343Q665 1343 696 1356T784 1409L848 1331Q774 1263 723 1240T598 1217Q557 1217 470 1262T326 1307Q308 1307 290 1303T250 1287T217 1271T179 1248T145
1227L86 1315Q238 1434 332 1434ZM627 426V510L266 358Q239 301 240 252Q240 184 276 138T379 92Q488 92 557 201T627 426ZM928 10Q869 -27 809 -27Q727 -27 678 22T629 154Q604 68 523 19T348 -31Q225 -31 156 45T86 246Q86 318 145 428L627 633V762Q627 834 584
870T469 907Q399 907 323 863T193 760L135 856Q196 934 292 984T483 1034Q620 1034 701 966T782 762V137Q782 76 848 76Q873 76 889 88L928 10Z" />
<glyph unicode="&#xe4;" glyph-name="adieresis" horiz-adv-x="954" d="M627 426V510L266 358Q239 301 240 252Q240 184 276 138T379 92Q488 92 557 201T627 426ZM928 10Q869 -27 809 -27Q727 -27 678 22T629 154Q604 68 523 19T348 -31Q225 -31 156 45T86 246Q86
318 145 428L627 633V762Q627 834 584 870T469 907Q399 907 323 863T193 760L135 856Q196 934 292 984T483 1034Q620 1034 701 966T782 762V137Q782 76 848 76Q873 76 889 88L928 10ZM403 1315Q403 1270 365 1235T281 1200Q248 1200 226 1221T203 1276Q203 1321
238 1359T319 1397Q354 1397 378 1374T403 1315ZM719 1315Q719 1270 680 1235T596 1200Q563 1200 541 1221T518 1276Q518 1321 554 1359T635 1397Q670 1397 694 1374T719 1315Z" />
<glyph unicode="&#xe5;" glyph-name="aring" horiz-adv-x="954" d="M627 426V510L266 358Q239 301 240 252Q240 184 276 138T379 92Q488 92 557 201T627 426ZM928 10Q869 -27 809 -27Q727 -27 678 22T629 154Q604 68 523 19T348 -31Q225 -31 156 45T86 246Q86
318 145 428L627 633V762Q627 834 584 870T469 907Q399 907 323 863T193 760L135 856Q196 934 292 984T483 1034Q620 1034 701 966T782 762V137Q782 76 848 76Q873 76 889 88L928 10ZM463 1473Q412 1473 374 1437T336 1350Q336 1301 372 1264T457 1227T543 1263T580
1349T546 1436T463 1473ZM373 1567T461 1567T611 1503T674 1350T610 1198T457 1133T307 1197T244 1350T308 1502Z" />
<glyph unicode="&#xe6;" glyph-name="ae" horiz-adv-x="1484" d="M621 508Q302 393 276 358Q239 307 239 248T273 143T365 98Q437 98 510 160L651 279Q625 367 621 508ZM1122 915T1032 915T881 841T799 668H1235Q1235 762 1179 838ZM1399 551H780V512Q780 449
792 381T832 246T912 135T1034 92Q1190 92 1288 152L1335 51Q1202 -31 1008 -31Q906 -31 818 30T684 186L514 41Q430 -31 340 -31Q215 -31 151 46T86 252Q86 363 145 432Q178 469 627 633V762Q627 834 584 870T469 907T322 864T193 760L135 856Q196 934 292 984T483
1034Q680 1034 752 897Q873 1034 1047 1034Q1192 1034 1290 920T1395 655L1399 551Z" />
<glyph unicode="&#xe7;" glyph-name="ccedilla" horiz-adv-x="843" d="M678 -129Q678 -197 611 -260T467 -356L389 -293Q555 -203 555 -139Q555 -112 537 -96T489 -80Q462 -80 389 -98V-14Q242 37 171 178T100 492Q100 730 201 864Q256 938 336 986T502 1034Q570
1034 643 1007T764 932L694 840Q610 910 504 909Q420 909 362 841T279 682Q256 606 256 512Q256 426 277 336T358 169T506 92Q602 92 741 182L793 86Q721 20 614 -12Q678 -72 678 -129Z" />
<glyph unicode="&#xe8;" glyph-name="egrave" horiz-adv-x="964" d="M715 668Q715 762 660 836T512 911Q422 911 361 838T279 668H715ZM879 551H260V512Q260 428 280 338T359 170T504 92Q604 92 788 219L838 121Q766 60 668 15T487 -31Q383 -31 304 21T183 160T121
339T100 528Q100 725 218 879T526 1034Q671 1034 767 920T874 655Q876 639 876 604T879 551ZM735 1241L670 1149Q430 1276 293 1411L420 1540Q526 1393 735 1241Z" />
<glyph unicode="&#xe9;" glyph-name="eacute" horiz-adv-x="964" d="M715 668Q715 762 660 836T512 911Q422 911 361 838T279 668H715ZM879 551H260V512Q260 428 280 338T359 170T504 92Q604 92 788 219L838 121Q766 60 668 15T487 -31Q383 -31 304 21T183 160T121
339T100 528Q100 725 218 879T526 1034Q671 1034 767 920T874 655Q876 639 876 604T879 551ZM629 1540L756 1411Q617 1274 379 1149L313 1241Q405 1307 484 1381T596 1498L629 1540Z" />
<glyph unicode="&#xea;" glyph-name="ecircumflex" horiz-adv-x="964" d="M715 668Q715 762 660 836T512 911Q422 911 361 838T279 668H715ZM879 551H260V512Q260 428 280 338T359 170T504 92Q604 92 788 219L838 121Q766 60 668 15T487 -31Q383 -31 304 21T183
160T121 339T100 528Q100 725 218 879T526 1034Q671 1034 767 920T874 655Q876 639 876 604T879 551ZM825 1241L760 1147Q643 1208 512 1352Q379 1207 264 1147L199 1239Q363 1352 512 1540Q639 1376 825 1241Z" />
<glyph unicode="&#xeb;" glyph-name="edieresis" horiz-adv-x="964" d="M715 668Q715 762 660 836T512 911Q422 911 361 838T279 668H715ZM879 551H260V512Q260 428 280 338T359 170T504 92Q604 92 788 219L838 121Q766 60 668 15T487 -31Q383 -31 304 21T183
160T121 339T100 528Q100 725 218 879T526 1034Q671 1034 767 920T874 655Q876 639 876 604T879 551ZM471 1315Q471 1270 432 1235T348 1200Q315 1200 293 1221T270 1276Q270 1321 306 1359T387 1397Q422 1397 446 1374T471 1315ZM786 1315Q786 1270 748 1235T664
1200Q631 1200 609 1221T586 1276Q586 1321 621 1359T702 1397Q737 1397 761 1374T786 1315Z" />
<glyph unicode="&#xec;" glyph-name="igrave" horiz-adv-x="487" d="M319 1004V0H168V1004H319ZM465 1241L399 1149Q159 1276 23 1411L150 1540Q256 1393 465 1241Z" />
<glyph unicode="&#xed;" glyph-name="iacute" horiz-adv-x="487" d="M319 1004V0H168V1004H319ZM356 1540L483 1411Q344 1274 106 1149L41 1241Q133 1307 212 1381T324 1498L356 1540Z" />
<glyph unicode="&#xee;" glyph-name="icircumflex" horiz-adv-x="487" d="M319 1004V0H168V1004H319ZM551 1241L485 1147Q368 1208 238 1352Q105 1207 -10 1147L-76 1239Q88 1352 238 1540Q365 1376 551 1241Z" />
<glyph unicode="&#xef;" glyph-name="idieresis" horiz-adv-x="487" d="M500 1315Q500 1270 461 1235T377 1200Q344 1200 322 1221T299 1276Q299 1321 334 1359T416 1397Q449 1397 474 1373T500 1315ZM184 1315Q184 1270 145 1235T61 1200Q28 1200 6 1221T-16
1276Q-16 1321 18 1359T100 1397Q133 1397 158 1373T184 1315ZM319 0H168V1004H319V0Z" />
<glyph unicode="&#xf1;" glyph-name="ntilde" horiz-adv-x="1062" d="M899 0H743V762Q743 838 719 872T623 907Q545 907 455 873T324 803V0H168V1004H324V930Q379 969 475 1001T649 1034Q796 1034 847 965T899 762V0ZM412 1434Q471 1434 558 1389T692 1343Q745
1343 776 1356T864 1409L928 1331Q854 1263 803 1240T678 1217Q637 1217 550 1262T406 1307Q388 1307 370 1303T330 1287T297 1271T258 1248T225 1227L166 1315Q318 1434 412 1434Z" />
<glyph unicode="&#xf2;" glyph-name="ograve" horiz-adv-x="999" d="M580 911T500 911T362 839T280 675T256 500Q256 361 320 227T499 92T678 226T743 500Q743 584 720 675T638 838ZM369 1034T500 1034T725 947T859 744T899 500Q899 375 858 257T723 54T500 -31T277
54T141 257T100 500Q100 627 140 743T274 947ZM723 1241L657 1149Q417 1276 281 1411L408 1540Q514 1393 723 1241Z" />
<glyph unicode="&#xf3;" glyph-name="oacute" horiz-adv-x="999" d="M580 911T500 911T362 839T280 675T256 500Q256 361 320 227T499 92T678 226T743 500Q743 584 720 675T638 838ZM369 1034T500 1034T725 947T859 744T899 500Q899 375 858 257T723 54T500 -31T277
54T141 257T100 500Q100 627 140 743T274 947ZM608 1540L735 1411Q596 1274 358 1149L293 1241Q385 1307 464 1381T575 1498L608 1540Z" />
<glyph unicode="&#xf4;" glyph-name="ocircumflex" horiz-adv-x="999" d="M580 911T500 911T362 839T280 675T256 500Q256 361 320 227T499 92T678 226T743 500Q743 584 720 675T638 838ZM369 1034T500 1034T725 947T859 744T899 500Q899 375 858 257T723 54T500
-31T277 54T141 257T100 500Q100 627 140 743T274 947ZM819 1241L754 1147Q637 1208 506 1352Q373 1207 258 1147L193 1239Q357 1352 506 1540Q633 1376 819 1241Z" />
<glyph unicode="&#xf5;" glyph-name="otilde" horiz-adv-x="999" d="M580 911T500 911T362 839T280 675T256 500Q256 361 320 227T499 92T678 226T743 500Q743 584 720 675T638 838ZM369 1034T500 1034T725 947T859 744T899 500Q899 375 858 257T723 54T500 -31T277
54T141 257T100 500Q100 627 140 743T274 947ZM362 1434Q421 1434 508 1389T643 1343Q696 1343 727 1356T815 1409L879 1331Q805 1263 754 1240T629 1217Q588 1217 501 1262T356 1307Q338 1307 321 1303T281 1287T248 1271T209 1248T176 1227L117 1315Q268 1434
362 1434Z" />
<glyph unicode="&#xf6;" glyph-name="odieresis" horiz-adv-x="999" d="M580 911T500 911T362 839T280 675T256 500Q256 361 320 227T499 92T678 226T743 500Q743 584 720 675T638 838ZM369 1034T500 1034T725 947T859 744T899 500Q899 375 858 257T723 54T500
-31T277 54T141 257T100 500Q100 627 140 743T274 947ZM451 1315Q451 1270 412 1235T328 1200Q295 1200 273 1221T250 1276Q250 1321 286 1359T367 1397Q402 1397 426 1374T451 1315ZM766 1315Q766 1270 727 1235T643 1200Q610 1200 588 1221T565 1276Q565 1321
601 1359T682 1397Q717 1397 741 1374T766 1315Z" />
<glyph unicode="&#xf7;" glyph-name="divide" horiz-adv-x="1001" d="M631 877T631 828T591 740T500 702Q451 702 416 735T381 817Q381 868 421 905T512 942Q561 942 596 910ZM631 268T631 219T591 132T500 94Q451 94 416 127T381 209Q381 260 421 297T512 334Q561
334 596 301ZM889 573V451H111V573H889Z" />
<glyph unicode="&#xf8;" glyph-name="oslash" horiz-adv-x="999" d="M340 -227H238L309 27Q205 99 153 228T100 500Q100 592 125 683T197 854T322 984T500 1034Q549 1034 594 1022L643 1192H745L684 979Q790 907 844 775T899 500Q899 375 858 257T723 54T500 -31Q445
-31 399 -16L340 -227ZM647 846L434 100Q469 90 500 90Q572 90 623 131T698 238T733 368T743 500Q743 733 647 846ZM348 162L561 903Q534 911 500 911Q428 911 377 870T301 762T266 630T256 500Q256 271 348 162Z" />
<glyph unicode="&#xf9;" glyph-name="ugrave" horiz-adv-x="1058" d="M938 72L887 -31Q832 -31 792 1T743 86Q682 33 592 1T420 -31Q281 -31 223 35T164 242V1004H319V242Q319 166 340 131T434 96Q502 96 595 132T739 213V1004H895V154Q895 76 938 72ZM756 1241L690
1149Q450 1276 313 1411L440 1540Q547 1393 756 1241Z" />
<glyph unicode="&#xfa;" glyph-name="uacute" horiz-adv-x="1058" d="M938 72L887 -31Q832 -31 792 1T743 86Q682 33 592 1T420 -31Q281 -31 223 35T164 242V1004H319V242Q319 166 340 131T434 96Q502 96 595 132T739 213V1004H895V154Q895 76 938 72ZM629 1540L756
1411Q617 1274 379 1149L313 1241Q405 1307 484 1381T596 1498L629 1540Z" />
<glyph unicode="&#xfb;" glyph-name="ucircumflex" horiz-adv-x="1058" d="M938 72L887 -31Q832 -31 792 1T743 86Q682 33 592 1T420 -31Q281 -31 223 35T164 242V1004H319V242Q319 166 340 131T434 96Q502 96 595 132T739 213V1004H895V154Q895 76 938 72ZM834
1241L768 1147Q651 1208 520 1352Q387 1207 272 1147L207 1239Q371 1352 520 1540Q648 1376 834 1241Z" />
<glyph unicode="&#xfc;" glyph-name="udieresis" horiz-adv-x="1058" d="M938 72L887 -31Q832 -31 792 1T743 86Q682 33 592 1T420 -31Q281 -31 223 35T164 242V1004H319V242Q319 166 340 131T434 96Q502 96 595 132T739 213V1004H895V154Q895 76 938 72ZM471
1315Q471 1270 432 1235T348 1200Q315 1200 293 1221T270 1276Q270 1321 306 1359T387 1397Q422 1397 446 1374T471 1315ZM786 1315Q786 1270 748 1235T664 1200Q631 1200 609 1221T586 1276Q586 1321 621 1359T702 1397Q737 1397 761 1374T786 1315Z" />
<glyph unicode="&#xff;" glyph-name="ydieresis" horiz-adv-x="929" d="M905 1004Q655 31 412 -252Q334 -342 172 -381L139 -262Q209 -246 291 -176Q334 -139 397 -16L23 1004H186L420 346Q459 231 475 141Q629 524 750 1004H905ZM418 1315Q418 1270 379 1235T295
1200Q262 1200 240 1221T217 1276Q217 1321 253 1359T334 1397Q369 1397 393 1374T418 1315ZM733 1315Q733 1270 694 1235T610 1200Q577 1200 555 1221T532 1276Q532 1321 568 1359T649 1397Q684 1397 708 1374T733 1315Z" />
<glyph unicode="&#x2013;" glyph-name="endash" horiz-adv-x="733" d="M733 584V461H0V584H733Z" />
<glyph unicode="&#x2014;" glyph-name="emdash" horiz-adv-x="1245" d="M1245 586V463H0V586H1245Z" />
<glyph unicode="&#x2018;" glyph-name="quoteleft" horiz-adv-x="546" d="M225 883Q198 883 166 906T114 953L94 977Q178 1155 358 1354L451 1290Q353 1149 328 1051Q318 1010 317 967L322 918Q264 883 225 883Z" />
<glyph unicode="&#x2019;" glyph-name="quoteright" horiz-adv-x="552" d="M324 1323Q351 1323 383 1300T435 1252L455 1229Q371 1051 190 852L98 915Q196 1056 221 1155Q231 1196 231 1239L227 1288Q285 1323 324 1323Z" />
<glyph unicode="&#x201a;" glyph-name="quotesinglbase" horiz-adv-x="528" d="M285 184Q312 184 344 161T396 114L416 90Q332 -88 152 -287L59 -223Q157 -82 182 16Q192 57 193 100L188 150Q246 184 285 184Z" />
<glyph unicode="&#x201c;" glyph-name="quotedblleft" horiz-adv-x="913" d="M590 883Q563 883 531 906T478 953L459 977Q543 1155 723 1354L815 1290Q717 1149 692 1051Q682 1010 682 967L686 918Q629 883 590 883ZM227 883Q200 883 168 906T116 953L96 977Q180
1155 360 1354L453 1290Q355 1149 330 1051Q320 1010 319 967L324 918Q266 883 227 883Z" />
<glyph unicode="&#x201d;" glyph-name="quotedblright" horiz-adv-x="913" d="M322 1323Q349 1323 381 1300T433 1252L453 1229Q369 1051 188 852L96 915Q194 1056 219 1155Q229 1196 229 1239L225 1288Q283 1323 322 1323ZM684 1323Q711 1323 743 1300T796 1252L815
1229Q731 1051 551 852L459 915Q557 1056 582 1155Q592 1196 592 1239L588 1288Q645 1323 684 1323Z" />
<glyph unicode="&#x201e;" glyph-name="quotedblbase" horiz-adv-x="888" d="M285 184Q312 184 344 161T396 114L416 90Q332 -88 152 -287L59 -223Q157 -82 182 16Q192 57 193 100L188 150Q246 184 285 184ZM647 184Q674 184 706 161T759 114L778 90Q694 -88 514
-287L422 -223Q520 -82 545 16Q555 57 555 100L551 150Q608 184 647 184Z" />
<glyph unicode="&#x2020;" glyph-name="dagger" horiz-adv-x="856" d="M780 1004L760 868H494V428Q494 104 418 -31Q340 121 340 428V868H68V1004H340V1290H494V1004H780Z" />
<glyph unicode="&#x2021;" glyph-name="daggerdbl" horiz-adv-x="856" d="M780 561L760 428H494Q494 104 418 -31Q340 121 340 428H68V561H340V868H68V1004H340V1288H494V1004H780L760 868H494V561H780Z" />
<glyph unicode="&#x2022;" glyph-name="bullet" horiz-adv-x="868" d="M287 997T432 997T682 894T786 646T682 397T433 293T184 396T80 645T183 894Z" />
<glyph unicode="&#x2026;" glyph-name="ellipsis" horiz-adv-x="1236" d="M393 143T393 94T353 7T262 -31Q213 -31 178 2T143 84Q143 135 183 172T274 209Q323 209 358 176ZM745 143T745 94T706 7T614 -31Q565 -31 531 2T496 84Q496 135 535 172T627 209Q676 209
710 176ZM1094 143T1094 94T1054 7T963 -31Q914 -31 879 2T844 84Q844 135 884 172T975 209Q1024 209 1059 176Z" />
<glyph unicode="&#x2030;" glyph-name="perthousand" horiz-adv-x="2058" d="M518 985T518 1048T474 1156T367 1200T259 1156T215 1049T259 941T366 897T474 941ZM987 1290L532 0H397L829 1196Q749 1153 616 1157Q639 1114 639 1049Q639 936 559 856T367 776T174
856T94 1048T174 1241T367 1321Q433 1321 485 1294Q487 1292 496 1287T512 1280Q565 1257 655 1257Q782 1257 883 1319L987 1290ZM1333 354T1333 242T1254 49T1061 -31T868 49T788 241T868 434T1061 514T1253 434ZM1212 178T1212 241T1168 349T1061 393T953 349T909
242T953 134T1060 90T1168 134ZM1962 354T1962 242T1882 49T1690 -31T1497 49T1417 241T1497 434T1689 514T1882 434ZM1841 178T1841 241T1797 349T1690 393T1582 349T1538 242T1582 134T1689 90T1797 134Z" />
<glyph unicode="&#x2039;" glyph-name="guilsinglleft" horiz-adv-x="614" d="M547 205L451 127L68 512L446 897L543 819L238 512L547 205Z" />
<glyph unicode="&#x203a;" glyph-name="guilsinglright" horiz-adv-x="614" d="M68 205L164 127L547 512L168 897L72 819L377 512L68 205Z" />
<glyph unicode="&#x2044;" glyph-name="fraction" horiz-adv-x="694" d="M860 1526L-20 -268H-150L731 1526H860Z" />
</font>
</defs>
</svg>
