<?xml version="1.0" standalone="no"?> <!DOCTYPE svg PUBLIC "-//W3C//DTD SVG 1.0//EN" "http://www.w3.org/TR/2001/REC-SVG-20010904/DTD/svg10.dtd" > <svg xmlns="http://www.w3.org/2000/svg" width="100%" height="100%">
<defs >
<font id="Delicious-SmallCaps" horiz-adv-x="872" ><font-face
    font-family="Delicious SmallCaps"
    units-per-em="2048"
    panose-1="0 0 0 0 0 0 0 0 0 0"
    ascent="1823"
    descent="-430"
    alphabetic="0" />
<missing-glyph horiz-adv-x="748" d="M68 0V1365H612V0H68ZM136 68H544V1297H136V68Z" />
<glyph unicode=" " glyph-name="space" horiz-adv-x="614" />
<glyph unicode="!" glyph-name="exclam" horiz-adv-x="540" d="M424 143T424 94T384 7T293 -31Q244 -31 209 2T174 84Q174 135 214 172T305 209Q354 209 389 176ZM399 1432Q364 1229 365 1036V332H242Q213 860 213 1085Q213 1265 244 1411L399 1432Z" />
<glyph unicode="&quot;" glyph-name="quotedbl" horiz-adv-x="708" d="M258 1450L287 1321L242 999H174L131 1321L158 1450H258ZM541 1450L569 1321L524 999H457L414 1321L440 1450H541Z" />
<glyph unicode="#" glyph-name="numbersign" horiz-adv-x="1138" d="M666 571L705 883H471L432 571H666ZM768 1382H891L846 1018H1020L1008 883H827L788 571H942L930 436H772L719 18H596L649 436H414L367 57H244L291 436H125L145 571H309L348 883H203L223 1018H365L416
1421H539L487 1018H723L768 1382Z" />
<glyph unicode="$" glyph-name="dollar" horiz-adv-x="911" d="M539 524V113Q607 136 643 192T680 322Q680 432 539 524ZM446 776V1188Q370 1176 329 1125T287 997Q287 942 312 899T363 836T446 776ZM838 319Q838 184 755 91T539 -25V-150H446V-31Q282 -27 137
57L184 180Q338 104 446 98V582Q440 586 400 611T351 643T308 672T264 705T228 739T193 779T167 820T144 869T132 922T127 983Q127 1130 213 1219T446 1319V1432H539V1317Q686 1299 788 1219L733 1108Q651 1167 539 1186V719Q698 618 745 567Q838 468 838 319Z"
/>
<glyph unicode="%" glyph-name="percent" horiz-adv-x="1431" d="M518 985T518 1048T474 1156T367 1200T259 1156T215 1049T259 941T366 897T474 941ZM987 1290L532 0H397L829 1196Q794 1178 741 1169T652 1158L616 1157Q639 1114 639 1049Q639 936 559 856T367
776T174 856T94 1048T174 1241T367 1321Q447 1321 512 1280Q594 1257 655 1257Q712 1257 769 1272T855 1304L883 1319L987 1290ZM1333 354T1333 242T1254 49T1061 -31T868 49T788 241T868 434T1061 514T1253 434ZM1212 178T1212 241T1168 349T1061 393T953 349T909
242T953 134T1060 90T1168 134Z" />
<glyph unicode="&amp;" glyph-name="ampersand" horiz-adv-x="1290" d="M846 1004V1100Q846 1194 795 1255T651 1317Q569 1317 506 1271T442 1145Q442 1069 507 1037T657 1004H846ZM1227 27Q1112 -30 1018 -31Q922 -31 880 33T838 199V885H639Q436 885 349 788T262
485Q262 292 326 172Q367 96 403 96Q426 96 459 130T538 197T641 231Q692 231 741 209L711 98Q670 110 647 111Q600 111 535 40T401 -31Q317 -31 253 21T155 156T104 320T86 479Q86 653 176 803T428 961Q287 1020 287 1145Q287 1268 394 1344T631 1421Q772 1421
880 1344T989 1130V1004H1192V885H993V207Q993 94 1073 94Q1126 94 1192 123L1227 27Z" />
<glyph unicode="&apos;" glyph-name="quotesingle" horiz-adv-x="425" d="M258 1450L287 1321L242 999H174L131 1321L158 1450H258Z" />
<glyph unicode="(" glyph-name="parenleft" horiz-adv-x="688" d="M629 -172L614 -299Q352 -100 224 132T96 680Q96 952 236 1198T610 1589L627 1473Q437 1348 327 1130T217 676Q217 158 629 -172Z" />
<glyph unicode=")" glyph-name="parenright" horiz-adv-x="694" d="M82 1589Q315 1444 455 1198T596 680Q596 365 468 133T78 -299L63 -172Q477 158 477 676Q477 912 367 1130T66 1473L82 1589Z" />
<glyph unicode="*" glyph-name="asterisk" horiz-adv-x="868" d="M543 1380L473 1149L778 1255V1128L510 1042L727 709H584L426 961L270 709H137L338 1042L72 1128V1260L379 1149L305 1380H543Z" />
<glyph unicode="+" glyph-name="plus" horiz-adv-x="964" d="M872 451H541V96H422V451H92V573H422V928H541V573H872V451Z" />
<glyph unicode="," glyph-name="comma" horiz-adv-x="528" d="M285 178Q312 178 344 155T396 108L416 84Q332 -94 152 -293L59 -229Q157 -88 182 10Q192 51 193 94L188 143Q246 178 285 178Z" />
<glyph unicode="-" glyph-name="hyphen" horiz-adv-x="618" d="M502 584V461H111V584H502Z" />
<glyph unicode="." glyph-name="period" horiz-adv-x="528" d="M397 143T397 94T357 7T266 -31Q217 -31 182 2T147 84Q147 135 187 172T279 209Q328 209 362 176Z" />
<glyph unicode="/" glyph-name="slash" horiz-adv-x="729" d="M694 1550L164 -303H35L565 1550H694Z" />
<glyph unicode="0" glyph-name="zero" horiz-adv-x="921" d="M629 -20T461 -20T176 173T59 645T176 1117T461 1311T745 1118T862 646T746 174ZM563 1169T461 1169T280 1019T201 645T279 272T460 121T642 271T721 645T642 1018Z" />
<glyph unicode="1" glyph-name="one" horiz-adv-x="921" d="M459 0V1133H162V1243Q213 1243 291 1254T421 1278L473 1290H616V0H459Z" />
<glyph unicode="2" glyph-name="two" horiz-adv-x="921" d="M465 1321Q633 1321 729 1235Q803 1167 819 1059T805 847T713 668L416 307Q387 272 362 230T326 165L315 141H815V0H139L127 127Q162 225 268 354L473 600Q778 965 598 1135Q539 1190 455 1190Q308 1190
156 1073L127 1192Q141 1206 169 1227T285 1285T465 1321Z" />
<glyph unicode="3" glyph-name="three" horiz-adv-x="921" d="M496 25Q398 -14 283 -25Q222 -31 158 -31H147V86Q163 86 176 86T245 92T346 110T450 149T550 213T618 310T647 446Q647 634 362 635Q290 635 188 623V745L279 758Q385 815 535 930Q623 996 623 1079Q623
1106 614 1122Q577 1194 496 1194Q437 1194 346 1154T197 1073L160 1186Q228 1237 330 1279T528 1321Q716 1321 768 1159Q780 1122 780 1083Q780 942 616 831L506 762Q590 762 672 715Q805 639 805 479Q805 142 496 25Z" />
<glyph unicode="4" glyph-name="four" horiz-adv-x="921" d="M729 287V0H582V287H72L63 420Q196 795 563 1290H733V422H864V287H729ZM582 1092Q349 752 219 422H582V1092Z" />
<glyph unicode="5" glyph-name="five" horiz-adv-x="921" d="M512 27Q410 -18 285 -27Q240 -31 147 -31H137V92Q305 80 449 150Q637 240 637 451Q637 551 572 596T408 641Q324 641 172 600L229 1290H737V1163H373L340 758Q383 768 424 768H477Q575 764 655 719Q714
688 755 625T797 483Q797 307 717 195T512 27Z" />
<glyph unicode="6" glyph-name="six" horiz-adv-x="921" d="M690 453Q690 648 506 680Q475 686 446 686Q376 686 262 635Q246 557 246 483Q246 323 308 208T477 92Q624 92 672 268Q690 342 690 453ZM676 1317L731 1217Q643 1162 603 1135T513 1066T426 979Q330
860 289 739Q424 786 504 786H535Q580 784 629 766T728 711T810 606T842 446Q842 237 744 103T465 -31Q283 -31 190 130T96 526Q96 837 328 1073Q469 1217 676 1317Z" />
<glyph unicode="7" glyph-name="seven" horiz-adv-x="921" d="M793 1290V1159Q793 883 651 508Q526 170 348 -55L213 2Q397 244 518 559Q645 895 645 1159H121V1290H793Z" />
<glyph unicode="8" glyph-name="eight" horiz-adv-x="921" d="M838 283Q818 138 710 54T446 -31Q294 -31 189 73T84 328Q84 449 166 565Q217 639 326 690Q236 745 187 802T125 944Q121 981 121 997Q121 1128 210 1223T457 1321H469Q639 1323 716 1236T791 1012V997Q791
919 733 838T563 705Q573 699 614 678Q729 619 786 543T844 356Q844 323 838 283ZM643 1042Q631 1204 453 1204Q375 1204 323 1144T270 989Q270 909 312 857T438 762L514 801Q643 867 643 1014V1042ZM557 559Q537 569 507 586T456 616T430 631Q240 531 240 350Q240
250 302 171T465 92Q563 92 624 171T686 348Q686 489 557 559Z" />
<glyph unicode="9" glyph-name="nine" horiz-adv-x="921" d="M684 811Q684 969 622 1083T453 1198Q240 1198 240 838Q240 736 295 676T424 608Q436 606 461 606Q512 606 586 625Q633 641 668 659Q684 737 684 811ZM602 217Q426 37 184 -59L141 59Q407 198 502
313Q592 422 637 547L625 543Q619 541 591 531T545 516Q496 502 422 502Q373 502 319 520T211 575T123 683T88 844Q88 1053 184 1187T461 1321Q592 1321 678 1235T803 1004Q836 887 836 745Q835 455 602 217Z" />
<glyph unicode=":" glyph-name="colon" horiz-adv-x="528" d="M397 143T397 94T357 7T266 -31Q217 -31 182 2T147 84Q147 135 187 172T279 209Q328 209 362 176ZM397 772T397 723T357 636T266 598Q217 598 182 631T147 713Q147 764 187 801T279 838Q328 838 362 805Z" />
<glyph unicode=";" glyph-name="semicolon" horiz-adv-x="528" d="M279 178Q306 178 338 155T390 108L410 84Q326 -94 145 -293L53 -229Q151 -88 176 10Q186 51 186 94L182 143Q240 178 279 178ZM397 721Q397 670 357 632T266 594Q217 594 182 626T147 709Q147
760 187 798T279 836Q328 836 362 803T397 721Z" />
<glyph unicode="&lt;" glyph-name="less" horiz-adv-x="614" d="M547 205L451 127L68 512L446 897L543 819L238 512L547 205Z" />
<glyph unicode="=" glyph-name="equal" horiz-adv-x="983" d="M872 416V293H90V416H872ZM872 721V598H90V721H872Z" />
<glyph unicode="&gt;" glyph-name="greater" horiz-adv-x="614" d="M68 205L164 127L547 512L168 897L72 819L377 512L68 205Z" />
<glyph unicode="?" glyph-name="question" horiz-adv-x="733" d="M397 143T397 94T357 7T266 -31Q217 -31 182 2T147 84Q147 135 187 172T279 209Q328 209 362 176ZM336 332H211V436Q211 522 213 563T233 666T289 778L457 1004Q527 1100 526 1165Q526 1222 496
1257T408 1292Q320 1292 236 1274V1391Q332 1418 420 1417Q541 1417 610 1354T680 1169Q680 1071 580 940L416 723Q371 664 354 603T336 436V332Z" />
<glyph unicode="@" glyph-name="at" horiz-adv-x="1622" d="M1018 936Q942 1034 813 1034Q735 1034 681 951T608 777T588 610Q588 551 609 504T684 457Q702 457 727 463T768 475T815 497T856 520T899 545T934 567L1018 936ZM1081 299Q1009 299 962 334T915 438Q915
450 920 471Q802 369 746 345Q699 324 655 324Q557 324 503 404T449 588Q449 682 467 773T525 951T641 1092T817 1147Q962 1147 1042 1030L1063 1114H1196L1055 522Q1043 477 1042 455Q1042 400 1098 399Q1223 399 1316 550T1409 836Q1409 1088 1246 1230T827 1372Q573
1372 398 1177T223 723Q223 453 402 266T852 78Q1004 78 1144 143T1374 326L1470 274Q1376 135 1200 49T852 -37Q533 -37 311 185T88 727Q88 1026 311 1256T831 1487Q1126 1487 1321 1308T1516 836Q1516 723 1460 600T1300 388T1081 299Z" />
<glyph unicode="A" glyph-name="A" horiz-adv-x="1044" d="M522 1120L369 551H676L522 1120ZM1020 0H852L715 416H330L193 0H25L434 1290H610L1020 0Z" />
<glyph unicode="B" glyph-name="B" horiz-adv-x="1028" d="M782 377Q782 451 759 500T689 572T593 604T471 612H328V135Q420 108 481 109Q616 109 699 176T782 377ZM713 967Q713 1164 479 1163H328V745H479Q583 745 648 805T713 967ZM481 1290Q604 1290 684 1260Q874
1184 874 965Q874 879 817 796T680 690Q805 682 875 593T946 375Q946 180 815 75T485 -31Q360 -31 164 20V1290H481Z" />
<glyph unicode="C" glyph-name="C" horiz-adv-x="1017" d="M967 84Q899 31 801 0T610 -31Q475 -31 375 29T219 190T139 404T113 645Q113 764 142 878T229 1094T387 1258T614 1321Q809 1321 946 1233L887 1126Q768 1192 614 1192Q528 1192 460 1134T353 986T296
806T276 637Q276 547 292 461T345 290T451 154T618 102Q784 102 897 186L967 84Z" />
<glyph unicode="D" glyph-name="D" horiz-adv-x="1120" d="M528 1159H326V131H516Q614 131 682 178T782 306T828 467T842 639Q841 1159 528 1159ZM537 1290Q670 1290 765 1234T911 1082T985 877T1008 643T981 409T899 205T746 56T516 0H164V1290H537Z" />
<glyph unicode="E" glyph-name="E" horiz-adv-x="929" d="M827 1290V1153H328V743H711V602H328V141H848V0H164V1290H827Z" />
<glyph unicode="F" glyph-name="F" horiz-adv-x="843" d="M770 1290V1155H328V743H678V602H328V0H164V1290H770Z" />
<glyph unicode="G" glyph-name="G" horiz-adv-x="1073" d="M950 23Q821 -30 614 -31Q479 -31 378 28T221 188T140 403T113 645Q113 764 142 878T229 1094T387 1258T614 1321Q710 1321 782 1301T948 1233L885 1124Q772 1194 614 1194Q503 1194 424 1098T310 879T276
637Q276 547 291 461T343 290T449 153T618 100Q727 100 799 129V551H950V23Z" />
<glyph unicode="H" glyph-name="H" horiz-adv-x="1122" d="M958 0H795V604H328V0H164V1290H328V743H795V1290H958V0Z" />
<glyph unicode="I" glyph-name="I" horiz-adv-x="487" d="M324 1290V0H164V1290H324Z" />
<glyph unicode="J" glyph-name="J" horiz-adv-x="501" d="M338 -57Q338 -262 47 -334L12 -223Q178 -168 178 -45V1290H338V-57Z" />
<glyph unicode="K" glyph-name="K" horiz-adv-x="993" d="M977 0H813L328 539V0H164V1290H328V700L778 1290H952L457 627L977 49V0Z" />
<glyph unicode="L" glyph-name="L" horiz-adv-x="782" d="M319 1290V135H764V0H164V1290H319Z" />
<glyph unicode="M" glyph-name="M" horiz-adv-x="1519" d="M1356 1290V0H1192V877L1202 1055L831 0H688L317 1057Q327 951 328 881V0H164V1290H381L760 201L1139 1290H1356Z" />
<glyph unicode="N" glyph-name="N" horiz-adv-x="1134" d="M971 0H803L317 1053Q327 957 328 877V0H164V1290H381L817 303Q807 401 807 483V1290H971V0Z" />
<glyph unicode="O" glyph-name="O" horiz-adv-x="1122" d="M639 1186T561 1186T424 1127T335 976T291 801T276 645T290 490T335 315T424 164T561 104T698 163T787 314T831 489T846 645T832 801T788 976T699 1126ZM442 1321T561 1321T771 1256T912 1085T986 868T1010
646T987 423T913 206T771 35T561 -31T351 34T210 205T137 423T113 645T136 867T210 1084T351 1255Z" />
<glyph unicode="P" glyph-name="P" horiz-adv-x="1001" d="M442 1159H328V637Q426 594 494 594Q615 594 686 683T758 895Q758 1028 669 1093T442 1159ZM442 1290Q653 1290 787 1192T922 893Q922 703 808 582T504 461Q404 461 328 502V0H164V1290H442Z" />
<glyph unicode="Q" glyph-name="Q" horiz-adv-x="1122" d="M686 -10Q815 -147 948 -147Q989 -147 1022 -139L979 -295Q946 -299 930 -299Q879 -299 834 -286T745 -241T678 -189T608 -122T551 -63L514 -29Q408 -17 326 54T200 226T135 434T113 645Q113 756 136
867T210 1084T351 1255T561 1321T771 1256T912 1085T986 868T1010 645Q1010 436 930 243T686 -10ZM639 1186T561 1186T424 1127T335 976T291 801T276 645T290 490T335 315T424 164T561 104T698 163T787 314T831 489T846 645T832 801T788 976T699 1126Z" />
<glyph unicode="R" glyph-name="R" horiz-adv-x="1034" d="M758 895Q758 1028 669 1093T442 1159H328V637Q422 594 479 594Q608 594 683 679T758 895ZM983 0H823L399 471Q360 483 328 502V0H164V1290H442Q653 1290 787 1192T922 893Q922 735 838 619T602 471L983 49V0Z" />
<glyph unicode="S" glyph-name="S" horiz-adv-x="888" d="M451 1321Q539 1321 624 1280T754 1169L662 1092Q584 1190 451 1190Q365 1190 309 1141T252 1008Q252 926 309 862T447 752T609 656T747 519T805 319Q805 161 695 65T424 -31Q348 -31 263 3T117 90L186
207Q315 101 426 100Q522 100 584 162T647 322Q647 394 590 454T451 561T288 660T150 795T92 983Q92 1145 189 1233T451 1321Z" />
<glyph unicode="T" glyph-name="T" horiz-adv-x="829" d="M809 1147H494V0H334V1147H20V1290H809V1147Z" />
<glyph unicode="U" glyph-name="U" horiz-adv-x="1142" d="M981 494Q981 269 883 119T571 -31T260 120T162 502V1290H326V500Q326 105 571 105T817 502V1290H981V494Z" />
<glyph unicode="V" glyph-name="V" horiz-adv-x="1044" d="M1034 1290L612 0H432L12 1290H190L526 197L864 1290H1034Z" />
<glyph unicode="W" glyph-name="W" horiz-adv-x="1449" d="M1434 1290L1130 0H956L727 1042L498 0H324L20 1290H195L393 377Q401 344 405 310T410 259V242L645 1290H809L1044 242Q1044 305 1061 377L1268 1290H1434Z" />
<glyph unicode="X" glyph-name="X" horiz-adv-x="1007" d="M983 0H795L492 512L199 0H20L403 662L31 1290H209L494 817L768 1290H936L582 670L983 0Z" />
<glyph unicode="Y" glyph-name="Y" horiz-adv-x="964" d="M940 1290L563 473V0H401V473L27 1290H201L487 647L776 1290H940Z" />
<glyph unicode="Z" glyph-name="Z" horiz-adv-x="937" d="M821 1290V1149Q520 653 254 143H877V0H74V139Q357 698 631 1149H119V1290H821Z" />
<glyph unicode="[" glyph-name="bracketleft" horiz-adv-x="507" d="M375 1499V1380H184V-201H375V-319H57V1499H375Z" />
<glyph unicode="\" glyph-name="backslash" horiz-adv-x="686" d="M682 -303H555L25 1550H152L682 -303Z" />
<glyph unicode="]" glyph-name="bracketright" horiz-adv-x="509" d="M453 1499V-319H135V-201H326V1380H135V1499H453Z" />
<glyph unicode="^" glyph-name="asciicircum" horiz-adv-x="1277" d="M1128 655H985L637 1284L289 655H145L580 1450H694Q1099 704 1128 655Z" />
<glyph unicode="_" glyph-name="underscore" horiz-adv-x="921" d="M922 -154V-276H0V-154H922Z" />
<glyph unicode="`" glyph-name="grave" horiz-adv-x="692" d="M535 1241L469 1149Q229 1276 92 1411L219 1540Q326 1393 535 1241Z" />
<glyph unicode="a" glyph-name="a" horiz-adv-x="952" d="M735 0L625 332H324L215 0H45L391 1053H557L905 0H735ZM475 858L354 463H594L475 858Z" />
<glyph unicode="b" glyph-name="b" horiz-adv-x="980" d="M465 -33Q365 -33 184 12V1053H461Q570 1053 635 1028Q801 965 801 782Q801 749 786 704T748 633Q717 598 668 567Q861 514 860 307Q860 151 750 59T465 -33ZM578 905Q533 930 459 930H346V618L457 616Q537
614 589 658T641 784Q641 874 578 905ZM631 457Q584 490 453 489H346V121Q416 103 461 102Q570 102 634 154T698 307Q699 412 631 457Z" />
<glyph unicode="c" glyph-name="c" horiz-adv-x="952" d="M559 -33Q444 -33 359 17T226 152T156 330T133 526Q133 757 242 911Q361 1085 563 1085Q731 1085 854 1008L795 901Q678 960 563 961Q506 961 447 917T352 803Q295 688 295 520Q295 348 344 252Q422 96
565 96Q686 96 799 174L870 70Q731 -33 559 -33Z" />
<glyph unicode="d" glyph-name="d" horiz-adv-x="1042" d="M489 0H184V1053H506Q701 1053 805 916T909 524Q909 266 792 133T489 0ZM500 926H344V127H489Q747 127 748 522Q748 926 500 926Z" />
<glyph unicode="e" glyph-name="e" horiz-adv-x="894" d="M184 0V1053H762V922H346V616H666V481H346V135H780V0H184Z" />
<glyph unicode="f" glyph-name="f" horiz-adv-x="806" d="M346 922V616H639V481H346V0H184V1053H717V922H346Z" />
<glyph unicode="g" glyph-name="g" horiz-adv-x="1019" d="M791 901Q697 960 563 961Q506 961 448 918T352 803Q295 688 295 520Q295 348 344 252Q422 96 565 96Q635 96 702 117V463H854V16Q731 -31 563 -31Q471 -31 397 2T274 90T193 218T147 367T133 526Q133
757 242 911Q363 1085 563 1085Q649 1085 708 1068T856 1008L791 901Z" />
<glyph unicode="h" glyph-name="h" horiz-adv-x="1052" d="M709 0V483H346V0H184V1053H346V616H709V1053H870V0H709Z" />
<glyph unicode="i" glyph-name="i" horiz-adv-x="534" d="M184 0V1053H352V0H184Z" />
<glyph unicode="j" glyph-name="j" horiz-adv-x="522" d="M279 -178Q216 -235 70 -274L33 -164Q117 -137 158 -90Q174 -72 174 -29V1053H338V-39Q338 -129 279 -178Z" />
<glyph unicode="k" glyph-name="k" horiz-adv-x="935" d="M731 0L346 412V0H184V1053H346V606L700 1053H877L457 512L885 63V0H731Z" />
<glyph unicode="l" glyph-name="l" horiz-adv-x="751" d="M184 0V1053H340V131H711V0H184Z" />
<glyph unicode="m" glyph-name="m" horiz-adv-x="1378" d="M1034 0V756L774 0H639L344 768V715V0H184V1053H385L659 344Q659 342 662 337T669 322T677 297T689 263T702 219L739 342L993 1053H1194V0H1034Z" />
<glyph unicode="n" glyph-name="n" horiz-adv-x="1079" d="M729 0L350 786Q350 763 351 746T353 722T354 711V0H193V1055H393L729 324Q727 377 727 397V1055H889V0H729Z" />
<glyph unicode="o" glyph-name="o" horiz-adv-x="1034" d="M518 -33Q420 -33 342 19T221 157T156 337T133 532Q133 665 171 787T300 997T518 1085Q647 1085 738 995T866 784T903 527T866 269T738 57T518 -33ZM518 954Q455 954 408 914T337 807T303 668T293 516Q293
440 303 372T336 239T407 136T518 98Q604 98 656 170T725 330T741 526Q741 632 724 722T654 883T518 954Z" />
<glyph unicode="p" glyph-name="p" horiz-adv-x="931" d="M725 453Q629 369 479 369Q416 369 346 403V0H184V1053H428Q639 1053 739 960T840 725Q840 551 725 453ZM428 926H346V528Q409 497 459 498Q561 498 619 562T678 727Q678 817 615 871T428 926Z" />
<glyph unicode="q" glyph-name="q" horiz-adv-x="1034" d="M874 -242Q849 -246 823 -246Q780 -246 741 -234T664 -195T602 -149T536 -87T477 -31Q360 -17 280 75T166 284T133 530Q133 663 171 785T300 996T518 1085Q647 1085 738 995T866 784T903 524Q903 354
839 204T643 -8Q754 -100 840 -100Q865 -100 918 -90L874 -242ZM582 954T519 954T408 913T337 805T303 666T293 514Q293 438 303 371T336 239T407 136T518 98Q604 98 656 169T725 328T741 524Q741 602 731 672T697 808T627 914Z" />
<glyph unicode="r" glyph-name="r" horiz-adv-x="985" d="M739 0L385 377L346 395V0H184V1053H428Q639 1053 739 959T840 725Q840 602 775 509T584 381L891 55V0H739ZM428 926H346V528Q348 526 363 519T406 505T459 498Q561 498 619 562T678 727Q678 817 615 871T428
926Z" />
<glyph unicode="s" glyph-name="s" horiz-adv-x="835" d="M401 -33Q278 -33 129 74L201 186Q238 159 276 137Q354 96 403 96Q477 96 526 141T575 262Q575 350 469 418L274 535Q112 635 113 805Q113 938 198 1011T424 1085Q496 1085 559 1056T649 1001T692 950L596
872Q518 958 424 958Q356 958 313 923T270 823Q270 719 385 651L561 543Q731 443 731 260Q731 129 636 48T401 -33Z" />
<glyph unicode="t" glyph-name="t" horiz-adv-x="794" d="M475 915V0H317V915H57V1053H737V915H475Z" />
<glyph unicode="u" glyph-name="u" horiz-adv-x="1069" d="M715 -33T535 -33T268 93T182 406V1053H342V406Q342 99 534 99T727 406V1053H887V399Q887 211 801 89Z" />
<glyph unicode="v" glyph-name="v" horiz-adv-x="954" d="M561 0H393L39 1053H211L481 209L752 1053H918L561 0Z" />
<glyph unicode="w" glyph-name="w" horiz-adv-x="1284" d="M987 0H829Q679 629 647 784L635 727L465 0H301L45 1053H215L383 297L569 1053H725L909 297L1079 1053H1243L987 0Z" />
<glyph unicode="x" glyph-name="x" horiz-adv-x="925" d="M698 0L455 397L219 0H43L367 541L51 1053H227L457 688L676 1053H844L543 547L883 0H698Z" />
<glyph unicode="y" glyph-name="y" horiz-adv-x="851" d="M506 387V0H346V387L29 1053H201L430 557L662 1053H825L506 387Z" />
<glyph unicode="z" glyph-name="z" horiz-adv-x="878" d="M100 0V125Q340 584 532 883L555 918H137V1053H748V926Q510 553 315 199L283 137H793V0H100Z" />
<glyph unicode="{" glyph-name="braceleft" horiz-adv-x="681" d="M594 -221L571 -332H455Q414 -332 383 -324T319 -291T268 -210T250 -68V293Q250 395 198 468T82 541V637Q145 637 197 708T250 883V1243Q250 1403 305 1456T451 1509H571L594 1399H473Q416 1399
396 1363T375 1214V854Q375 772 337 705T261 610L223 584Q229 580 239 574T276 544T322 493T358 419T375 322V-39Q375 -152 396 -186T485 -221H594Z" />
<glyph unicode="|" glyph-name="bar" horiz-adv-x="454" d="M289 1548V-37H166V1548H289Z" />
<glyph unicode="}" glyph-name="braceright" horiz-adv-x="681" d="M594 541Q531 541 479 468T426 293V-68Q426 -154 409 -210T358 -290T293 -323T221 -332H104L82 -221H190Q258 -221 279 -187T301 -39V322Q301 373 316 419T354 493T399 543T437 574L453 584Q447
588 437 594T400 625T354 680T318 756T301 854V1214Q301 1327 281 1363T203 1399H82L104 1509H225Q266 1509 297 1501T359 1468T408 1386T426 1243V883Q426 781 478 709T594 637V541Z" />
<glyph unicode="~" glyph-name="asciitilde" horiz-adv-x="1363" d="M299 631Q324 684 373 721T477 758Q555 758 690 688T899 618Q1012 618 1065 737L1063 590Q1038 543 988 513T885 483Q809 483 672 553T463 623Q357 623 299 504V631Z" />
<glyph unicode="&#xa0;" glyph-name="uni00A0" horiz-adv-x="460" />
<glyph unicode="&#xa1;" glyph-name="exclamdown" horiz-adv-x="540" d="M119 905Q119 956 159 994T250 1032Q299 1032 334 999T369 916T329 829T238 791Q189 791 154 823T119 905ZM143 -430Q178 -231 178 -35V670H301Q332 105 332 -84Q332 -254 299 -410L143 -430Z" />
<glyph unicode="&#xa2;" glyph-name="cent" horiz-adv-x="843" d="M449 102V897Q349 864 303 750T256 512Q256 387 303 263T449 102ZM541 1169V1030Q678 1016 764 932L694 840Q631 891 541 905V94Q623 104 741 182L793 86Q695 -6 541 -29V-152H449V-29Q316 -6
223 102Q100 243 100 492Q100 730 201 864Q297 997 449 1028V1169H541Z" />
<glyph unicode="&#xa3;" glyph-name="sterling" horiz-adv-x="905" d="M815 76Q774 31 713 0T594 -31Q567 -31 522 -23T446 -7L416 0H109Q183 330 182 514V778L61 791L102 893H182V1163Q182 1292 279 1354T512 1417Q657 1417 725 1360L690 1266Q627 1303 524 1303Q338
1303 338 1133V893H612V770H338V510Q338 330 291 125H436Q555 86 616 86Q663 86 712 112T793 178L815 76Z" />
<glyph unicode="&#xa4;" glyph-name="currency" horiz-adv-x="1110" d="M1126 1270L1069 1147Q956 1284 768 1284Q438 1284 389 885H950L889 756H373Q369 703 369 688Q369 672 373 627H829L768 498H389Q412 308 508 206T748 104Q834 104 919 147T1065 266V102Q938
-25 737 -25Q542 -25 405 116T246 498H20L82 627H227Q225 654 225 690Q225 729 227 756H20L82 885H246Q271 1114 413 1263T778 1413Q983 1413 1126 1270Z" />
<glyph unicode="&#xa5;" glyph-name="yen" horiz-adv-x="974" d="M956 649H653L569 467V457H952V334H569V0H406V334H31V457H406V469L322 649H35V772H264L25 1290H199L487 647L776 1290H948Q710 772 709 772H956V649Z" />
<glyph unicode="&#xa7;" glyph-name="section" horiz-adv-x="860" d="M616 537Q616 603 564 642T444 682Q350 682 294 635T238 496Q238 439 290 403T401 367Q493 367 554 408T616 537ZM432 1325Q590 1325 727 1247L672 1141Q533 1207 428 1206Q348 1206 297 1164T246
1044Q246 993 299 952T428 878T578 805T706 700T760 547Q760 438 701 368T535 274Q598 241 638 215T715 137T752 27Q752 -127 654 -209T399 -291Q213 -291 43 -190L100 -78Q247 -168 408 -168Q494 -168 549 -126T604 0Q604 61 551 108T421 189T267 260T137 355T84
489Q84 614 157 684T358 772Q210 842 165 883Q92 948 92 1038Q92 1177 190 1251T432 1325Z" />
<glyph unicode="&#xa8;" glyph-name="dieresis" horiz-adv-x="786" d="M322 1315Q322 1270 283 1235T199 1200Q166 1200 144 1221T121 1276Q121 1321 157 1359T238 1397Q273 1397 297 1374T322 1315ZM637 1315Q637 1270 598 1235T514 1200Q481 1200 459 1221T436
1276Q436 1321 472 1359T553 1397Q588 1397 612 1374T637 1315Z" />
<glyph unicode="&#xa9;" glyph-name="copyright" horiz-adv-x="1800" d="M1563 774T1563 502T1370 36T904 -158T439 35T246 501T438 966T903 1159Q1177 1159 1370 967ZM1462 270T1462 501T1299 897T904 1061T509 897T346 502Q346 266 510 105T909 -57Q1138 -57
1300 106ZM1137 233Q1096 194 1033 165T918 135Q766 135 680 239T594 500Q594 654 676 762T907 870Q1030 870 1116 791L1061 721Q1000 772 907 772Q803 772 757 695T711 506Q711 389 761 310T922 231Q998 231 1094 301L1137 233Z" />
<glyph unicode="&#xaa;" glyph-name="ordfeminine" horiz-adv-x="774" d="M565 766L481 1018H252L170 766H41L303 1567H430L694 766H565ZM367 1419L276 1118H459L367 1419Z" />
<glyph unicode="&#xab;" glyph-name="guillemotleft" horiz-adv-x="1024" d="M547 205L451 127L68 512L446 897L543 819L238 512L547 205ZM911 205L815 127L432 512L811 897L907 819L602 512L911 205Z" />
<glyph unicode="&#xac;" glyph-name="logicalnot" horiz-adv-x="1095" d="M920 360L799 338V760H94V883H920V360Z" />
<glyph unicode="&#xae;" glyph-name="registered" horiz-adv-x="1800" d="M1556 774T1556 500T1364 33T899 -160T435 33T242 500Q242 774 433 965T899 1157T1365 966ZM1456 268T1456 499T1292 895T899 1059Q668 1059 505 895T342 500Q342 262 505 102T905 -59Q1136
-59 1296 104ZM1192 145H1083L838 393Q815 399 793 412V145H688V872H864Q989 872 1076 813T1163 635Q1163 551 1106 476T967 393L1192 176V145ZM1055 561T1055 639T1001 752T864 788H793V498Q850 471 887 471Q963 471 1009 516Z" />
<glyph unicode="&#xaf;" glyph-name="overscore" horiz-adv-x="686" d="M623 1294V1174H61V1294H623Z" />
<glyph unicode="&#xb0;" glyph-name="degree" horiz-adv-x="720" d="M432 1231T352 1231T216 1175T160 1038T216 902T352 846T488 902T545 1038T489 1174ZM236 1323T352 1323T553 1239T637 1039T553 838T353 754T152 838T68 1038T152 1239Z" />
<glyph unicode="&#xb1;" glyph-name="plusminus" horiz-adv-x="915" d="M852 121V-2H113V121H852ZM872 451H541V195H422V451H92V573H422V928H541V573H872V451Z" />
<glyph unicode="&#xb4;" glyph-name="acute" horiz-adv-x="692" d="M436 1540L563 1411Q424 1274 186 1149L121 1241Q213 1307 292 1381T403 1498L436 1540Z" />
<glyph unicode="&#xb5;" glyph-name="uni00B5" horiz-adv-x="1062" d="M371 -180Q371 -256 332 -324L127 -360Q186 -223 186 -131Q186 -70 175 55T164 242V1004H319V242Q319 166 340 131T434 96Q504 96 596 132T739 213V1004H895V154Q895 74 938 72L887 -31Q832
-31 792 1T743 86Q680 35 591 2T420 -31Q389 -31 332 0Q371 -117 371 -180Z" />
<glyph unicode="&#xb6;" glyph-name="paragraph" horiz-adv-x="1112" d="M1018 1309L1012 1204L905 1180Q905 832 836 439T635 -221L504 -180Q645 76 716 455T788 1180Q532 1207 496 1206Q410 1206 374 1134T338 967Q338 916 345 868T370 769T427 688T520 657Q608
657 686 719Q584 516 393 516Q229 516 142 637T55 928Q55 1100 160 1210T436 1321Q489 1321 549 1316T683 1303T795 1290L793 1378H907Q907 1319 905 1290L1018 1309Z" />
<glyph unicode="&#xb7;" glyph-name="middot" horiz-adv-x="528" d="M397 553T397 504T357 417T266 379Q217 379 182 411T147 494Q147 545 187 581T279 618Q328 618 362 586Z" />
<glyph unicode="&#xb8;" glyph-name="cedilla" horiz-adv-x="823" d="M678 -129Q678 -197 611 -260T467 -356L389 -293Q555 -203 555 -139Q555 -112 537 -96T489 -80Q462 -80 389 -98V-2H602Q678 -57 678 -129Z" />
<glyph unicode="&#xba;" glyph-name="ordmasculine" horiz-adv-x="802" d="M559 739T416 739T198 871T123 1169Q123 1331 198 1460T416 1589Q559 1589 634 1459T709 1163Q709 999 634 869ZM479 1489T416 1489T312 1434T259 1309T246 1157Q246 1026 285 933T416
840Q482 840 521 894T573 1014T586 1163T573 1312T519 1434Z" />
<glyph unicode="&#xbb;" glyph-name="guillemotright" horiz-adv-x="1024" d="M496 205L592 127L975 512L596 897L500 819L805 512L496 205ZM131 205L227 127L610 512L231 897L135 819L440 512L131 205Z" />
<glyph unicode="&#xbf;" glyph-name="questiondown" horiz-adv-x="733" d="M369 909Q369 960 409 997T500 1034Q549 1034 583 1002T618 920T579 833T487 795Q438 795 404 827T369 909ZM430 666H555V567Q555 481 553 440T533 337T477 225L309 0Q239 -92 240 -160Q240
-219 270 -254T358 -289Q446 -289 530 -270V-387Q419 -414 346 -414Q225 -414 156 -351T86 -164Q86 -70 186 66L350 281Q397 342 413 402T430 567V666Z" />
<glyph unicode="&#xc0;" glyph-name="Agrave" horiz-adv-x="1044" d="M522 1120L369 551H676L522 1120ZM1020 0H852L715 416H330L193 0H25L434 1290H610L1020 0ZM750 1507L684 1415Q444 1542 307 1677L434 1806Q541 1659 750 1507Z" />
<glyph unicode="&#xc1;" glyph-name="Aacute" horiz-adv-x="1044" d="M522 1120L369 551H676L522 1120ZM1020 0H852L715 416H330L193 0H25L434 1290H610L1020 0ZM623 1806L750 1677Q611 1540 373 1415L307 1507Q399 1573 478 1647T590 1764L623 1806Z" />
<glyph unicode="&#xc2;" glyph-name="Acircumflex" horiz-adv-x="1044" d="M522 1120L369 551H676L522 1120ZM1020 0H852L715 416H330L193 0H25L434 1290H610L1020 0ZM829 1507L764 1413Q647 1474 516 1618Q383 1473 268 1413L203 1505Q367 1618 516 1806Q643
1642 829 1507Z" />
<glyph unicode="&#xc3;" glyph-name="Atilde" horiz-adv-x="1044" d="M522 1120L369 551H676L522 1120ZM1020 0H852L715 416H330L193 0H25L434 1290H610L1020 0ZM385 1700Q444 1700 531 1655T666 1610Q719 1610 749 1623T838 1675L901 1597Q827 1529 776 1506T651
1483Q610 1483 523 1528T379 1573Q361 1573 344 1569T304 1554T271 1537T232 1514T199 1493L139 1581Q291 1700 385 1700Z" />
<glyph unicode="&#xc4;" glyph-name="Adieresis" horiz-adv-x="1044" d="M522 1120L369 551H676L522 1120ZM1020 0H852L715 416H330L193 0H25L434 1290H610L1020 0ZM459 1581Q459 1536 420 1501T336 1466Q303 1466 281 1487T258 1542Q258 1587 294 1625T375 1663Q410
1663 434 1640T459 1581ZM774 1581Q774 1536 735 1501T651 1466Q618 1466 596 1487T573 1542Q573 1587 609 1625T690 1663Q725 1663 749 1640T774 1581Z" />
<glyph unicode="&#xc5;" glyph-name="Aring" horiz-adv-x="1044" d="M645 1556T645 1605T610 1692T528 1729Q477 1729 439 1692T401 1606T438 1520T522 1483Q571 1483 608 1519ZM739 1696T739 1606T675 1453T522 1389T372 1452T309 1606Q309 1694 373 1758T526
1823T676 1760ZM522 1120L369 551H676L522 1120ZM1020 0H852L715 416H330L193 0H25L434 1290H610L1020 0Z" />
<glyph unicode="&#xc6;" glyph-name="AE" horiz-adv-x="1486" d="M522 1120L371 551H676L522 1120ZM1384 1290V1153H885V743H1268V602H885V141H1405V0H721V416H332L195 0H25L432 1290H623L721 858V1290H1384Z" />
<glyph unicode="&#xc7;" glyph-name="Ccedilla" horiz-adv-x="1017" d="M770 -129Q770 -197 703 -260T559 -356L481 -293Q647 -203 647 -139Q647 -112 629 -96T582 -80Q555 -80 481 -98V-16Q379 13 304 82T190 247T132 441T113 645Q113 764 142 878T229 1094T387
1258T614 1321Q813 1321 946 1233L887 1126Q760 1194 614 1194Q532 1194 460 1132T348 987Q276 842 276 637Q276 547 292 461T345 289T451 151T618 98Q782 98 895 188L967 84Q869 4 717 -23Q770 -76 770 -129Z" />
<glyph unicode="&#xc8;" glyph-name="Egrave" horiz-adv-x="929" d="M827 1290V1153H328V743H711V602H328V141H848V0H164V1290H827ZM727 1507L662 1415Q422 1542 285 1677L412 1806Q518 1659 727 1507Z" />
<glyph unicode="&#xc9;" glyph-name="Eacute" horiz-adv-x="929" d="M827 1290V1153H328V743H711V602H328V141H848V0H164V1290H827ZM604 1806L731 1677Q592 1540 354 1415L289 1507Q381 1573 460 1647T571 1764L604 1806Z" />
<glyph unicode="&#xca;" glyph-name="Ecircumflex" horiz-adv-x="929" d="M827 1290V1153H328V743H711V602H328V141H848V0H164V1290H827ZM811 1507L745 1413Q628 1474 498 1618Q365 1473 250 1413L184 1505Q348 1618 498 1806Q625 1642 811 1507Z" />
<glyph unicode="&#xcb;" glyph-name="Edieresis" horiz-adv-x="929" d="M827 1290V1153H328V743H711V602H328V141H848V0H164V1290H827ZM440 1581Q440 1536 401 1501T317 1466Q284 1466 262 1487T240 1542Q240 1587 275 1625T356 1663Q391 1663 415 1640T440 1581ZM756
1581Q756 1536 717 1501T633 1466Q600 1466 578 1487T555 1542Q555 1587 591 1625T672 1663Q707 1663 731 1640T756 1581Z" />
<glyph unicode="&#xcc;" glyph-name="Igrave" horiz-adv-x="487" d="M324 1290V0H164V1290H324ZM606 1507L541 1415Q301 1542 164 1677L291 1806Q397 1659 606 1507Z" />
<glyph unicode="&#xcd;" glyph-name="Iacute" horiz-adv-x="487" d="M324 1290V0H164V1290H324ZM479 1806L606 1677Q467 1540 229 1415L164 1507Q256 1573 335 1647T446 1764L479 1806Z" />
<glyph unicode="&#xce;" glyph-name="Icircumflex" horiz-adv-x="487" d="M324 1290V0H164V1290H324ZM791 1507L725 1413Q608 1474 477 1618Q344 1473 229 1413L164 1505Q328 1618 477 1806Q605 1642 791 1507Z" />
<glyph unicode="&#xcf;" glyph-name="Idieresis" horiz-adv-x="487" d="M324 1290V0H164V1290H324ZM365 1581Q365 1536 326 1501T242 1466Q209 1466 187 1487T164 1542Q164 1587 200 1625T281 1663Q316 1663 340 1640T365 1581ZM680 1581Q680 1536 641 1501T557
1466Q524 1466 502 1487T479 1542Q479 1587 515 1625T596 1663Q631 1663 655 1640T680 1581Z" />
<glyph unicode="&#xd1;" glyph-name="Ntilde" horiz-adv-x="1134" d="M971 0H803L317 1053Q327 957 328 877V0H164V1290H381L817 303Q807 401 807 483V1290H971V0ZM440 1700Q499 1700 586 1655T721 1610Q774 1610 805 1623T893 1675L956 1597Q882 1529 831 1506T707
1483Q666 1483 579 1528T434 1573Q416 1573 399 1569T359 1554T326 1537T287 1514T254 1493L195 1581Q346 1700 440 1700Z" />
<glyph unicode="&#xd2;" glyph-name="Ograve" horiz-adv-x="1122" d="M639 1186T561 1186T424 1127T335 976T291 801T276 645T290 490T335 315T424 164T561 104T698 163T787 314T831 489T846 645T832 801T788 976T699 1126ZM442 1321T561 1321T771 1256T912 1085T986
868T1010 646T987 423T913 206T771 35T561 -31T351 34T210 205T137 423T113 645T136 867T210 1084T351 1255ZM778 1507L713 1415Q473 1542 336 1677L463 1806Q569 1659 778 1507Z" />
<glyph unicode="&#xd3;" glyph-name="Oacute" horiz-adv-x="1122" d="M639 1186T561 1186T424 1127T335 976T291 801T276 645T290 490T335 315T424 164T561 104T698 163T787 314T831 489T846 645T832 801T788 976T699 1126ZM442 1321T561 1321T771 1256T912 1085T986
868T1010 646T987 423T913 206T771 35T561 -31T351 34T210 205T137 423T113 645T136 867T210 1084T351 1255ZM657 1806L784 1677Q645 1540 408 1415L342 1507Q434 1573 513 1647T625 1764L657 1806Z" />
<glyph unicode="&#xd4;" glyph-name="Ocircumflex" horiz-adv-x="1122" d="M639 1186T561 1186T424 1127T335 976T291 801T276 645T290 490T335 315T424 164T561 104T698 163T787 314T831 489T846 645T832 801T788 976T699 1126ZM442 1321T561 1321T771 1256T912
1085T986 868T1010 646T987 423T913 206T771 35T561 -31T351 34T210 205T137 423T113 645T136 867T210 1084T351 1255ZM872 1513L807 1419Q690 1480 559 1624Q426 1479 311 1419L246 1511Q410 1624 559 1812Q686 1648 872 1513Z" />
<glyph unicode="&#xd5;" glyph-name="Otilde" horiz-adv-x="1122" d="M639 1186T561 1186T424 1127T335 976T291 801T276 645T290 490T335 315T424 164T561 104T698 163T787 314T831 489T846 645T832 801T788 976T699 1126ZM442 1321T561 1321T771 1256T912 1085T986
868T1010 646T987 423T913 206T771 35T561 -31T351 34T210 205T137 423T113 645T136 867T210 1084T351 1255ZM422 1700Q481 1700 568 1655T702 1610Q755 1610 786 1623T874 1675L938 1597Q864 1529 813 1506T688 1483Q647 1483 560 1528T416 1573Q398 1573 380
1569T340 1554T307 1537T269 1514T236 1493L176 1581Q328 1700 422 1700Z" />
<glyph unicode="&#xd6;" glyph-name="Odieresis" horiz-adv-x="1122" d="M639 1186T561 1186T424 1127T335 976T291 801T276 645T290 490T335 315T424 164T561 104T698 163T787 314T831 489T846 645T832 801T788 976T699 1126ZM442 1321T561 1321T771 1256T912
1085T986 868T1010 646T987 423T913 206T771 35T561 -31T351 34T210 205T137 423T113 645T136 867T210 1084T351 1255ZM500 1581Q500 1536 461 1501T377 1466Q344 1466 322 1487T299 1542Q299 1587 335 1625T416 1663Q451 1663 475 1640T500 1581ZM815 1581Q815
1536 776 1501T692 1466Q659 1466 637 1487T614 1542Q614 1587 650 1625T731 1663Q766 1663 790 1640T815 1581Z" />
<glyph unicode="&#xd8;" glyph-name="Oslash" horiz-adv-x="1122" d="M743 1087L467 123Q512 105 561 104Q651 104 711 159T798 307T835 479T846 645Q845 942 743 1087ZM385 190L664 1161Q619 1186 561 1186Q473 1186 412 1129T324 976T287 800T276 633Q276 325
385 190ZM350 -287H248L342 43Q223 135 168 305T113 653Q113 764 137 874T211 1088T351 1256T561 1321Q639 1321 700 1294L770 1534H872L788 1241Q903 1149 956 984T1010 645Q1010 534 987 423T914 206T773 35T561 -31Q498 -31 430 -8L350 -287Z" />
<glyph unicode="&#xd9;" glyph-name="Ugrave" horiz-adv-x="1142" d="M981 494Q981 269 883 119T571 -31T260 120T162 502V1290H326V500Q326 105 571 105T817 502V1290H981V494ZM797 1507L731 1415Q491 1542 354 1677L481 1806Q588 1659 797 1507Z" />
<glyph unicode="&#xda;" glyph-name="Uacute" horiz-adv-x="1142" d="M981 494Q981 269 883 119T571 -31T260 120T162 502V1290H326V500Q326 105 571 105T817 502V1290H981V494ZM674 1806L801 1677Q662 1540 424 1415L358 1507Q450 1573 529 1647T641 1764L674 1806Z" />
<glyph unicode="&#xdb;" glyph-name="Ucircumflex" horiz-adv-x="1142" d="M981 494Q981 269 883 119T571 -31T260 120T162 502V1290H326V500Q326 105 571 105T817 502V1290H981V494ZM881 1507L815 1413Q698 1474 567 1618Q434 1473 319 1413L254 1505Q418 1618
567 1806Q695 1642 881 1507Z" />
<glyph unicode="&#xdc;" glyph-name="Udieresis" horiz-adv-x="1126" d="M981 494Q981 269 883 119T571 -31T260 120T162 502V1290H326V500Q326 105 571 105T817 502V1290H981V494ZM512 1581Q512 1536 473 1501T389 1466Q356 1466 334 1487T311 1542Q311 1587
347 1625T428 1663Q463 1663 487 1640T512 1581ZM827 1581Q827 1536 789 1501T705 1466Q672 1466 650 1487T627 1542Q627 1587 662 1625T743 1663Q778 1663 802 1640T827 1581Z" />
<glyph unicode="&#xdf;" glyph-name="germandbls" horiz-adv-x="1171" d="M1110 254Q1110 113 1007 41T756 -31Q568 -31 399 72L457 184Q604 92 764 92Q848 92 904 137T961 262Q961 321 908 368T777 449T624 520T494 615T440 752Q440 889 530 962T762 1036Q776
1089 776 1130Q776 1224 714 1275T557 1327Q469 1327 404 1273T338 1133V0H182V885L47 903V1004H182V1159Q182 1292 292 1370T543 1448Q699 1448 803 1356T907 1110Q907 1057 866 901Q831 919 776 920Q696 920 645 878T594 758Q594 709 647 668T776 593T928 519T1057
412T1110 254Z" />
<glyph unicode="&#xe0;" glyph-name="agrave" horiz-adv-x="952" d="M735 0L625 332H324L215 0H45L391 1053H557L905 0H735ZM475 858L354 463H594L475 858ZM686 1292L621 1200Q381 1327 244 1462L371 1591Q477 1444 686 1292Z" />
<glyph unicode="&#xe1;" glyph-name="aacute" horiz-adv-x="952" d="M735 0L625 332H324L215 0H45L391 1053H557L905 0H735ZM475 858L354 463H594L475 858ZM557 1591L684 1462Q545 1325 307 1200L242 1292Q334 1358 413 1432T524 1549L557 1591Z" />
<glyph unicode="&#xe2;" glyph-name="acircumflex" horiz-adv-x="952" d="M735 0L625 332H324L215 0H45L391 1053H557L905 0H735ZM475 858L354 463H594L475 858ZM782 1292L717 1198Q600 1259 469 1403Q336 1258 221 1198L156 1290Q320 1403 469 1591Q596 1427 782 1292Z" />
<glyph unicode="&#xe3;" glyph-name="atilde" horiz-adv-x="952" d="M735 0L625 332H324L215 0H45L391 1053H557L905 0H735ZM475 858L354 463H594L475 858ZM338 1485Q397 1485 484 1440T618 1395Q671 1395 702 1408T791 1460L854 1382Q780 1314 729 1291T604 1268Q563
1268 476 1313T332 1358Q314 1358 297 1354T256 1339T223 1322T185 1299T152 1278L92 1366Q244 1485 338 1485Z" />
<glyph unicode="&#xe4;" glyph-name="adieresis" horiz-adv-x="952" d="M735 0L625 332H324L215 0H45L391 1053H557L905 0H735ZM475 858L354 463H594L475 858ZM418 1366Q418 1321 379 1286T295 1251Q262 1251 240 1272T217 1327Q217 1372 253 1410T334 1448Q369
1448 393 1425T418 1366ZM733 1366Q733 1321 694 1286T610 1251Q577 1251 555 1272T532 1327Q532 1372 568 1410T649 1448Q684 1448 708 1425T733 1366Z" />
<glyph unicode="&#xe5;" glyph-name="aring" horiz-adv-x="952" d="M735 0L625 332H324L215 0H45L391 1053H557L905 0H735ZM475 858L354 463H594L475 858ZM477 1524Q426 1524 388 1488T350 1401Q350 1352 386 1315T471 1278T557 1315T594 1401T560 1487T477 1524ZM387
1618T475 1618T625 1554T688 1401Q688 1311 625 1248T471 1184Q383 1184 321 1248T258 1401T322 1553Z" />
<glyph unicode="&#xe6;" glyph-name="ae" horiz-adv-x="1320" d="M618 0V328H322L213 0H45L387 1055H563L618 745V1055H1190V920H780V612H1094V475H780V139H1206V0H618ZM475 842L356 461H578L475 842Z" />
<glyph unicode="&#xe7;" glyph-name="ccedilla" horiz-adv-x="952" d="M690 -88Q698 -106 698 -129Q698 -195 631 -259T487 -356L410 -293Q576 -203 575 -139Q575 -129 573 -123Q559 -80 510 -80Q487 -80 410 -98V-6Q269 47 201 196T133 526Q133 757 242 911Q361
1085 563 1085Q731 1085 854 1008L795 901Q678 960 563 961Q506 961 447 917T352 803Q295 688 295 520Q295 348 344 252Q422 96 565 96Q686 96 799 174L870 70Q774 -2 647 -25Q676 -53 690 -88Z" />
<glyph unicode="&#xe8;" glyph-name="egrave" horiz-adv-x="894" d="M184 0V1053H762V922H346V616H666V481H346V135H780V0H184ZM696 1292L631 1200Q391 1327 254 1462L381 1591Q487 1444 696 1292Z" />
<glyph unicode="&#xe9;" glyph-name="eacute" horiz-adv-x="894" d="M184 0V1053H762V922H346V616H666V481H346V135H780V0H184ZM573 1591L700 1462Q561 1325 324 1200L258 1292Q350 1358 429 1432T541 1549L573 1591Z" />
<glyph unicode="&#xea;" glyph-name="ecircumflex" horiz-adv-x="894" d="M791 1292L725 1198Q608 1259 477 1403Q344 1258 229 1198L164 1290Q328 1403 477 1591Q605 1427 791 1292ZM209 0V1053H786V922H371V616H690V481H371V135H805V0H209Z" />
<glyph unicode="&#xeb;" glyph-name="edieresis" horiz-adv-x="894" d="M184 0V1053H762V922H346V616H666V481H346V135H780V0H184ZM418 1315Q418 1270 379 1235T295 1200Q262 1200 240 1221T217 1276Q217 1321 253 1359T334 1397Q369 1397 393 1374T418 1315ZM733
1315Q733 1270 694 1235T610 1200Q577 1200 555 1221T532 1276Q532 1321 568 1359T649 1397Q684 1397 708 1374T733 1315Z" />
<glyph unicode="&#xec;" glyph-name="igrave" horiz-adv-x="534" d="M184 0V1053H352V0H184ZM627 1292L561 1200Q321 1327 184 1462L311 1591Q418 1444 627 1292Z" />
<glyph unicode="&#xed;" glyph-name="iacute" horiz-adv-x="534" d="M184 0V1053H352V0H184ZM500 1591L627 1462Q488 1325 250 1200L184 1292Q276 1358 355 1432T467 1549L500 1591Z" />
<glyph unicode="&#xee;" glyph-name="icircumflex" horiz-adv-x="534" d="M184 0V1053H352V0H184ZM811 1292L745 1198Q628 1259 498 1403Q365 1258 250 1198L184 1290Q348 1403 498 1591Q625 1427 811 1292Z" />
<glyph unicode="&#xef;" glyph-name="idieresis" horiz-adv-x="534" d="M184 0V1053H352V0H184ZM385 1366Q385 1321 346 1286T262 1251Q229 1251 207 1272T184 1327Q184 1372 220 1410T301 1448Q336 1448 360 1425T385 1366ZM700 1366Q700 1321 662 1286T578 1251Q545
1251 523 1272T500 1327Q500 1372 535 1410T616 1448Q651 1448 675 1425T700 1366Z" />
<glyph unicode="&#xf1;" glyph-name="ntilde" horiz-adv-x="1103" d="M750 0L371 786Q371 763 372 746T374 722T375 711V0H213V1055H414L750 324Q748 377 748 397V1055H909V0H750ZM412 1485Q471 1485 558 1440T692 1395Q745 1395 776 1408T864 1460L928 1382Q854
1314 803 1291T678 1268Q637 1268 550 1313T406 1358Q388 1358 370 1354T330 1339T297 1322T258 1299T225 1278L166 1366Q318 1485 412 1485Z" />
<glyph unicode="&#xf2;" glyph-name="ograve" horiz-adv-x="1034" d="M539 -33Q441 -33 363 19T242 157T177 337T154 532Q154 665 191 787T320 997T539 1085Q668 1085 759 995T887 784T924 527T887 269T759 57T539 -33ZM539 954Q476 954 429 914T358 807T324 668T313
516Q313 440 323 372T357 239T428 136T539 98Q625 98 677 170T745 330T762 526Q762 632 745 722T674 883T539 954ZM743 1292L678 1200Q438 1327 301 1462L428 1591Q534 1444 743 1292Z" />
<glyph unicode="&#xf3;" glyph-name="oacute" horiz-adv-x="1034" d="M539 -33Q441 -33 363 19T242 157T177 337T154 532Q154 665 191 787T320 997T539 1085Q668 1085 759 995T887 784T924 527T887 269T759 57T539 -33ZM539 954Q476 954 429 914T358 807T324 668T313
516Q313 440 323 372T357 239T428 136T539 98Q625 98 677 170T745 330T762 526Q762 632 745 722T674 883T539 954ZM635 1591L762 1462Q623 1325 385 1200L319 1292Q411 1358 490 1432T602 1549L635 1591Z" />
<glyph unicode="&#xf4;" glyph-name="ocircumflex" horiz-adv-x="1034" d="M539 -33Q441 -33 363 19T242 157T177 337T154 532Q154 665 191 787T320 997T539 1085Q668 1085 759 995T887 784T924 527T887 269T759 57T539 -33ZM539 954Q476 954 429 914T358 807T324
668T313 516Q313 440 323 372T357 239T428 136T539 98Q625 98 677 170T745 330T762 526Q762 632 745 722T674 883T539 954ZM831 1292L766 1198Q649 1259 518 1403Q385 1258 270 1198L205 1290Q369 1403 518 1591Q645 1427 831 1292Z" />
<glyph unicode="&#xf5;" glyph-name="otilde" horiz-adv-x="1034" d="M539 -33Q441 -33 363 19T242 157T177 337T154 532Q154 665 191 787T320 997T539 1085Q668 1085 759 995T887 784T924 527T887 269T759 57T539 -33ZM539 954Q476 954 429 914T358 807T324 668T313
516Q313 440 323 372T357 239T428 136T539 98Q625 98 677 170T745 330T762 526Q762 632 745 722T674 883T539 954ZM385 1485Q444 1485 531 1440T666 1395Q719 1395 749 1408T838 1460L901 1382Q827 1314 776 1291T651 1268Q610 1268 523 1313T379 1358Q361 1358
344 1354T304 1339T271 1322T232 1299T199 1278L139 1366Q291 1485 385 1485Z" />
<glyph unicode="&#xf6;" glyph-name="odieresis" horiz-adv-x="1034" d="M539 -33Q441 -33 363 19T242 157T177 337T154 532Q154 665 191 787T320 997T539 1085Q668 1085 759 995T887 784T924 527T887 269T759 57T539 -33ZM539 954Q476 954 429 914T358 807T324
668T313 516Q313 440 323 372T357 239T428 136T539 98Q625 98 677 170T745 330T762 526Q762 632 745 722T674 883T539 954ZM467 1366Q467 1321 428 1286T344 1251Q311 1251 289 1272T266 1327Q266 1372 302 1410T383 1448Q418 1448 442 1425T467 1366ZM782 1366Q782
1321 744 1286T659 1251Q626 1251 604 1272T582 1327Q582 1372 617 1410T698 1448Q733 1448 757 1425T782 1366Z" />
<glyph unicode="&#xf7;" glyph-name="divide" horiz-adv-x="1001" d="M631 877T631 828T591 740T500 702Q451 702 416 735T381 817Q381 868 421 905T512 942Q561 942 596 910ZM631 268T631 219T591 132T500 94Q451 94 416 127T381 209Q381 260 421 297T512 334Q561
334 596 301ZM889 573V451H111V573H889Z" />
<glyph unicode="&#xf8;" glyph-name="oslash" horiz-adv-x="1034" d="M373 174L594 938Q557 954 518 954Q455 954 408 914T337 807T303 668T293 516Q293 283 373 174ZM674 858L457 109Q488 99 518 98Q604 98 656 170T725 330T741 526Q742 741 674 858ZM782 1239L719
1016Q811 942 857 807T903 526Q903 391 866 269T738 57T518 -33Q473 -33 420 -18L360 -227H258L332 27Q234 101 184 241T133 532Q133 665 171 787T300 997T518 1085Q577 1085 631 1067L680 1239H782Z" />
<glyph unicode="&#xf9;" glyph-name="ugrave" horiz-adv-x="1069" d="M735 -33T555 -33T289 93T203 406V1053H362V406Q362 99 555 99T748 406V1053H907V399Q907 211 821 89ZM764 1292L698 1200Q458 1327 322 1462L449 1591Q555 1444 764 1292Z" />
<glyph unicode="&#xfa;" glyph-name="uacute" horiz-adv-x="1069" d="M735 -33T555 -33T289 93T203 406V1053H362V406Q362 99 555 99T748 406V1053H907V399Q907 211 821 89ZM639 1591L766 1462Q627 1325 389 1200L324 1292Q416 1358 494 1432T606 1549L639 1591Z" />
<glyph unicode="&#xfb;" glyph-name="ucircumflex" horiz-adv-x="1069" d="M846 1292L780 1198Q663 1259 532 1403Q399 1258 285 1198L219 1290Q383 1403 532 1591Q660 1427 846 1292ZM735 -33T555 -33T289 93T203 406V1053H362V406Q362 99 555 99T748 406V1053H907V399Q907
211 821 89Z" />
<glyph unicode="&#xfc;" glyph-name="udieresis" horiz-adv-x="1069" d="M735 -33T555 -33T289 93T203 406V1053H362V406Q362 99 555 99T748 406V1053H907V399Q907 211 821 89ZM477 1366Q477 1321 438 1286T354 1251Q321 1251 299 1272T276 1327Q276 1372 312
1410T393 1448Q428 1448 452 1425T477 1366ZM793 1366Q793 1321 754 1286T670 1251Q637 1251 615 1272T592 1327Q592 1372 628 1410T709 1448Q744 1448 768 1425T793 1366Z" />
<glyph unicode="&#xff;" glyph-name="ydieresis" horiz-adv-x="851" d="M383 1315Q383 1270 344 1235T260 1200Q227 1200 205 1221T182 1276Q182 1321 218 1359T299 1397Q334 1397 358 1374T383 1315ZM698 1315Q698 1270 660 1235T575 1200Q542 1200 520 1221T498
1276Q498 1321 533 1359T614 1397Q649 1397 673 1374T698 1315ZM526 387V0H367V387L49 1053H221L451 557L682 1053H846L526 387Z" />
<glyph unicode="&#x2013;" glyph-name="endash" horiz-adv-x="733" d="M733 584V461H0V584H733Z" />
<glyph unicode="&#x2014;" glyph-name="emdash" horiz-adv-x="1245" d="M1245 586V463H0V586H1245Z" />
<glyph unicode="&#x2018;" glyph-name="quoteleft" horiz-adv-x="546" d="M225 883Q198 883 166 906T114 953L94 977Q178 1155 358 1354L451 1290Q353 1149 328 1051Q318 1010 317 967L322 918Q264 883 225 883Z" />
<glyph unicode="&#x2019;" glyph-name="quoteright" horiz-adv-x="552" d="M324 1323Q351 1323 383 1300T435 1252L455 1229Q371 1051 190 852L98 915Q196 1056 221 1155Q231 1196 231 1239L227 1288Q285 1323 324 1323Z" />
<glyph unicode="&#x201a;" glyph-name="quotesinglbase" horiz-adv-x="528" d="M285 184Q312 184 344 161T396 114L416 90Q332 -88 152 -287L59 -223Q157 -82 182 16Q192 57 193 100L188 150Q246 184 285 184Z" />
<glyph unicode="&#x201c;" glyph-name="quotedblleft" horiz-adv-x="913" d="M590 883Q606 883 630 892T671 909L686 918Q682 936 682 967Q682 1010 692 1051Q717 1149 815 1290L723 1354Q643 1266 577 1172T484 1027L459 977Q529 883 590 883ZM227 883Q243 883
268 892T308 909L324 918Q320 936 319 967Q319 1010 330 1051Q355 1149 453 1290L360 1354Q280 1266 214 1172T122 1027L96 977Q166 883 227 883Z" />
<glyph unicode="&#x201d;" glyph-name="quotedblright" horiz-adv-x="913" d="M322 1323Q306 1323 281 1315T241 1297L225 1288Q229 1270 229 1239Q229 1196 219 1155Q194 1057 96 915L188 852Q268 940 334 1034T427 1179L453 1229Q383 1323 322 1323ZM684 1323Q668
1323 643 1315T603 1297L588 1288Q592 1270 592 1239Q592 1196 582 1155Q557 1057 459 915L551 852Q631 940 697 1034T790 1179L815 1229Q745 1323 684 1323Z" />
<glyph unicode="&#x201e;" glyph-name="quotedblbase" horiz-adv-x="888" d="M285 184Q269 184 244 176T204 159L188 150Q192 132 193 100Q193 57 182 16Q157 -82 59 -223L152 -287Q232 -199 298 -105T390 40L416 90Q346 184 285 184ZM647 184Q631 184 607 176T566
159L551 150Q555 132 555 100Q555 57 545 16Q520 -82 422 -223L514 -287Q594 -199 660 -105T753 40L778 90Q708 184 647 184Z" />
<glyph unicode="&#x2020;" glyph-name="dagger" horiz-adv-x="856" d="M780 1004L760 868H494V428Q494 104 418 -31Q340 121 340 428V868H68V1004H340V1290H494V1004H780Z" />
<glyph unicode="&#x2021;" glyph-name="daggerdbl" horiz-adv-x="856" d="M780 561L760 428H494Q494 104 418 -31Q340 121 340 428H68V561H340V868H68V1004H340V1288H494V1004H780L760 868H494V561H780Z" />
<glyph unicode="&#x2022;" glyph-name="bullet" horiz-adv-x="868" d="M287 997T432 997T682 894T786 646T682 397T433 293T184 396T80 645T183 894Z" />
<glyph unicode="&#x2026;" glyph-name="ellipsis" horiz-adv-x="1236" d="M393 143T393 94T353 7T262 -31Q213 -31 178 2T143 84Q143 135 183 172T274 209Q323 209 358 176ZM745 143T745 94T706 7T614 -31Q565 -31 531 2T496 84Q496 135 535 172T627 209Q676 209
710 176ZM1094 143T1094 94T1054 7T963 -31Q914 -31 879 2T844 84Q844 135 884 172T975 209Q1024 209 1059 176Z" />
<glyph unicode="&#x2030;" glyph-name="perthousand" horiz-adv-x="2058" d="M518 985T518 1048T474 1156T367 1200T259 1156T215 1049T259 941T366 897T474 941ZM987 1290L532 0H397L829 1196Q749 1153 616 1157Q639 1114 639 1049Q639 936 559 856T367 776T174
856T94 1048T174 1241T367 1321Q433 1321 485 1294Q487 1292 496 1287T512 1280Q565 1257 655 1257Q782 1257 883 1319L987 1290ZM1333 354T1333 242T1254 49T1061 -31T868 49T788 241T868 434T1061 514T1253 434ZM1212 178T1212 241T1168 349T1061 393T953 349T909
242T953 134T1060 90T1168 134ZM1962 354T1962 242T1882 49T1690 -31T1497 49T1417 241T1497 434T1689 514T1882 434ZM1841 178T1841 241T1797 349T1690 393T1582 349T1538 242T1582 134T1689 90T1797 134Z" />
<glyph unicode="&#x2039;" glyph-name="guilsinglleft" horiz-adv-x="614" d="M547 205L451 127L68 512L446 897L543 819L238 512L547 205Z" />
<glyph unicode="&#x203a;" glyph-name="guilsinglright" horiz-adv-x="614" d="M68 205L164 127L547 512L168 897L72 819L377 512L68 205Z" />
<glyph unicode="&#x2044;" glyph-name="fraction" horiz-adv-x="694" d="M860 1526L-20 -268H-150L731 1526H860Z" />
</font>
</defs>
</svg>
