<?xml version="1.0" standalone="no"?> <!DOCTYPE svg PUBLIC "-//W3C//DTD SVG 1.0//EN" "http://www.w3.org/TR/2001/REC-SVG-20010904/DTD/svg10.dtd" > <svg xmlns="http://www.w3.org/2000/svg" width="100%" height="100%">
<defs >
<font id="Delicious-Italic" horiz-adv-x="837" ><font-face
    font-family="Delicious"
    units-per-em="2048"
    panose-1="0 0 0 0 0 0 0 0 0 0"
    ascent="1823"
    descent="-483"
    alphabetic="0" />
<missing-glyph horiz-adv-x="748" d="M68 0V1365H612V0H68ZM136 68H544V1297H136V68Z" />
<glyph unicode=" " glyph-name="space" horiz-adv-x="614" />
<glyph unicode="!" glyph-name="exclam" horiz-adv-x="516" d="M340 143T340 94T300 7T209 -31Q160 -31 125 2T90 84Q90 135 129 172T219 209Q268 209 304 176ZM516 1432Q446 1223 418 1036L305 332H182L264 1036Q284 1210 356 1411L516 1432Z" />
<glyph unicode="&quot;" glyph-name="quotedbl" horiz-adv-x="585" d="M635 1321L539 997L471 999L479 1321L526 1450H627L635 1321ZM352 1321L256 997L188 999L197 1321L244 1450H344L352 1321Z" />
<glyph unicode="#" glyph-name="numbersign" horiz-adv-x="1138" d="M666 571L705 883H471L432 571H666ZM768 1382H891L846 1018H1020L1008 883H827L788 571H942L930 436H772L719 18H596L649 436H414L367 57H244L291 436H125L145 571H309L348 883H203L223 1018H365L416
1421H539L487 1018H723L768 1382Z" />
<glyph unicode="$" glyph-name="dollar" horiz-adv-x="880" d="M881 1219L807 1108Q735 1167 625 1186L551 719Q683 625 719 584Q792 502 793 387Q793 229 692 116T434 -25L414 -150H322L340 -31Q180 -27 45 57L111 178Q244 104 360 98L436 582Q430 586 389 614T340
650T299 683T257 722T227 761T198 811T183 864T176 928Q176 1090 283 1199T553 1319L571 1432H664L645 1317Q787 1303 881 1219ZM532 1188Q446 1174 393 1111T340 958Q340 917 361 882T403 827T467 776L532 1188ZM631 346Q631 444 520 524L455 113Q531 138 581
203T631 346Z" />
<glyph unicode="%" glyph-name="percent" horiz-adv-x="1431" d="M518 985T518 1048T474 1156T367 1200T259 1156T215 1049T259 941T366 897T474 941ZM987 1290L532 0H397L829 1196Q794 1178 741 1169T652 1158L616 1157Q639 1114 639 1049Q639 936 559 856T367
776T174 856T94 1048T174 1241T367 1321Q447 1321 512 1280Q594 1257 655 1257Q712 1257 769 1272T855 1304L883 1319L987 1290ZM1333 354T1333 242T1254 49T1061 -31T868 49T788 241T868 434T1061 514T1253 434ZM1212 178T1212 241T1168 349T1061 393T953 349T909
242T953 134T1060 90T1168 134Z" />
<glyph unicode="&amp;" glyph-name="ampersand" horiz-adv-x="1800" d="M1663 705Q1663 494 1534 322T1212 60T813 -31Q528 -31 323 137T117 584Q117 844 306 1046T756 1292L774 1178Q577 1141 431 971T285 602Q285 528 307 451L618 705Q628 715 688 763T784 841T878
926T970 1022T1030 1111T1057 1196Q1057 1249 1001 1296T883 1366L922 1450Q1031 1427 1117 1358T1204 1190Q1204 1170 1202 1161Q1198 1134 1183 1103T1140 1036T1086 970T1017 898T945 831T868 763T799 705T732 651T682 610L352 342Q502 82 827 82Q999 82 1155
165T1408 396T1505 719Q1505 811 1470 891H1290L1276 963Q1346 1004 1452 1004Q1571 1004 1617 925T1663 705Z" />
<glyph unicode="&apos;" glyph-name="quotesingle" horiz-adv-x="303" d="M352 1321L256 997L188 999L197 1321L244 1450H344L352 1321Z" />
<glyph unicode="(" glyph-name="parenleft" horiz-adv-x="716" d="M809 1589L807 1468Q559 1323 406 1050T252 485Q252 282 336 106Q379 14 419 -35T549 -164L485 -246Q139 24 139 485Q139 823 324 1122T809 1589Z" />
<glyph unicode=")" glyph-name="parenright" horiz-adv-x="696" d="M18 -258L-25 -166Q81 -86 143 -32T272 106Q528 428 528 821Q528 1018 455 1192T233 1470L266 1589Q452 1460 549 1263T647 834Q647 451 403 106Q264 -92 18 -258Z" />
<glyph unicode="*" glyph-name="asterisk" horiz-adv-x="808" d="M797 1130L516 1024L666 709H530L418 948L217 709L102 743L348 1034L86 1128L135 1249L395 1149L354 1382H600L494 1135L766 1247L797 1130Z" />
<glyph unicode="+" glyph-name="plus" horiz-adv-x="964" d="M872 451H541V96H422V451H92V573H422V928H541V573H872V451Z" />
<glyph unicode="," glyph-name="comma" horiz-adv-x="528" d="M352 53Q241 -117 39 -283L-45 -207Q152 4 135 143Q184 166 225 166Q293 166 352 53Z" />
<glyph unicode="-" glyph-name="hyphen" horiz-adv-x="618" d="M506 461H113V584H506V461Z" />
<glyph unicode="." glyph-name="period" horiz-adv-x="528" d="M332 143T332 94T292 7T201 -31Q152 -31 117 2T82 84Q82 135 121 172T211 209Q260 209 296 176Z" />
<glyph unicode="/" glyph-name="slash" horiz-adv-x="755" d="M852 1550L29 -303H-98L725 1550H852Z" />
<glyph unicode="0" glyph-name="zero" horiz-adv-x="921" d="M872 643Q872 491 821 342T655 81T381 -31Q217 -31 133 87T49 375Q49 484 82 597T175 810T334 971T549 1034Q713 1034 792 924T872 643ZM723 629Q723 908 528 907Q424 907 345 814T233 607T199 391Q199
272 246 183T399 94Q508 94 586 192T693 408T723 629Z" />
<glyph unicode="1" glyph-name="one" horiz-adv-x="921" d="M670 1001L512 0H360L496 856H238L254 954Q342 954 453 983L528 1001H670Z" />
<glyph unicode="2" glyph-name="two" horiz-adv-x="921" d="M852 778Q852 661 760 527T555 296T330 135H786L764 0H104L96 127Q291 225 479 420Q557 500 621 599T686 776Q686 842 642 872T530 903Q430 903 270 805L219 905Q319 977 394 1005T578 1034Q852 1034 852 778Z" />
<glyph unicode="3" glyph-name="three" horiz-adv-x="921" d="M856 834Q856 771 826 714T737 611T633 539T518 475Q629 475 706 412T784 240Q784 58 678 -77T415 -276T80 -340L57 -225Q149 -223 245 -196T428 -117T569 17T625 199Q625 353 381 352Q307 352 215
342L207 459Q217 461 235 463T269 467T299 471Q322 475 433 544T584 643Q699 723 698 813Q698 858 667 881T588 905Q488 905 291 801L248 901Q332 956 440 995T639 1034Q737 1034 796 982T856 834Z" />
<glyph unicode="4" glyph-name="four" horiz-adv-x="921" d="M854 1004L717 133H848L827 0H692Q639 -240 569 -342L455 -291Q502 -193 545 0H35L47 133Q313 567 688 1004H854ZM676 799Q402 461 201 133H565L676 799Z" />
<glyph unicode="5" glyph-name="five" horiz-adv-x="921" d="M866 1004L846 881H479L381 469Q424 481 469 481Q801 481 801 225Q801 61 687 -73T414 -275T96 -342H86L72 -221Q242 -217 395 -141Q491 -94 565 3T639 201Q639 283 580 319T432 356Q336 356 190 315L358
1004H866Z" />
<glyph unicode="6" glyph-name="six" horiz-adv-x="921" d="M854 1214Q634 1087 550 1015Q529 996 510 977Q399 862 336 739Q295 659 269 551T242 356Q242 254 285 172T422 90Q637 90 692 451Q696 488 696 506Q696 686 467 686Q401 686 317 649Q327 659 348 679T378
709T405 734T437 756T469 770T508 781T555 784Q682 784 765 711T848 512Q848 478 842 444Q811 247 693 107T389 -33Q283 -33 214 29T121 176T96 365Q96 693 292 931T815 1315L854 1214Z" />
<glyph unicode="7" glyph-name="seven" horiz-adv-x="921" d="M874 1004L854 872Q807 581 616 220T207 -371L100 -281Q307 -58 484 270T707 872H182L203 1004H874Z" />
<glyph unicode="8" glyph-name="eight" horiz-adv-x="921" d="M602 688Q736 611 776 567Q838 500 838 401Q838 342 817 274Q772 131 651 49T377 -33Q242 -33 154 49T66 264Q66 409 188 551Q249 621 371 674Q289 725 248 781T207 922Q207 1084 325 1187T608 1290Q735
1290 812 1234T889 1059Q889 930 810 836T602 688ZM743 1038Q743 1179 575 1180Q481 1180 417 1102T352 928Q352 817 492 741Q613 788 678 854T743 1038ZM682 268T682 376T580 547Q541 570 463 618Q359 567 291 484T223 297Q223 207 274 146T414 84Q520 84 601
176Z" />
<glyph unicode="9" glyph-name="nine" horiz-adv-x="921" d="M852 649Q852 563 834 477Q723 -45 129 -313L80 -217Q303 -91 387 -18Q411 3 432 25Q700 299 700 633Q700 914 537 913Q451 913 388 852T294 715T252 551Q246 523 246 496Q246 318 477 317Q536 317
625 352Q609 338 573 301T522 254T469 231T387 217Q260 217 177 291T94 489L100 557Q133 766 244 900T553 1034Q707 1034 779 923T852 649Z" />
<glyph unicode=":" glyph-name="colon" horiz-adv-x="528" d="M332 143T332 94T292 7T201 -31Q152 -31 117 2T82 84Q82 135 121 172T211 209Q260 209 296 176ZM434 768T434 719T394 632T303 594Q254 594 219 626T184 708T224 796T313 834T398 801Z" />
<glyph unicode=";" glyph-name="semicolon" horiz-adv-x="528" d="M346 53Q235 -117 33 -283L-51 -207Q146 4 129 143Q178 166 219 166Q287 166 346 53ZM457 723Q457 672 417 634T326 596Q277 596 242 629T207 711Q207 762 247 800T338 838Q387 838 422 805T457 723Z" />
<glyph unicode="&lt;" glyph-name="less" horiz-adv-x="614" d="M547 205L451 127L68 512L446 897L543 819L238 512L547 205Z" />
<glyph unicode="=" glyph-name="equal" horiz-adv-x="983" d="M872 598H90V721H872V598ZM872 293H90V416H872V293Z" />
<glyph unicode="&gt;" glyph-name="greater" horiz-adv-x="614" d="M68 205L164 127L547 512L168 897L72 819L377 512L68 205Z" />
<glyph unicode="?" glyph-name="question" horiz-adv-x="815" d="M371 143T371 94T331 7T240 -31Q191 -31 156 2T121 84Q121 135 161 172T252 209Q301 209 336 176ZM338 338H213Q217 358 227 435T244 536T267 617T313 718T383 809L565 1014Q600 1053 629 1112T659
1217Q659 1299 559 1298H387Q252 1298 197 1382L297 1487Q344 1421 410 1421H590Q817 1421 817 1245Q817 1112 698 973L516 766Q481 727 458 698T417 636T390 588T372 534T360 484T350 416T338 338Z" />
<glyph unicode="@" glyph-name="at" horiz-adv-x="1622" d="M1018 936Q942 1034 813 1034Q735 1034 681 951T608 777T588 610Q588 551 609 504T684 457Q702 457 727 463T768 475T815 497T856 520T899 545T934 567L1018 936ZM1081 299Q1009 299 962 334T915 438Q915
450 920 471Q802 369 746 345Q699 324 655 324Q557 324 503 404T449 588Q449 682 467 773T525 951T641 1092T817 1147Q962 1147 1042 1030L1063 1114H1196L1055 522Q1043 477 1042 455Q1042 400 1098 399Q1223 399 1316 550T1409 836Q1409 1088 1246 1230T827 1372Q573
1372 398 1177T223 723Q223 453 402 266T852 78Q1004 78 1144 143T1374 326L1470 274Q1376 135 1200 49T852 -37Q533 -37 311 185T88 727Q88 1026 311 1256T831 1487Q1126 1487 1321 1308T1516 836Q1516 723 1460 600T1300 388T1081 299Z" />
<glyph unicode="A" glyph-name="A" horiz-adv-x="1052" d="M950 0H782L721 416H328L125 0H-45L567 1290H745L950 0ZM702 551L633 1120L389 551H702Z" />
<glyph unicode="B" glyph-name="B" horiz-adv-x="1017" d="M711 690Q815 684 873 617T932 444Q932 227 777 98T401 -31Q280 -31 88 20L289 1288H606Q952 1288 952 1026Q952 917 884 818T711 690ZM791 1008Q791 1162 584 1161H432L367 745Q394 745 443 744T518
743Q633 743 712 818T791 1008ZM768 432Q768 491 745 530T676 585T590 607T489 612H346L270 135Q358 108 420 109Q567 109 667 195T768 432Z" />
<glyph unicode="C" glyph-name="C" horiz-adv-x="1007" d="M1061 1233L985 1133Q883 1190 723 1190Q639 1190 558 1130T424 987Q283 770 283 469Q283 317 347 208T553 98Q717 98 844 188L899 84Q825 31 722 -1T524 -33Q315 -33 217 107T119 465Q119 641 174 812T334
1110Q510 1321 743 1321Q940 1321 1061 1233Z" />
<glyph unicode="D" glyph-name="D" horiz-adv-x="1128" d="M440 0H88L293 1290H666Q865 1290 958 1166T1051 836Q1051 691 1015 549T910 281T718 78T440 0ZM885 831Q885 1159 637 1159H434L270 131H461Q580 131 667 201T799 385T864 610T885 831Z" />
<glyph unicode="E" glyph-name="E" horiz-adv-x="913" d="M956 1290L934 1153H434L369 743H752L731 602H348L274 141H795L772 0H88L293 1290H956Z" />
<glyph unicode="F" glyph-name="F" horiz-adv-x="847" d="M899 1290L877 1155H434L369 743H719L698 602H348L252 0H88L293 1290H899Z" />
<glyph unicode="G" glyph-name="G" horiz-adv-x="1062" d="M1063 1233L981 1128Q883 1191 723 1192Q639 1192 558 1131T424 987Q283 770 283 469Q283 317 347 208T553 98Q659 98 737 127L805 551H956L872 20Q733 -33 528 -33Q317 -33 218 106T119 465Q119 641
174 812T334 1110Q510 1321 743 1321Q905 1321 1063 1233Z" />
<glyph unicode="H" glyph-name="H" horiz-adv-x="1122" d="M1087 1290L883 0H719L815 604H348L252 0H88L293 1290H457L369 743H836L924 1290H1087Z" />
<glyph unicode="I" glyph-name="I" horiz-adv-x="487" d="M453 1290L248 0H88L293 1290H453Z" />
<glyph unicode="J" glyph-name="J" horiz-adv-x="487" d="M453 1290L240 -57Q207 -264 -96 -334L-113 -223Q61 -170 82 -45L293 1290H453Z" />
<glyph unicode="K" glyph-name="K" horiz-adv-x="931" d="M926 1305Q932 1274 932 1241Q932 1100 827 991L477 635L909 49V0H737L338 539L252 0H88L293 1290H457L365 705L692 1047Q764 1121 764 1237Q764 1264 762 1276L926 1305Z" />
<glyph unicode="L" glyph-name="L" horiz-adv-x="763" d="M719 127L700 0H88L293 1290H449L262 127H719Z" />
<glyph unicode="M" glyph-name="M" horiz-adv-x="1519" d="M1485 1290L1280 0H1116L1255 877Q1263 936 1296 1055L776 0H633L410 1057Q402 938 391 881L252 0H88L293 1290H510L698 410Q727 269 733 201Q803 371 823 410L1268 1290H1485Z" />
<glyph unicode="N" glyph-name="N" horiz-adv-x="1134" d="M1100 1290L895 0H727L408 1057Q406 971 391 877L252 0H88L293 1290H508L788 305Q790 325 793 361T800 427T807 483L936 1290H1100Z" />
<glyph unicode="O" glyph-name="O" horiz-adv-x="1120" d="M883 842Q883 1186 666 1186Q562 1186 481 1102T358 893T297 650T276 436Q276 102 494 102Q580 102 649 157T761 297T831 484T871 678T883 842ZM473 -33Q375 -33 302 13T192 136T137 296T119 473Q119
573 140 684T208 909T318 1115T479 1263T688 1321Q786 1321 858 1276T969 1155T1025 996T1042 821Q1042 694 1008 551T907 275T726 54T473 -33Z" />
<glyph unicode="P" glyph-name="P" horiz-adv-x="993" d="M512 461Q416 461 332 506L252 0H88L293 1290H571Q753 1290 873 1214T993 965Q993 742 856 602T512 461ZM827 944Q827 1057 749 1108T551 1159H436L352 637Q452 594 512 594Q645 594 736 696T827 944Z" />
<glyph unicode="Q" glyph-name="Q" horiz-adv-x="1071" d="M1018 821Q1018 465 848 215T346 -158Q356 -162 386 -178T425 -200T459 -217T497 -234T533 -248T574 -258T614 -263T662 -266Q797 -266 942 -219L909 -385Q841 -403 741 -403Q694 -403 653 -399T568 -382T499
-362T423 -328T358 -293T281 -249T205 -205L188 -135Q387 -26 442 8Q272 49 183 176T94 485Q94 614 129 754T229 1024T408 1237T664 1321Q762 1321 833 1276T944 1155T1000 995T1018 821ZM858 842Q858 1186 641 1186Q537 1186 457 1109T336 915T275 685T254 477Q254
143 565 102Q719 221 788 420T858 842Z" />
<glyph unicode="R" glyph-name="R" horiz-adv-x="1019" d="M993 965Q993 789 883 646T600 471L915 49L907 0H748L397 471Q360 483 332 502L252 0H88L293 1290H571Q753 1290 873 1214T993 965ZM827 944Q827 1057 749 1108T551 1159H436L352 637Q438 594 498 594Q629
594 728 701T827 944Z" />
<glyph unicode="S" glyph-name="S" horiz-adv-x="880" d="M860 1176L764 1096Q727 1139 671 1166T561 1194Q469 1194 403 1129T336 971Q336 912 368 863T451 781T560 708T668 629T751 527T784 387Q784 205 660 87T350 -31Q176 -31 53 88L137 201Q256 103 365 102Q459
102 541 178T623 348Q623 411 576 465T461 563T327 652T213 768T166 926Q166 1102 286 1211T582 1321Q658 1321 734 1279T860 1176Z" />
<glyph unicode="T" glyph-name="T" horiz-adv-x="800" d="M913 1286L891 1143H575L395 0H236L416 1143H102L125 1286H913Z" />
<glyph unicode="U" glyph-name="U" horiz-adv-x="1114" d="M1092 1290L965 494Q949 388 913 298T819 130T671 10T471 -33Q299 -33 217 74T135 358Q135 430 147 502L272 1290H436L311 500Q299 430 299 356Q299 102 494 102Q738 102 803 502L928 1290H1092Z" />
<glyph unicode="V" glyph-name="V" horiz-adv-x="993" d="M1024 1290V1079Q1024 874 938 719L547 0H358L143 1290H322L483 197L786 764Q852 885 852 1075V1290H1024Z" />
<glyph unicode="W" glyph-name="W" horiz-adv-x="1519" d="M1540 1079Q1540 1022 1520 951T1483 843T1425 723L1069 0H903Q897 111 880 328T852 716T838 1042Q832 1024 818 989T801 946L436 0H262L164 1290H338L391 377Q395 332 387 242Q407 320 430 377L793 1290H956L1022
377Q1028 318 1024 242Q1044 305 1085 389L1274 793Q1280 805 1295 838T1318 887T1336 933T1354 983T1364 1031T1368 1085V1290H1540V1079Z" />
<glyph unicode="X" glyph-name="X" horiz-adv-x="1013" d="M1065 1245L643 670L938 0H750L528 512L154 0H8V45L463 662L190 1290H369L578 817L928 1290H1065V1245Z" />
<glyph unicode="Y" glyph-name="Y" horiz-adv-x="882" d="M985 1221Q813 1117 699 878T539 395L469 0H307L381 457Q373 590 349 720T257 992T92 1196L199 1309Q271 1264 335 1170T426 989Q485 811 477 686L508 801Q545 938 658 1102T887 1325L985 1221Z" />
<glyph unicode="Z" glyph-name="Z" horiz-adv-x="909" d="M891 1290L877 1147L205 143H834L811 0H25V139L686 1147H229L242 1290H891Z" />
<glyph unicode="[" glyph-name="bracketleft" horiz-adv-x="589" d="M625 1499L604 1380H414L164 -201H354L336 -319H18L307 1499H625Z" />
<glyph unicode="\" glyph-name="backslash" horiz-adv-x="686" d="M682 -303H555L25 1550H152L682 -303Z" />
<glyph unicode="]" glyph-name="bracketright" horiz-adv-x="595" d="M598 1499L309 -319H-8L10 -201H201L451 1380H260L281 1499H598Z" />
<glyph unicode="^" glyph-name="asciicircum" horiz-adv-x="1277" d="M1128 655H985L637 1284L289 655H145L580 1450H694Q888 1069 1128 655Z" />
<glyph unicode="_" glyph-name="underscore" horiz-adv-x="921" d="M922 -276H0V-154H922V-276Z" />
<glyph unicode="`" glyph-name="grave" horiz-adv-x="518" d="M518 1241L438 1149Q342 1204 258 1269T138 1373L102 1411L250 1540Q336 1391 518 1241Z" />
<glyph unicode="a" glyph-name="a" horiz-adv-x="1003" d="M911 1001L786 141Q786 137 785 132T784 125Q784 76 831 76Q851 76 881 88L907 10Q841 -29 772 -29Q709 -29 668 12T627 119Q627 139 634 174T643 221Q598 125 487 47T272 -31Q92 -31 92 248Q92 365 126
497T223 751T392 954T627 1034Q743 1034 911 1001ZM750 891Q695 905 629 905Q543 905 468 833T350 656T283 446T258 262Q258 106 334 106Q440 106 554 242T686 494L750 891Z" />
<glyph unicode="b" glyph-name="b" horiz-adv-x="1038" d="M410 -31Q334 -31 249 4T102 92L313 1421H469L391 928Q504 1034 657 1034Q800 1034 873 927T946 670Q946 500 892 345T712 80T410 -31ZM786 666Q786 906 614 905Q485 905 369 793L272 178Q344 94 463
94Q543 94 608 156T711 312T767 499T786 666Z" />
<glyph unicode="c" glyph-name="c" horiz-adv-x="849" d="M836 932L756 838Q662 908 573 907Q471 907 394 815T285 613T252 403Q252 350 262 299T293 200T358 122T459 92Q508 92 591 140T725 236L784 154Q710 76 610 23T414 -31Q260 -31 176 87T92 365Q92 478
124 592T214 806T370 968T590 1032Q707 1032 836 932Z" />
<glyph unicode="d" glyph-name="d" horiz-adv-x="1024" d="M449 -31Q275 -31 184 84T92 379Q92 541 148 687T328 934T616 1034Q739 1034 803 948Q836 1124 836 1217Q836 1330 793 1393L913 1446Q987 1342 987 1188Q987 1147 981 1110L862 389Q831 205 728 87T449
-31ZM782 817Q716 909 602 909Q508 909 437 856T326 717T269 542T250 367Q250 248 298 170T459 92Q502 92 536 106T594 139T640 197T672 260T694 336T711 406T723 477L782 817Z" />
<glyph unicode="e" glyph-name="e" horiz-adv-x="894" d="M862 811Q862 541 256 414Q254 398 254 367Q254 267 301 180T440 92Q510 92 588 136T721 240L782 156Q606 -30 406 -31Q250 -31 171 85T92 362Q92 520 148 669T328 926T612 1034Q725 1034 793 977T862
811ZM694 823Q694 911 580 911Q463 911 378 791T268 539Q694 630 694 823Z" />
<glyph unicode="f" glyph-name="f" horiz-adv-x="550" d="M582 1405L567 1294Q549 1300 524 1300Q411 1300 403 1092Q399 1026 399 1004H565L563 887L391 881Q383 758 367 563T337 233L324 100Q304 -125 111 -383L20 -330Q145 -121 170 145Q219 639 236 885L92
903L109 1004H242L248 1100Q264 1422 489 1421Q537 1421 582 1405Z" />
<glyph unicode="g" glyph-name="g" horiz-adv-x="907" d="M819 1006Q811 869 780 688Q737 434 696 336Q666 265 625 215Q701 203 748 139T795 -16Q795 -135 707 -225T503 -355T272 -395Q221 -395 174 -389T75 -366T-9 -310T-41 -217Q-41 -113 63 -4T285 174L350
78Q274 27 196 -52T117 -188Q117 -241 166 -263T276 -285Q395 -285 518 -214T641 -35Q641 45 586 89T451 131L444 174Q446 178 462 197T484 223T504 248T525 276T543 303T563 333T579 360T595 390T606 418T614 449Q571 394 498 355T356 315Q231 315 169 393T106
598Q106 791 215 912T516 1034Q643 1035 819 1006ZM672 905Q611 919 489 920Q380 920 320 822T260 608Q260 540 296 497T401 453Q485 453 554 529T643 694Q662 786 672 905Z" />
<glyph unicode="h" glyph-name="h" horiz-adv-x="1042" d="M692 -33L604 43Q698 164 721 309L786 762Q790 799 791 817Q791 866 765 886T688 907Q612 907 518 837T373 690Q348 653 348 645L246 0H90L315 1421H471L375 815Q434 903 535 968T735 1034Q839 1034 894
993T950 852Q950 823 942 762L868 293Q852 189 813 119T692 -33Z" />
<glyph unicode="i" glyph-name="i" horiz-adv-x="479" d="M401 1004L242 0H90L250 1004H401ZM494 1296Q494 1245 454 1208T362 1171Q313 1171 279 1204T244 1286T284 1373T375 1411Q424 1411 459 1378T494 1296Z" />
<glyph unicode="j" glyph-name="j" horiz-adv-x="479" d="M494 1296Q494 1245 454 1208T362 1171Q313 1171 279 1204T244 1286T284 1373T375 1411Q424 1411 459 1378T494 1296ZM399 1004L221 -119Q205 -209 164 -252Q72 -346 -106 -395L-123 -285Q53 -224 72 -104L248
1004H399Z" />
<glyph unicode="k" glyph-name="k" horiz-adv-x="983" d="M537 526L907 0H711L330 559L242 0H90L315 1421H467L334 584Q492 594 618 653Q677 682 728 732T780 836Q780 879 750 897T676 911L666 1034Q693 1042 733 1042Q829 1042 890 992T952 848Q952 748 885 673T726
564T537 526Z" />
<glyph unicode="l" glyph-name="l" horiz-adv-x="495" d="M465 1421L303 403Q287 309 287 221Q287 88 315 25L170 -18Q137 74 137 225Q137 319 152 403L313 1421H465Z" />
<glyph unicode="m" glyph-name="m" horiz-adv-x="1576" d="M1337 0H1182L1303 762Q1307 795 1307 811Q1307 907 1208 907Q1134 907 1041 824T895 659L793 0H637L758 762Q762 795 762 809Q762 905 651 905Q579 905 494 823T346 651L246 0H90L250 1004H406L373 811Q412
883 518 958T700 1034Q804 1034 868 981T924 825Q973 907 1060 970T1231 1034Q1464 1034 1464 836Q1464 799 1458 762L1337 0Z" />
<glyph unicode="n" glyph-name="n" horiz-adv-x="1062" d="M821 0H666L786 762Q792 817 793 819Q793 907 702 907Q604 907 502 825T346 645L246 0H90L250 1004H406L375 815Q426 897 532 965T735 1034Q839 1034 894 993T950 852Q950 823 942 762L821 0Z" />
<glyph unicode="o" glyph-name="o" horiz-adv-x="1001" d="M416 -31Q254 -31 173 92T92 385Q92 528 147 673T319 926T586 1034Q748 1034 828 910T909 614Q909 473 853 328T680 76T416 -31ZM756 631Q756 748 713 829T565 911Q456 911 380 810T275 591T246 369Q246
254 289 172T436 90Q520 90 584 147T685 293T738 468T756 631Z" />
<glyph unicode="p" glyph-name="p" horiz-adv-x="1097" d="M532 -33Q448 -33 386 8T301 127L223 -358H68L236 711L90 633L106 739L256 829L283 1004H438L428 928Q606 1034 715 1034Q858 1034 932 927T1006 670Q1006 566 976 448T891 221T742 39T532 -33ZM844 666Q844
910 684 909Q598 909 408 799L358 498Q346 408 346 362Q346 251 392 171T543 90Q621 90 682 154T777 315T827 503T844 666Z" />
<glyph unicode="q" glyph-name="q" horiz-adv-x="1060" d="M967 971L756 -360H600L676 127Q580 -33 393 -33Q241 -33 167 74T92 342Q92 453 125 570T217 793T375 966T592 1034Q672 1034 766 1019T913 987L967 971ZM795 879Q691 908 631 907Q531 907 454 855T336
718T276 543T256 360Q256 254 293 173T422 92Q490 92 548 134T643 240T702 370T735 498L795 879Z" />
<glyph unicode="r" glyph-name="r" horiz-adv-x="712" d="M764 940L645 801Q614 864 553 864Q510 864 401 733L352 672L246 0H90L250 1004H408L377 819L422 883Q528 1035 635 1034Q674 1034 710 1007T764 940Z" />
<glyph unicode="s" glyph-name="s" horiz-adv-x="843" d="M803 895L717 819Q625 911 494 911Q420 911 356 870T291 760Q291 727 310 701T351 660T408 627L582 535Q725 459 725 313Q725 157 620 63T358 -31Q211 -31 47 92L123 195Q172 156 238 124T358 92Q438 92
504 141T571 268T467 401L270 508Q131 582 131 719Q131 873 243 953T516 1034Q602 1034 679 999T803 895Z" />
<glyph unicode="t" glyph-name="t" horiz-adv-x="690" d="M649 1004L631 885H432L324 205Q316 152 328 122T391 92Q475 92 561 166L606 66Q489 -30 350 -31Q239 -31 195 29T166 197L276 885L143 903L160 1004H303L332 1182H475L446 1004H649Z" />
<glyph unicode="u" glyph-name="u" horiz-adv-x="1038" d="M971 1004L836 154Q832 125 831 113Q831 74 866 72L799 -31H793Q740 -33 707 2T674 90T692 193Q629 103 530 36T330 -31Q221 -31 166 11T111 156Q111 185 119 242L240 1004H395L274 242Q268 211 268 180Q268
96 362 96Q530 96 709 346L815 1004H971Z" />
<glyph unicode="v" glyph-name="v" horiz-adv-x="866" d="M811 1018Q846 940 846 825Q846 684 776 569L432 0H274L70 1004H238L383 176L662 633Q701 696 700 786Q700 897 659 985L811 1018Z" />
<glyph unicode="w" glyph-name="w" horiz-adv-x="1357" d="M1307 1018Q1338 922 1337 815Q1337 684 1284 588L963 2L795 0L733 512Q713 682 721 819Q676 643 618 512L399 0H227L82 1004H246L346 188L670 1004H831L920 188L1149 623Q1190 703 1190 799T1157 983L1307
1018Z" />
<glyph unicode="x" glyph-name="x" horiz-adv-x="864" d="M821 1020Q835 977 836 915Q836 806 768 739L526 502L770 0H596L414 387L115 0L-20 2V39L350 520L129 1004H299L467 618L659 809Q686 836 686 891Q686 944 670 989L821 1020Z" />
<glyph unicode="y" glyph-name="y" horiz-adv-x="882" d="M825 1018Q862 926 862 813Q862 694 809 606L420 -43Q340 -178 249 -258T20 -381L-16 -276Q86 -235 158 -168T295 2L84 1004H250L399 172L696 676Q716 713 717 770Q717 876 674 987L825 1018Z" />
<glyph unicode="z" glyph-name="z" horiz-adv-x="843" d="M829 1004L813 877Q489 527 190 133H764L748 0H20L31 145Q289 503 635 879H115L129 1004H829Z" />
<glyph unicode="{" glyph-name="braceleft" horiz-adv-x="722" d="M723 1399H602Q586 1399 573 1396T549 1389T530 1374T515 1359T504 1338T495 1316T488 1292T482 1267T477 1240T473 1214L418 854Q404 772 350 698T223 584Q274 555 305 495T336 371Q336 338 332
322L274 -39Q266 -105 266 -135Q266 -184 285 -202T356 -221H465L426 -332H309Q219 -332 178 -290T137 -156Q137 -125 145 -68L203 293Q207 330 207 346Q207 416 172 478T74 541L90 637Q166 637 224 718T297 883L354 1243Q372 1370 426 1439T596 1509H717L723 1399Z"
/>
<glyph unicode="|" glyph-name="bar" horiz-adv-x="454" d="M289 -37H166V1548H289V-37Z" />
<glyph unicode="}" glyph-name="braceright" horiz-adv-x="630" d="M602 637L586 541Q510 541 451 459T379 293L322 -68Q304 -195 249 -263T76 -332H-41L-47 -221H61Q96 -221 119 -210T156 -187T179 -143T191 -97T201 -39L258 322Q272 404 325 476T453 584Q402
617 371 678T340 803Q340 838 344 854L399 1214Q409 1269 409 1314T394 1379T332 1399H211L250 1509H371Q459 1509 499 1467T539 1335Q539 1304 530 1243L473 883Q469 865 469 829Q469 761 504 699T602 637Z" />
<glyph unicode="~" glyph-name="asciitilde" horiz-adv-x="1142" d="M1083 737L1059 590Q1051 582 1036 564T1014 540T996 523T977 507T958 497T932 488T903 485T862 483Q788 483 662 553T463 623Q397 623 363 596T281 504L301 631Q309 639 329 666T356 700T379
723T411 743T448 753T500 758Q576 758 701 688T899 618Q1009 618 1083 737Z" />
<glyph unicode="&#xa0;" glyph-name="uni00A0" horiz-adv-x="460" />
<glyph unicode="&#xa1;" glyph-name="exclamdown" horiz-adv-x="516" d="M201 862T201 911T241 998T332 1036Q381 1036 416 1004T451 922T411 835T319 797Q270 797 236 829ZM25 -426Q88 -236 123 -31L233 674H356L276 -31Q251 -215 184 -406L25 -426Z" />
<glyph unicode="&#xa2;" glyph-name="cent" horiz-adv-x="868" d="M868 891L766 811Q700 893 627 905L498 94Q572 100 680 172L743 98Q622 -19 477 -31L459 -150H367L385 -29Q242 -6 171 102T100 365Q100 498 144 636T268 864Q401 1007 553 1028L575 1167H668L645
1030Q721 1022 768 991T868 891ZM532 903Q444 878 379 787T287 595T260 399Q260 153 408 104L532 903Z" />
<glyph unicode="&#xa3;" glyph-name="sterling" horiz-adv-x="905" d="M815 76Q774 31 713 0T594 -31Q567 -31 522 -23T446 -7L416 0H109Q183 330 182 514V778L61 791L102 893H182V1163Q182 1292 279 1354T512 1417Q657 1417 725 1360L690 1266Q627 1303 524 1303Q338
1303 338 1133V893H612V770H338V510Q338 330 291 125H436Q555 86 616 86Q663 86 712 112T793 178L815 76Z" />
<glyph unicode="&#xa4;" glyph-name="currency" horiz-adv-x="1110" d="M1219 1270L1141 1147Q1049 1284 862 1284Q710 1284 591 1178T420 885H981L899 756H383Q369 699 369 688Q369 684 362 627H819L737 498H358Q350 305 430 205T653 104Q739 104 831 147T997
266L971 102Q826 -25 623 -25Q428 -25 315 116T215 498H16L98 627H217Q221 668 225 690Q227 713 238 756H57L139 885H276Q335 1112 502 1262T893 1413Q1090 1413 1219 1270Z" />
<glyph unicode="&#xa5;" glyph-name="yen" horiz-adv-x="882" d="M109 647L129 770H332Q256 1102 92 1202L199 1309Q271 1264 335 1170T426 989Q485 811 477 686L508 801Q545 938 658 1102T887 1325L985 1221Q881 1160 793 1034T647 770H915L895 647H602Q565 536
551 457H862L842 334H528L469 0H307L362 334H55L76 457H381Q377 520 356 647H109Z" />
<glyph unicode="&#xa7;" glyph-name="section" horiz-adv-x="860" d="M616 537Q616 603 564 642T444 682Q350 682 294 635T238 496Q238 439 290 403T401 367Q493 367 554 408T616 537ZM432 1325Q590 1325 727 1247L672 1141Q533 1207 428 1206Q348 1206 297 1164T246
1044Q246 995 299 953T428 878T578 806T706 709T760 575Q760 462 702 381T535 274Q584 247 612 229T678 181T733 111T752 27Q752 -127 654 -209T399 -291Q211 -291 43 -190L100 -78Q247 -168 408 -168Q494 -168 549 -126T604 0Q604 20 597 38T582 71T555 102T526
128T489 152T454 172T416 190T383 207Q377 209 321 235T249 271T190 308T132 357T101 415T84 489Q84 616 158 686T358 772Q352 774 323 788T285 807T250 825T214 846T183 867T152 894T129 922T109 956T97 994T92 1038Q92 1177 190 1251T432 1325Z" />
<glyph unicode="&#xa8;" glyph-name="dieresis" horiz-adv-x="638" d="M322 1315Q322 1270 283 1235T199 1200Q166 1200 144 1221T121 1276Q121 1321 155 1359T238 1397Q273 1397 297 1374T322 1315ZM637 1315Q637 1270 598 1235T514 1200Q481 1200 459 1221T436
1276Q436 1321 471 1359T553 1397Q588 1397 612 1374T637 1315Z" />
<glyph unicode="&#xa9;" glyph-name="copyright" horiz-adv-x="1800" d="M1563 774T1563 502T1370 36T904 -158T439 35T246 501T438 966T903 1159Q1177 1159 1370 967ZM1462 270T1462 501T1299 897T904 1061T509 897T346 502Q346 266 510 105T909 -57Q1138 -57
1300 106ZM1137 233Q1096 194 1033 165T918 135Q766 135 680 239T594 500Q594 654 676 762T907 870Q1030 870 1116 791L1061 721Q1000 772 907 772Q803 772 757 695T711 506Q711 389 761 310T922 231Q998 231 1094 301L1137 233Z" />
<glyph unicode="&#xaa;" glyph-name="ordfeminine" horiz-adv-x="745" d="M776 1528L682 872Q682 870 681 866T680 860Q680 823 715 823Q733 823 754 834L774 774Q723 743 670 743Q621 743 590 775T559 856Q559 872 565 899T573 934Q536 860 453 802T291 743Q154
743 154 954Q154 1077 196 1209T335 1446T559 1552Q633 1553 776 1528ZM653 1442Q618 1454 561 1454Q475 1454 408 1361T311 1159T281 965Q281 846 338 846Q418 846 504 949T606 1141Q620 1241 653 1442Z" />
<glyph unicode="&#xab;" glyph-name="guillemotleft" horiz-adv-x="970" d="M547 205L451 127L68 512L446 897L543 819L238 512L547 205ZM913 205L817 127L434 512L813 897L909 819L604 512L913 205Z" />
<glyph unicode="&#xac;" glyph-name="logicalnot" horiz-adv-x="1095" d="M920 360L799 338V760H94V883H920V360Z" />
<glyph unicode="&#xae;" glyph-name="registered" horiz-adv-x="1800" d="M1556 774T1556 500T1364 33T899 -160T435 33T242 500Q242 774 433 965T899 1157T1365 966ZM1456 268T1456 499T1292 895T899 1059Q668 1059 505 895T342 500Q342 262 505 102T905 -59Q1136
-59 1296 104ZM1192 145H1083L838 393Q815 399 793 412V145H688V872H864Q989 872 1076 813T1163 635Q1163 551 1106 476T967 393L1192 176V145ZM1055 561T1055 639T1001 752T864 788H793V498Q850 471 887 471Q963 471 1009 516Z" />
<glyph unicode="&#xaf;" glyph-name="overscore" horiz-adv-x="632" d="M633 1294L612 1174H51L72 1294H633Z" />
<glyph unicode="&#xb0;" glyph-name="degree" horiz-adv-x="641" d="M309 754Q205 754 134 822T63 995Q63 1124 165 1223T397 1323Q501 1323 571 1255T641 1081Q641 948 542 851T309 754ZM543 1069Q543 1141 499 1187T383 1233Q301 1233 233 1165T164 1008Q164
936 208 891T322 846Q410 846 476 915T543 1069Z" />
<glyph unicode="&#xb1;" glyph-name="plusminus" horiz-adv-x="915" d="M852 121V-2H113V121H852ZM872 451H541V195H422V451H92V573H422V928H541V573H872V451Z" />
<glyph unicode="&#xb4;" glyph-name="acute" horiz-adv-x="573" d="M573 1411Q413 1274 156 1149L104 1241Q206 1307 297 1381T428 1498L467 1540L573 1411Z" />
<glyph unicode="&#xb5;" glyph-name="uni00B5" horiz-adv-x="1062" d="M371 -180Q371 -256 332 -324L127 -360Q186 -223 186 -131Q186 -70 175 55T164 242V1004H319V242Q319 166 340 131T434 96Q504 96 596 132T739 213V1004H895V154Q895 74 938 72L887 -31Q832
-31 792 1T743 86Q680 35 591 2T420 -31Q389 -31 332 0Q371 -117 371 -180Z" />
<glyph unicode="&#xb6;" glyph-name="paragraph" horiz-adv-x="1132" d="M1133 1309L1110 1204L999 1180Q890 914 891 684Q891 590 918 508Q953 397 952 270Q952 59 887 -84L702 -10Q780 140 780 360Q780 405 771 491T762 623Q762 893 887 1182L598 1206Q530 1212
477 1152T402 1015T379 870Q379 788 418 725T532 659L434 520Q401 516 385 516Q248 516 175 604T102 831Q102 1034 227 1177T553 1321Q580 1321 592 1319L918 1288L930 1378H1042Q1040 1364 1037 1350T1030 1317T1024 1288L1133 1309Z" />
<glyph unicode="&#xb7;" glyph-name="middot" horiz-adv-x="559" d="M395 504Q395 453 356 416T266 379Q217 379 181 411T145 494Q145 545 185 581T276 618Q325 618 360 586T395 504Z" />
<glyph unicode="&#xb8;" glyph-name="cedilla" horiz-adv-x="686" d="M686 -111Q686 -185 604 -254T438 -356L371 -293Q564 -197 563 -131Q563 -80 506 -80Q479 -80 401 -98L418 -2H631Q686 -50 686 -111Z" />
<glyph unicode="&#xba;" glyph-name="ordmasculine" horiz-adv-x="790" d="M416 741Q293 741 232 833T170 1057Q170 1233 274 1391T545 1550Q668 1550 729 1456T791 1231Q791 1122 748 1013T617 822T416 741ZM674 1243Q674 1456 530 1456Q467 1456 418 1412T341
1302T300 1169T287 1044Q287 831 430 831Q514 831 572 908T652 1074T674 1243Z" />
<glyph unicode="&#xbb;" glyph-name="guillemotright" horiz-adv-x="1048" d="M504 205L600 127L983 512L604 897L508 819L813 512L504 205ZM137 205L233 127L616 512L238 897L141 819L446 512L137 205Z" />
<glyph unicode="&#xbf;" glyph-name="questiondown" horiz-adv-x="829" d="M479 860T479 909T519 996T610 1034Q659 1034 694 1002T729 920Q729 869 690 832T600 795Q551 795 515 827ZM514 666H639Q635 641 624 569T606 468T583 385T537 286T467 195L285 -10Q250
-49 220 -108T190 -213Q190 -295 293 -295H463Q598 -295 653 -379L553 -483Q506 -417 440 -418H260Q33 -418 33 -242Q33 -107 154 31L334 238Q375 283 401 320T443 379T471 444T486 499T499 577T514 666Z" />
<glyph unicode="&#xc0;" glyph-name="Agrave" horiz-adv-x="1052" d="M950 0H782L721 416H328L125 0H-45L567 1290H745L950 0ZM702 551L633 1120L389 551H702ZM879 1507L797 1415Q701 1470 617 1536T498 1639L463 1677L610 1806Q695 1657 879 1507Z" />
<glyph unicode="&#xc1;" glyph-name="Aacute" horiz-adv-x="1052" d="M950 0H782L721 416H328L125 0H-45L567 1290H745L950 0ZM702 551L633 1120L389 551H702ZM961 1677Q799 1540 543 1415L492 1507Q594 1573 684 1647T814 1764L854 1806L961 1677Z" />
<glyph unicode="&#xc2;" glyph-name="Acircumflex" horiz-adv-x="1052" d="M950 0H782L721 416H328L125 0H-45L567 1290H745L950 0ZM702 551L633 1120L389 551H702ZM983 1513L891 1423Q766 1548 715 1618Q518 1491 401 1425L338 1520Q432 1571 560 1657T739 1788Q844
1644 983 1513Z" />
<glyph unicode="&#xc3;" glyph-name="Atilde" horiz-adv-x="1052" d="M950 0H782L721 416H328L125 0H-45L567 1290H745L950 0ZM702 551L633 1120L389 551H702ZM920 1708L1022 1688Q1002 1579 937 1529T776 1489Q717 1495 640 1535T502 1575Q465 1575 428 1560T372
1528L352 1511L299 1587Q352 1653 408 1678T549 1696Q586 1692 676 1650T823 1608Q893 1608 920 1708Z" />
<glyph unicode="&#xc4;" glyph-name="Adieresis" horiz-adv-x="1052" d="M950 0H782L721 416H328L125 0H-45L567 1290H745L950 0ZM702 551L633 1120L389 551H702ZM633 1581Q633 1536 594 1501T510 1466Q477 1466 455 1487T432 1542Q432 1587 468 1625T549 1663Q584
1663 608 1640T633 1581ZM948 1581Q948 1536 909 1501T825 1466Q792 1466 770 1487T748 1542Q748 1587 783 1625T864 1663Q899 1663 923 1640T948 1581Z" />
<glyph unicode="&#xc5;" glyph-name="Aring" horiz-adv-x="1052" d="M950 0H782L721 416H328L125 0H-45L567 1290H745L950 0ZM702 551L633 1120L389 551H702ZM834 1624Q834 1667 806 1698T735 1729Q678 1729 632 1686T586 1587Q586 1544 615 1514T688 1483Q743
1483 788 1527T834 1624ZM674 1389Q596 1389 545 1441T494 1571Q494 1669 571 1746T748 1823Q826 1823 877 1771T928 1640Q928 1542 850 1466T674 1389Z" />
<glyph unicode="&#xc6;" glyph-name="AE" horiz-adv-x="1476" d="M1520 1290L1497 1153H997L932 743H1315L1294 602H911L838 141H1358L1335 0H651L717 416H328L125 0H-45L567 1290H758L786 858L856 1290H1520ZM694 551L631 1120L389 551H694Z" />
<glyph unicode="&#xc7;" glyph-name="Ccedilla" horiz-adv-x="1007" d="M686 -111Q686 -185 604 -254T438 -356L371 -293Q564 -205 563 -131Q563 -80 506 -80Q479 -80 401 -98L414 -20Q256 19 188 153T119 465Q119 641 174 812T334 1110Q510 1321 743 1321Q940
1321 1061 1233L983 1126Q874 1192 723 1192Q639 1192 557 1130T424 987Q283 770 283 469Q283 317 347 208T553 98Q717 98 844 188L899 84Q793 8 647 -20Q686 -68 686 -111Z" />
<glyph unicode="&#xc8;" glyph-name="Egrave" horiz-adv-x="913" d="M956 1290L934 1153H434L369 743H752L731 602H348L274 141H795L772 0H88L293 1290H956ZM877 1507L797 1415Q701 1470 617 1536T497 1639L461 1677L608 1806Q695 1657 877 1507Z" />
<glyph unicode="&#xc9;" glyph-name="Eacute" horiz-adv-x="913" d="M956 1290L934 1153H434L369 743H752L731 602H348L274 141H795L772 0H88L293 1290H956ZM909 1677Q747 1540 489 1415L440 1507Q542 1573 632 1647T763 1764L803 1806L909 1677Z" />
<glyph unicode="&#xca;" glyph-name="Ecircumflex" horiz-adv-x="913" d="M956 1290L934 1153H434L369 743H752L731 602H348L274 141H795L772 0H88L293 1290H956ZM950 1513L858 1423Q733 1548 682 1618Q485 1491 369 1425L307 1520Q399 1573 527 1658T707 1788Q811
1644 950 1513Z" />
<glyph unicode="&#xcb;" glyph-name="Edieresis" horiz-adv-x="913" d="M956 1290L934 1153H434L369 743H752L731 602H348L274 141H795L772 0H88L293 1290H956ZM621 1581Q621 1536 582 1501T498 1466Q465 1466 443 1487T420 1542Q420 1587 456 1625T537 1663Q572
1663 596 1640T621 1581ZM936 1581Q936 1536 897 1501T813 1466Q780 1466 758 1487T735 1542Q735 1587 771 1625T852 1663Q887 1663 911 1640T936 1581Z" />
<glyph unicode="&#xcc;" glyph-name="Igrave" horiz-adv-x="487" d="M580 1507L500 1415Q404 1470 320 1536T201 1639L166 1677L313 1806Q398 1657 580 1507ZM453 1290L248 0H88L293 1290H453Z" />
<glyph unicode="&#xcd;" glyph-name="Iacute" horiz-adv-x="487" d="M666 1677Q504 1540 246 1415L195 1507Q297 1573 388 1647T519 1764L559 1806L666 1677ZM453 1290L248 0H88L293 1290H453Z" />
<glyph unicode="&#xce;" glyph-name="Icircumflex" horiz-adv-x="487" d="M733 1513L641 1423Q516 1548 465 1618Q268 1491 152 1425L88 1520Q182 1571 310 1657T489 1788Q594 1644 733 1513ZM475 1290L270 0H111L315 1290H475Z" />
<glyph unicode="&#xcf;" glyph-name="Idieresis" horiz-adv-x="487" d="M346 1581Q346 1536 308 1501T225 1466Q192 1466 170 1487T147 1542Q147 1587 182 1625T264 1663Q297 1663 321 1640T346 1581ZM662 1581Q662 1536 624 1501T541 1466Q508 1466 486 1487T463
1542Q463 1587 497 1625T580 1663Q613 1663 637 1640T662 1581ZM453 1290L248 0H88L293 1290H453Z" />
<glyph unicode="&#xd1;" glyph-name="Ntilde" horiz-adv-x="1134" d="M1100 1290L895 0H727L408 1057Q406 971 391 877L252 0H88L293 1290H508L788 305Q790 325 793 361T800 427T807 483L936 1290H1100ZM1016 1708L1118 1688Q1098 1579 1034 1529T872 1489Q813
1495 736 1535T598 1575Q561 1575 524 1560T468 1528L449 1511L395 1587Q448 1653 504 1678T645 1696Q682 1692 772 1650T920 1608Q989 1608 1016 1708Z" />
<glyph unicode="&#xd2;" glyph-name="Ograve" horiz-adv-x="1120" d="M913 1507L834 1415Q736 1470 652 1536T532 1639L498 1677L645 1806Q729 1657 913 1507ZM883 842Q883 1186 666 1186Q562 1186 481 1102T358 893T297 650T276 436Q276 102 494 102Q580 102
649 157T761 297T831 484T871 678T883 842ZM473 -33Q375 -33 302 13T192 136T137 296T119 473Q119 573 140 684T208 909T318 1115T479 1263T688 1321Q786 1321 858 1276T969 1155T1025 996T1042 821Q1042 694 1008 551T907 275T726 54T473 -33Z" />
<glyph unicode="&#xd3;" glyph-name="Oacute" horiz-adv-x="1120" d="M1014 1677Q852 1540 596 1415L545 1507Q647 1573 737 1647T867 1764L907 1806L1014 1677ZM883 842Q883 1186 666 1186Q562 1186 481 1102T358 893T297 650T276 436Q276 102 494 102Q580 102
649 157T761 297T831 484T871 678T883 842ZM473 -33Q375 -33 302 13T192 136T137 296T119 473Q119 573 140 684T208 909T318 1115T479 1263T688 1321Q786 1321 858 1276T969 1155T1025 996T1042 821Q1042 694 1008 551T907 275T726 54T473 -33Z" />
<glyph unicode="&#xd4;" glyph-name="Ocircumflex" horiz-adv-x="1120" d="M1032 1513L940 1423Q815 1548 764 1618Q567 1491 451 1425L387 1520Q481 1571 609 1657T788 1788Q893 1644 1032 1513ZM883 842Q883 1186 666 1186Q562 1186 481 1102T358 893T297 650T276
436Q276 102 494 102Q580 102 649 157T761 297T831 484T871 678T883 842ZM473 -33Q375 -33 302 13T192 136T137 296T119 473Q119 573 140 684T208 909T318 1115T479 1263T688 1321Q786 1321 858 1276T969 1155T1025 996T1042 821Q1042 694 1008 551T907 275T726
54T473 -33Z" />
<glyph unicode="&#xd5;" glyph-name="Otilde" horiz-adv-x="1120" d="M985 1708L1087 1688Q1067 1579 1003 1529T842 1489Q783 1495 706 1535T567 1575Q530 1575 494 1560T437 1528L418 1511L365 1587Q418 1653 474 1678T614 1696Q651 1692 741 1650T889 1608Q958
1608 985 1708ZM883 842Q883 1186 666 1186Q562 1186 481 1102T358 893T297 650T276 436Q276 102 494 102Q580 102 649 157T761 297T831 484T871 678T883 842ZM473 -33Q375 -33 302 13T192 136T137 296T119 473Q119 573 140 684T208 909T318 1115T479 1263T688
1321Q786 1321 858 1276T969 1155T1025 996T1042 821Q1042 694 1008 551T907 275T726 54T473 -33Z" />
<glyph unicode="&#xd6;" glyph-name="Odieresis" horiz-adv-x="1120" d="M883 842Q883 1186 666 1186Q562 1186 481 1102T358 893T297 650T276 436Q276 102 494 102Q580 102 649 157T761 297T831 484T871 678T883 842ZM473 -33Q375 -33 302 13T192 136T137 296T119
473Q119 573 140 684T208 909T318 1115T479 1263T688 1321Q786 1321 858 1276T969 1155T1025 996T1042 821Q1042 694 1008 551T907 275T726 54T473 -33ZM682 1581Q682 1536 644 1501T559 1466Q526 1466 504 1487T481 1542Q481 1587 517 1625T598 1663Q633 1663
657 1640T682 1581ZM997 1581Q997 1536 960 1501T874 1466Q841 1466 819 1487T797 1542Q797 1587 832 1625T913 1663Q948 1663 972 1640T997 1581Z" />
<glyph unicode="&#xd8;" glyph-name="Oslash" horiz-adv-x="1120" d="M340 176L774 1155Q727 1186 666 1186Q562 1186 481 1102T358 893T297 650T276 436Q277 262 340 176ZM840 1075L416 117Q455 103 494 102Q580 102 649 157T761 297T831 484T871 678T883 842Q883
983 840 1075ZM1051 1550L911 1235Q1042 1102 1042 821Q1042 694 1008 551T907 275T726 54T473 -33Q407 -33 358 -14L229 -303H127L276 33Q118 158 119 473Q119 573 140 684T208 909T318 1115T479 1263T688 1321Q766 1321 834 1290L948 1550H1051Z" />
<glyph unicode="&#xd9;" glyph-name="Ugrave" horiz-adv-x="1114" d="M936 1507L856 1415Q760 1470 676 1536T556 1639L520 1677L668 1806Q754 1657 936 1507ZM1092 1290L965 494Q949 388 913 298T819 130T671 10T471 -33Q299 -33 217 74T135 358Q135 430 147
502L272 1290H436L311 500Q299 430 299 356Q299 102 494 102Q738 102 803 502L928 1290H1092Z" />
<glyph unicode="&#xda;" glyph-name="Uacute" horiz-adv-x="1114" d="M971 1677Q809 1540 553 1415L502 1507Q604 1573 694 1647T824 1764L864 1806L971 1677ZM1092 1290L965 494Q949 388 913 298T819 130T671 10T471 -33Q299 -33 217 74T135 358Q135 430 147
502L272 1290H436L311 500Q299 430 299 356Q299 102 494 102Q738 102 803 502L928 1290H1092Z" />
<glyph unicode="&#xdb;" glyph-name="Ucircumflex" horiz-adv-x="1114" d="M1047 1513L954 1423Q829 1548 778 1618Q581 1491 465 1425L401 1520Q495 1571 623 1657T803 1788Q908 1644 1047 1513ZM1092 1290L965 494Q949 388 913 298T819 130T671 10T471 -33Q299
-33 217 74T135 358Q135 430 147 502L272 1290H436L311 500Q299 430 299 356Q299 102 494 102Q738 102 803 502L928 1290H1092Z" />
<glyph unicode="&#xdc;" glyph-name="Udieresis" horiz-adv-x="1114" d="M1092 1290L965 494Q949 388 913 298T819 130T671 10T471 -33Q299 -33 217 74T135 358Q135 430 147 502L272 1290H436L311 500Q299 430 299 356Q299 102 494 102Q738 102 803 502L928 1290H1092ZM676
1581Q676 1536 637 1501T553 1466Q520 1466 498 1487T475 1542Q475 1587 511 1625T592 1663Q627 1663 651 1640T676 1581ZM991 1581Q991 1536 952 1501T868 1466Q835 1466 813 1487T791 1542Q791 1587 826 1625T907 1663Q942 1663 966 1640T991 1581Z" />
<glyph unicode="&#xdf;" glyph-name="germandbls" horiz-adv-x="1122" d="M1081 287Q1081 133 967 50T692 -33Q612 -33 529 2T393 94L469 199Q514 156 577 122T694 88Q770 88 844 136T918 258Q918 315 873 358T762 432T632 496T522 586T477 719Q477 862 585 946T844
1034Q873 1106 872 1163Q872 1249 815 1288T670 1327Q580 1327 504 1273T420 1133L309 37Q291 -133 111 -383L20 -330Q147 -117 172 145L236 885L92 903L109 1004H248L264 1159Q276 1292 403 1371T674 1450Q821 1450 919 1368T1018 1143Q1018 1028 950 899Q864
913 840 913Q764 913 700 872T635 760Q635 727 655 700T696 659T754 627L928 535Q1081 453 1081 287Z" />
<glyph unicode="&#xe0;" glyph-name="agrave" horiz-adv-x="1003" d="M911 1001L786 141Q786 137 785 132T784 125Q784 76 831 76Q851 76 881 88L907 10Q841 -29 772 -29Q709 -29 668 12T627 119Q627 139 634 174T643 221Q598 125 487 47T272 -31Q92 -31 92 248Q92
365 126 497T223 751T392 954T627 1034Q743 1034 911 1001ZM750 891Q695 905 629 905Q543 905 468 833T350 656T283 446T258 262Q258 106 334 106Q440 106 554 242T686 494L750 891ZM889 1241L809 1149Q713 1204 629 1269T509 1373L473 1411L621 1540Q707 1391
889 1241Z" />
<glyph unicode="&#xe1;" glyph-name="aacute" horiz-adv-x="1003" d="M911 1001L786 141Q786 137 785 132T784 125Q784 76 831 76Q851 76 881 88L907 10Q841 -29 772 -29Q709 -29 668 12T627 119Q627 139 634 174T643 221Q598 125 487 47T272 -31Q92 -31 92 248Q92
365 126 497T223 751T392 954T627 1034Q743 1034 911 1001ZM750 891Q695 905 629 905Q543 905 468 833T350 656T283 446T258 262Q258 106 334 106Q440 106 554 242T686 494L750 891ZM954 1411Q794 1274 537 1149L485 1241Q587 1307 678 1381T809 1498L848 1540L954
1411Z" />
<glyph unicode="&#xe2;" glyph-name="acircumflex" horiz-adv-x="1003" d="M911 1001L786 141Q786 137 785 132T784 125Q784 76 831 76Q851 76 881 88L907 10Q841 -29 772 -29Q709 -29 668 12T627 119Q627 139 634 174T643 221Q598 125 487 47T272 -31Q92 -31
92 248Q92 365 126 497T223 751T392 954T627 1034Q743 1034 911 1001ZM750 891Q695 905 629 905Q543 905 468 833T350 656T283 446T258 262Q258 106 334 106Q440 106 554 242T686 494L750 891ZM979 1247L887 1157Q762 1282 711 1352Q514 1225 397 1159L334 1253Q428
1304 556 1390T735 1522Q840 1378 979 1247Z" />
<glyph unicode="&#xe3;" glyph-name="atilde" horiz-adv-x="1003" d="M936 1442L1038 1421Q1018 1312 954 1262T793 1223Q734 1229 657 1269T518 1309Q481 1309 445 1294T388 1262L369 1245L315 1321Q368 1387 424 1412T565 1430Q602 1426 692 1384T840 1341Q911
1342 936 1442ZM911 1001L786 141Q786 137 785 132T784 125Q784 76 831 76Q851 76 881 88L907 10Q841 -29 772 -29Q709 -29 668 12T627 119Q627 139 634 174T643 221Q598 125 487 47T272 -31Q92 -31 92 248Q92 365 126 497T223 751T392 954T627 1034Q743 1034 911
1001ZM750 891Q695 905 629 905Q543 905 468 833T350 656T283 446T258 262Q258 106 334 106Q440 106 554 242T686 494L750 891Z" />
<glyph unicode="&#xe4;" glyph-name="adieresis" horiz-adv-x="1003" d="M911 1001L786 141Q786 137 785 132T784 125Q784 76 831 76Q851 76 881 88L907 10Q841 -29 772 -29Q709 -29 668 12T627 119Q627 139 634 174T643 221Q598 125 487 47T272 -31Q92 -31 92
248Q92 365 126 497T223 751T392 954T627 1034Q743 1034 911 1001ZM750 891Q695 905 629 905Q543 905 468 833T350 656T283 446T258 262Q258 106 334 106Q440 106 554 242T686 494L750 891ZM641 1315Q641 1270 603 1235T520 1200Q487 1200 465 1221T442 1276Q442
1321 477 1359T559 1397Q592 1397 616 1374T641 1315ZM956 1315Q956 1270 919 1235T836 1200Q803 1200 781 1221T758 1276Q758 1321 792 1359T874 1397Q907 1397 931 1374T956 1315Z" />
<glyph unicode="&#xe5;" glyph-name="aring" horiz-adv-x="1003" d="M911 1001L786 141Q786 137 785 132T784 125Q784 76 831 76Q851 76 881 88L907 10Q841 -29 772 -29Q709 -29 668 12T627 119Q627 139 634 174T643 221Q598 125 487 47T272 -31Q92 -31 92 248Q92
365 126 497T223 751T392 954T627 1034Q743 1034 911 1001ZM750 891Q695 905 629 905Q543 905 468 833T350 656T283 446T258 262Q258 106 334 106Q440 106 554 242T686 494L750 891ZM924 1350Q910 1262 836 1198T672 1133Q584 1133 532 1196T494 1350Q508 1438
582 1502T745 1567T886 1504T924 1350ZM821 1300T829 1349T808 1436T731 1473Q680 1473 637 1436T586 1350T608 1264T686 1227Q735 1227 778 1263Z" />
<glyph unicode="&#xe6;" glyph-name="ae" horiz-adv-x="1361" d="M600 152Q539 78 449 24T272 -31Q92 -31 92 248Q92 365 126 497T223 751T392 954T627 1034Q713 1034 889 991Q979 1034 1079 1034Q1192 1034 1260 977T1329 811Q1329 541 723 414Q723 406 722 390T721
367Q721 267 768 180T907 92Q979 92 1056 136T1190 240L1249 156Q1077 -30 872 -31Q676 -30 600 152ZM1161 823Q1161 911 1047 911Q930 911 845 791T735 539Q1161 630 1161 823ZM754 891Q697 905 629 905Q543 905 468 833T350 656T283 446T258 262Q258 106 334
106Q447 106 567 260Q559 307 559 362Q559 507 609 650T754 891Z" />
<glyph unicode="&#xe7;" glyph-name="ccedilla" horiz-adv-x="849" d="M582 -111Q582 -185 500 -254T334 -356L266 -293L286 -283Q305 -273 311 -270T336 -255T366 -237T393 -218T419 -198T438 -177T453 -154T457 -131Q457 -80 399 -80Q370 -80 297 -98L309 -12Q205
25 149 130T92 365Q92 478 124 592T214 806T370 968T590 1032Q707 1032 836 932L756 838Q662 908 573 907Q471 907 394 815T285 613T252 403Q252 350 262 299T293 200T358 122T459 92Q508 92 591 140T725 236L784 154Q675 39 532 -10Q582 -56 582 -111Z" />
<glyph unicode="&#xe8;" glyph-name="egrave" horiz-adv-x="894" d="M862 811Q862 541 256 414Q254 398 254 367Q254 267 301 180T440 92Q510 92 588 136T721 240L782 156Q606 -30 406 -31Q250 -31 171 85T92 362Q92 520 148 669T328 926T612 1034Q725 1034 793
977T862 811ZM694 823Q694 911 580 911Q463 911 378 791T268 539Q694 630 694 823ZM823 1241L743 1149Q647 1204 563 1269T443 1373L408 1411L555 1540Q641 1391 823 1241Z" />
<glyph unicode="&#xe9;" glyph-name="eacute" horiz-adv-x="894" d="M862 811Q862 541 256 414Q254 398 254 367Q254 267 301 180T440 92Q510 92 588 136T721 240L782 156Q606 -30 406 -31Q250 -31 171 85T92 362Q92 520 148 669T328 926T612 1034Q725 1034 793
977T862 811ZM694 823Q694 911 580 911Q463 911 378 791T268 539Q694 630 694 823ZM879 1411Q719 1274 461 1149L410 1241Q512 1307 603 1381T733 1498L772 1540L879 1411Z" />
<glyph unicode="&#xea;" glyph-name="ecircumflex" horiz-adv-x="894" d="M862 811Q862 541 256 414Q254 398 254 367Q254 267 301 180T440 92Q510 92 588 136T721 240L782 156Q606 -30 406 -31Q250 -31 171 85T92 362Q92 520 148 669T328 926T612 1034Q725 1034
793 977T862 811ZM694 823Q694 911 580 911Q463 911 378 791T268 539Q694 630 694 823ZM905 1247L813 1157Q688 1282 637 1352Q440 1225 324 1159L260 1253Q354 1304 482 1390T662 1522Q766 1378 905 1247Z" />
<glyph unicode="&#xeb;" glyph-name="edieresis" horiz-adv-x="894" d="M862 811Q862 541 256 414Q254 398 254 367Q254 267 301 180T440 92Q510 92 588 136T721 240L782 156Q606 -30 406 -31Q250 -31 171 85T92 362Q92 520 148 669T328 926T612 1034Q725 1034
793 977T862 811ZM694 823Q694 911 580 911Q463 911 378 791T268 539Q694 630 694 823ZM559 1315Q559 1270 521 1235T436 1200Q403 1200 381 1221T358 1276Q358 1321 394 1359T475 1397Q510 1397 534 1374T559 1315ZM874 1315Q874 1270 837 1235T752 1200Q719 1200
697 1221T674 1276Q674 1321 709 1359T791 1397Q826 1397 850 1374T874 1315Z" />
<glyph unicode="&#xec;" glyph-name="igrave" horiz-adv-x="479" d="M541 1241L461 1149Q365 1204 281 1269T161 1373L125 1411L272 1540Q359 1391 541 1241ZM401 1004L242 0H90L250 1004H401Z" />
<glyph unicode="&#xed;" glyph-name="iacute" horiz-adv-x="479" d="M401 1004L242 0H90L250 1004H401ZM598 1411Q436 1274 178 1149L127 1241Q229 1307 320 1381T452 1498L492 1540L598 1411Z" />
<glyph unicode="&#xee;" glyph-name="icircumflex" horiz-adv-x="479" d="M735 1247L643 1157Q518 1282 467 1352Q270 1225 154 1159L90 1253Q184 1304 312 1390T492 1522Q596 1378 735 1247ZM487 1004L328 0H176L336 1004H487Z" />
<glyph unicode="&#xef;" glyph-name="idieresis" horiz-adv-x="479" d="M625 1315Q625 1270 586 1235T502 1200Q469 1200 447 1221T424 1276Q424 1321 459 1359T541 1397Q574 1397 599 1373T625 1315ZM309 1315Q309 1270 270 1235T186 1200Q153 1200 131 1221T109
1276Q109 1321 143 1359T225 1397Q258 1397 283 1373T309 1315ZM401 1004L242 0H90L250 1004H401Z" />
<glyph unicode="&#xf1;" glyph-name="ntilde" horiz-adv-x="1062" d="M821 0H666L786 762Q792 817 793 819Q793 907 702 907Q604 907 502 825T346 645L246 0H90L250 1004H406L375 815Q426 897 532 965T735 1034Q839 1034 894 993T950 852Q950 823 942 762L821
0ZM932 1442L1034 1421Q1014 1312 950 1262T788 1223Q729 1229 652 1269T514 1309Q477 1309 440 1294T384 1262L365 1245L311 1321Q364 1387 420 1412T561 1430Q598 1426 688 1384T836 1341Q907 1342 932 1442Z" />
<glyph unicode="&#xf2;" glyph-name="ograve" horiz-adv-x="1001" d="M416 -31Q254 -31 173 92T92 385Q92 528 147 673T319 926T586 1034Q748 1034 828 910T909 614Q909 473 853 328T680 76T416 -31ZM756 631Q756 748 713 829T565 911Q456 911 380 810T275 591T246
369Q246 254 289 172T436 90Q520 90 584 147T685 293T738 468T756 631ZM829 1241L750 1149Q654 1204 570 1269T450 1373L414 1411L561 1540Q647 1391 829 1241Z" />
<glyph unicode="&#xf3;" glyph-name="oacute" horiz-adv-x="1001" d="M416 -31Q254 -31 173 92T92 385Q92 528 147 673T319 926T586 1034Q748 1034 828 910T909 614Q909 473 853 328T680 76T416 -31ZM756 631Q756 748 713 829T565 911Q456 911 380 810T275 591T246
369Q246 254 289 172T436 90Q520 90 584 147T685 293T738 468T756 631ZM887 1411Q725 1274 469 1149L418 1241Q520 1307 610 1381T740 1498L780 1540L887 1411Z" />
<glyph unicode="&#xf4;" glyph-name="ocircumflex" horiz-adv-x="1001" d="M416 -31Q254 -31 173 92T92 385Q92 528 147 673T319 926T586 1034Q748 1034 828 910T909 614Q909 473 853 328T680 76T416 -31ZM756 631Q756 748 713 829T565 911Q456 911 380 810T275
591T246 369Q246 254 289 172T436 90Q520 90 584 147T685 293T738 468T756 631ZM934 1247L842 1157Q717 1282 666 1352Q469 1225 352 1159L289 1253Q383 1304 511 1390T690 1522Q795 1378 934 1247Z" />
<glyph unicode="&#xf5;" glyph-name="otilde" horiz-adv-x="1001" d="M416 -31Q254 -31 173 92T92 385Q92 528 147 673T319 926T586 1034Q748 1034 828 910T909 614Q909 473 853 328T680 76T416 -31ZM756 631Q756 748 713 829T565 911Q456 911 380 810T275 591T246
369Q246 254 289 172T436 90Q520 90 584 147T685 293T738 468T756 631ZM887 1442L989 1421Q971 1312 906 1262T743 1223Q686 1229 608 1269T469 1309Q432 1309 395 1294T339 1262L319 1245L266 1321Q319 1387 375 1412T516 1430Q553 1426 643 1384T791 1341Q862
1342 887 1442Z" />
<glyph unicode="&#xf6;" glyph-name="odieresis" horiz-adv-x="1001" d="M416 -31Q254 -31 173 92T92 385Q92 528 147 673T319 926T586 1034Q748 1034 828 910T909 614Q909 473 853 328T680 76T416 -31ZM756 631Q756 748 713 829T565 911Q456 911 380 810T275
591T246 369Q246 254 289 172T436 90Q520 90 584 147T685 293T738 468T756 631ZM584 1315Q584 1270 546 1235T463 1200Q430 1200 407 1221T383 1276Q383 1321 419 1359T500 1397Q535 1397 559 1374T584 1315ZM899 1315Q899 1270 861 1235T778 1200Q745 1200 722
1221T698 1276Q698 1321 734 1359T815 1397Q850 1397 874 1374T899 1315Z" />
<glyph unicode="&#xf7;" glyph-name="divide" horiz-adv-x="1001" d="M627 877T627 828T587 740T498 702T413 735T377 817Q377 868 417 905T508 942Q557 942 592 910ZM627 268T627 219T587 132T498 94T413 127T377 209Q377 260 417 297T508 334Q557 334 592 301ZM889
451H111V573H889V451Z" />
<glyph unicode="&#xf8;" glyph-name="oslash" horiz-adv-x="1001" d="M416 -31Q361 -31 319 -16L221 -233H119L236 27Q93 138 92 385Q92 528 147 673T319 926T586 1034Q641 1034 682 1020L756 1186H858L764 977Q909 866 909 614Q909 473 853 328T680 76T416 -31ZM629
901Q598 911 565 911Q456 911 380 810T275 591T246 369Q246 236 295 160L629 901ZM756 631Q756 768 705 842L371 100Q402 90 436 90Q520 90 584 147T685 293T738 468T756 631Z" />
<glyph unicode="&#xf9;" glyph-name="ugrave" horiz-adv-x="1038" d="M971 1004L836 154Q832 125 831 113Q831 74 866 72L799 -31H793Q740 -33 707 2T674 90T692 193Q629 103 530 36T330 -31Q221 -31 166 11T111 156Q111 185 119 242L240 1004H395L274 242Q268
211 268 180Q268 96 362 96Q530 96 709 346L815 1004H971ZM868 1241L788 1149Q692 1204 608 1269T488 1373L453 1411L600 1540Q686 1391 868 1241Z" />
<glyph unicode="&#xfa;" glyph-name="uacute" horiz-adv-x="1038" d="M971 1004L836 154Q832 125 831 113Q831 74 866 72L799 -31H793Q740 -33 707 2T674 90T692 193Q629 103 530 36T330 -31Q221 -31 166 11T111 156Q111 185 119 242L240 1004H395L274 242Q268
211 268 180Q268 96 362 96Q530 96 709 346L815 1004H971ZM899 1411Q739 1274 481 1149L430 1241Q532 1307 623 1381T754 1498L793 1540L899 1411Z" />
<glyph unicode="&#xfb;" glyph-name="ucircumflex" horiz-adv-x="1038" d="M971 1004L836 154Q832 125 831 113Q831 74 866 72L799 -31H793Q740 -33 707 2T674 90T692 193Q629 103 530 36T330 -31Q221 -31 166 11T111 156Q111 185 119 242L240 1004H395L274 242Q268
211 268 180Q268 96 362 96Q530 96 709 346L815 1004H971ZM971 1247L879 1157Q754 1282 702 1352Q505 1225 389 1159L326 1253Q420 1304 548 1390T727 1522Q832 1378 971 1247Z" />
<glyph unicode="&#xfc;" glyph-name="udieresis" horiz-adv-x="1038" d="M971 1004L836 154Q832 125 831 113Q831 74 866 72L799 -31H793Q740 -33 707 2T674 90T692 193Q629 103 530 36T330 -31Q221 -31 166 11T111 156Q111 185 119 242L240 1004H395L274 242Q268
211 268 180Q268 96 362 96Q530 96 709 346L815 1004H971ZM606 1315Q606 1270 567 1235T483 1200Q450 1200 428 1221T406 1276Q406 1321 441 1359T522 1397Q557 1397 581 1374T606 1315ZM922 1315Q922 1270 883 1235T799 1200Q766 1200 744 1221T721 1276Q721 1321
757 1359T838 1397Q873 1397 897 1374T922 1315Z" />
<glyph unicode="&#xff;" glyph-name="ydieresis" horiz-adv-x="882" d="M825 1018Q862 926 862 813Q862 694 809 606L420 -43Q340 -178 249 -258T20 -381L-16 -276Q86 -235 158 -168T295 2L84 1004H250L399 172L696 676Q716 713 717 770Q717 876 674 987L825 1018ZM475
1315Q475 1270 436 1235T352 1200Q319 1200 297 1221T274 1276Q274 1321 309 1359T391 1397Q426 1397 450 1374T475 1315ZM791 1315Q791 1270 752 1235T668 1200Q635 1200 613 1221T590 1276Q590 1321 624 1359T707 1397Q742 1397 766 1374T791 1315Z" />
<glyph unicode="&#x2013;" glyph-name="endash" horiz-adv-x="733" d="M733 461H0V584H733V461Z" />
<glyph unicode="&#x2014;" glyph-name="emdash" horiz-adv-x="1245" d="M1245 463H0V586H1245V463Z" />
<glyph unicode="&#x2018;" glyph-name="quoteleft" horiz-adv-x="559" d="M199 1008Q308 1174 514 1343L596 1268Q399 1057 416 918Q371 895 328 895Q262 895 199 1008Z" />
<glyph unicode="&#x2019;" glyph-name="quoteright" horiz-adv-x="610" d="M557 1198Q446 1028 244 862L160 938Q357 1149 340 1288Q389 1311 430 1311Q498 1311 557 1198Z" />
<glyph unicode="&#x201a;" glyph-name="quotesinglbase" horiz-adv-x="528" d="M354 84Q241 -94 31 -293L-51 -229Q66 -90 111 10Q125 45 132 79T138 128L137 143Q200 178 240 178Q267 178 295 155T339 108L354 84Z" />
<glyph unicode="&#x201c;" glyph-name="quotedblleft" horiz-adv-x="944" d="M565 1008Q674 1174 881 1343L963 1268Q766 1057 782 918Q737 895 694 895Q628 895 565 1008ZM203 1008Q312 1174 518 1343L600 1268Q403 1057 420 918Q375 895 332 895Q266 895 203 1008Z" />
<glyph unicode="&#x201d;" glyph-name="quotedblright" horiz-adv-x="942" d="M563 1198Q452 1028 250 862L166 938Q363 1149 346 1288Q395 1311 436 1311Q504 1311 563 1198ZM926 1198Q815 1028 612 862L528 938Q725 1149 709 1288Q758 1311 799 1311Q867 1311
926 1198Z" />
<glyph unicode="&#x201e;" glyph-name="quotedblbase" horiz-adv-x="935" d="M352 59Q241 -111 39 -276L-43 -201Q154 10 137 150Q182 173 225 172Q293 172 352 59ZM715 59Q604 -111 401 -276L319 -201Q516 10 500 150Q545 173 588 172Q656 172 715 59Z" />
<glyph unicode="&#x2020;" glyph-name="dagger" d="M838 1004L795 868H528L459 428Q410 104 311 -31Q284 41 285 176Q285 289 305 428L375 868H102L125 1004H397L442 1290H596L551 1004H838Z" />
<glyph unicode="&#x2021;" glyph-name="daggerdbl" horiz-adv-x="841" d="M842 1004L799 868H532L481 543H768L727 408H461Q408 82 311 -49Q258 103 307 408H35L55 543H328L379 868H106L129 1004H401L446 1288H600L555 1004H842Z" />
<glyph unicode="&#x2022;" glyph-name="bullet" horiz-adv-x="868" d="M786 791T786 646T682 397T433 293T184 396T80 645T183 894T432 997T682 894Z" />
<glyph unicode="&#x2026;" glyph-name="ellipsis" horiz-adv-x="1204" d="M328 143T328 94T288 7T197 -31Q148 -31 113 2T78 84Q78 135 117 172T207 209Q256 209 292 176ZM680 143T680 94T640 7T549 -31Q500 -31 465 2T430 84Q430 135 469 172T559 209Q608 209
644 176ZM1028 143T1028 94T988 7T897 -31Q848 -31 813 2T778 84Q778 135 817 172T907 209Q956 209 992 176Z" />
<glyph unicode="&#x2030;" glyph-name="perthousand" horiz-adv-x="2058" d="M518 985T518 1048T474 1156T367 1200T259 1156T215 1049T259 941T366 897T474 941ZM987 1290L532 0H397L829 1196Q794 1178 741 1169T652 1158L616 1157Q639 1114 639 1049Q639 936
559 856T367 776T174 856T94 1048T174 1241T367 1321Q447 1321 512 1280Q594 1257 655 1257Q712 1257 769 1272T855 1304L883 1319L987 1290ZM1333 354T1333 242T1254 49T1061 -31T868 49T788 241T868 434T1061 514T1253 434ZM1212 178T1212 241T1168 349T1061
393T953 349T909 242T953 134T1060 90T1168 134ZM1962 354T1962 242T1882 49T1690 -31T1497 49T1417 241T1497 434T1689 514T1882 434ZM1841 178T1841 241T1797 349T1690 393T1582 349T1538 242T1582 134T1689 90T1797 134Z" />
<glyph unicode="&#x2039;" glyph-name="guilsinglleft" horiz-adv-x="589" d="M547 205L451 127L68 512L446 897L543 819L238 512L547 205Z" />
<glyph unicode="&#x203a;" glyph-name="guilsinglright" horiz-adv-x="667" d="M133 205L229 127L612 512L233 897L137 819L442 512L133 205Z" />
<glyph unicode="&#x2044;" glyph-name="fraction" horiz-adv-x="1001" d="M1001 1526L-162 -268H-291L872 1526H1001Z" />
</font>
</defs>
</svg>
